<svg xmlns="http://www.w3.org/2000/svg" viewBox="0 0 1000 1000">
  <path d="M 402.554 164.913 C 402.243 165.416, 401.701 169.241, 401.348 173.413 C 400.954 178.075, 400.265 181, 399.561 181 C 398.930 181, 397.873 183.025, 397.211 185.500 C 396.549 187.975, 395.549 190, 394.989 190 C 393.508 190, 390.280 184.307, 389.547 180.401 C 389.038 177.685, 388.492 177.083, 386.708 177.269 C 385.386 177.407, 384.600 176.999, 384.750 176.250 C 384.887 175.563, 385.113 174.464, 385.250 173.809 C 385.387 173.155, 384.668 172.438, 383.650 172.217 C 382.058 171.871, 381.895 172.245, 382.480 174.908 C 382.993 177.242, 382.772 178.150, 381.580 178.608 C 379.792 179.294, 379.161 200, 380.928 200 C 382.463 200, 386 210.761, 386 215.431 C 386 218.380, 386.484 219.972, 387.500 220.362 C 388.490 220.742, 389 222.308, 389 224.969 C 389 227.186, 389.450 229, 390 229 C 390.550 229, 391 230.323, 391 231.941 C 391 233.559, 391.453 235.162, 392.007 235.504 C 394.433 237.004, 396.342 243.206, 398.132 255.404 C 399.189 262.607, 400.457 269.850, 400.950 271.500 C 403.540 280.164, 405.346 289.152, 405.572 294.500 C 405.712 297.800, 405.866 301.011, 405.913 301.636 C 405.961 302.261, 407.524 303.495, 409.387 304.380 C 411.938 305.590, 412.929 306.810, 413.400 309.318 C 413.744 311.151, 414.807 313.516, 415.762 314.575 C 417.654 316.671, 422 326.680, 422 328.941 C 422 329.712, 422.656 331.067, 423.457 331.953 C 425.430 334.133, 427.138 345.889, 427.676 360.988 C 427.972 369.274, 428.562 373.985, 429.431 374.988 C 430.181 375.855, 431.032 380.553, 431.423 386 C 431.799 391.225, 432.532 395.927, 433.053 396.450 C 434.600 398.002, 434.145 430.606, 432.480 437.500 C 431.683 440.800, 431.024 447.382, 431.016 452.128 C 431.004 458.562, 430.619 461.072, 429.500 462 C 428.334 462.968, 428 465.681, 428 474.188 C 428 480.207, 427.597 485.889, 427.105 486.816 C 426.613 487.742, 425.983 492.225, 425.705 496.777 C 425.422 501.418, 424.623 505.750, 423.886 506.637 C 422.756 507.998, 423.146 508.731, 426.661 511.860 C 433.855 518.264, 435.940 526.938, 431.890 533.618 C 430.636 535.687, 430 538.610, 430 542.309 C 430 545.374, 429.550 548.160, 429 548.500 C 428.450 548.840, 428 551.251, 428 553.859 C 428 556.467, 427.486 559.114, 426.858 559.742 C 426.230 560.370, 425.379 563.947, 424.967 567.692 C 424.554 571.436, 423.663 578.697, 422.987 583.827 C 422.051 590.931, 422.025 595.235, 422.879 601.894 C 424.298 612.962, 424.322 635.964, 422.927 648.788 C 422.140 656.015, 422.164 661.711, 423.014 670.077 C 423.653 676.360, 424.511 685.189, 424.921 689.697 C 425.331 694.205, 426.145 698.480, 426.731 699.197 C 428.009 700.763, 429.132 709.427, 429.037 717 C 428.900 727.988, 427.826 741.505, 427.012 742.491 C 426.554 743.046, 425.855 745.300, 425.459 747.500 C 425.063 749.700, 424.235 752.132, 423.620 752.904 C 422.842 753.878, 422.462 766.099, 422.376 792.904 C 422.295 818.475, 421.840 833.766, 421.030 838.214 C 420.076 843.452, 420.069 846.482, 420.999 851.996 C 422.021 858.052, 421.963 859.635, 420.596 863.052 C 418.524 868.229, 418.553 877.279, 420.659 883.156 C 422.259 887.621, 422.244 888.010, 420.285 892.656 C 419.162 895.320, 417.961 899.090, 417.617 901.032 C 417.140 903.723, 416.307 904.823, 414.121 905.648 C 411.234 906.738, 409.952 910.215, 409.985 916.863 C 409.995 918.942, 409.621 919.171, 406.876 918.769 C 404.352 918.398, 403.132 918.935, 400.489 921.577 L 397.223 924.844 398.719 929.389 C 400.544 934.933, 401.493 935.302, 414.341 935.477 C 432.976 935.731, 434.732 935.234, 442.351 927.539 C 446.347 923.503, 449.013 919.961, 449.032 918.662 C 449.049 917.473, 449.737 915.609, 450.561 914.519 C 451.475 913.310, 451.831 911.508, 451.477 909.893 C 451.109 908.222, 451.440 906.703, 452.374 905.768 C 453.188 904.955, 454.344 900.763, 454.943 896.454 C 455.623 891.568, 456.686 887.955, 457.767 886.857 C 461.397 883.169, 462.162 881.798, 463.537 876.517 C 464.316 873.527, 465.469 865.775, 466.098 859.290 C 466.727 852.806, 467.634 847.251, 468.113 846.946 C 469.940 845.784, 471.376 825.126, 471.446 799 C 471.500 778.905, 471.643 777.271, 473.628 774 C 475.528 770.868, 475.809 768.523, 476.307 751.678 C 476.846 733.434, 476.936 732.788, 479.264 730.631 C 481.624 728.444, 484 714.018, 484 701.879 C 484 699.952, 484.853 696.604, 485.896 694.438 C 486.939 692.272, 488.126 686.900, 488.534 682.500 C 489.153 675.831, 489.744 673.931, 492.091 671.079 C 493.640 669.197, 494.702 667.327, 494.452 666.922 C 493.596 665.537, 496.370 650.502, 497.936 648.044 C 498.796 646.693, 499.577 644.443, 499.671 643.044 C 500.189 635.348, 501.384 630.865, 503.172 629.908 C 505.842 628.479, 509 629.721, 509 632.199 C 509 633.335, 509.833 635.667, 510.850 637.382 C 511.868 639.097, 513.250 643.875, 513.923 648 C 514.595 652.125, 515.788 657.689, 516.573 660.365 C 517.358 663.040, 518 666.775, 518 668.664 C 518 670.554, 518.625 673.314, 519.389 674.800 C 520.930 677.797, 522.662 686.791, 524.371 700.672 C 524.992 705.716, 525.837 710.178, 526.250 710.588 C 526.663 710.998, 527 715.478, 527 720.545 C 527 729.212, 527.790 732.865, 531.110 739.555 C 531.671 740.686, 532.029 742.036, 531.906 742.555 C 531.783 743.075, 531.958 744.175, 532.294 745 C 532.631 745.825, 533.122 758.875, 533.386 774 C 533.957 806.758, 535.350 829.917, 536.926 832.863 C 538.497 835.798, 538.693 858.847, 537.171 861.684 C 536.527 862.886, 536 866.598, 536 869.934 L 536 876 539.556 876 C 542.826 876, 543.288 876.383, 545.294 880.750 C 547.547 885.654, 548.113 895.803, 546.273 898.309 C 545.501 899.360, 545.092 903.770, 544.632 916 C 544.529 918.741, 544.988 919.714, 546.750 920.487 C 548.119 921.088, 549 922.351, 549 923.711 C 549 925.186, 550.023 926.478, 552 927.500 C 553.650 928.353, 555 929.850, 555 930.826 C 555 933.220, 556.938 935, 559.545 935 C 561.661 935, 564.988 937.786, 565.012 939.579 C 565.019 940.085, 566.594 941.517, 568.512 942.759 C 570.431 944.002, 572 945.716, 572 946.568 C 572 947.421, 572.402 947.869, 572.894 947.566 C 573.385 947.262, 575.298 947.616, 577.144 948.352 C 581.354 950.032, 591.011 949.849, 597.293 947.971 L 602.086 946.538 601.447 941.426 C 601.007 937.900, 601.349 934.388, 602.549 930.111 C 604.403 923.503, 603.996 921.390, 599.927 916.500 C 599.011 915.400, 597.989 913.340, 597.655 911.922 C 597.321 910.504, 595.979 908.191, 594.673 906.781 C 593.367 905.372, 592.020 903.494, 591.680 902.609 C 591.312 901.649, 589.908 901, 588.200 901 C 586.206 901, 584.950 900.275, 584.059 898.610 C 583.356 897.296, 581.755 895.754, 580.502 895.183 C 577.502 893.816, 576.407 885.968, 579.117 885.259 C 581.934 884.522, 582.050 882.528, 582.642 824.659 C 583.100 779.835, 583.486 768.294, 584.600 766.159 C 586.353 762.800, 586.354 761.538, 584.603 760.086 C 583.708 759.343, 582.947 755.620, 582.484 749.713 C 581.903 742.318, 581.157 739.316, 578.699 734.500 C 574.582 726.431, 573.881 705.181, 577.633 702.196 C 580.078 700.252, 582.180 696.556, 581.874 694.739 C 581.524 692.658, 583.087 685.696, 584.717 682.076 C 586.889 677.253, 587.653 669.247, 587.913 648.584 C 588.124 631.752, 588.276 630.463, 590.319 628.062 C 592.486 625.516, 597.988 624.514, 600.565 626.195 C 601.859 627.039, 612 624.198, 612 622.992 C 612 622.521, 612.862 621.861, 613.916 621.527 C 614.970 621.192, 616.297 619.587, 616.864 617.959 C 617.432 616.332, 618.541 615, 619.329 615 C 620.805 615, 623 608.231, 623 603.680 C 623 602.341, 623.714 600.652, 624.587 599.928 C 625.694 599.009, 626.028 597.538, 625.693 595.056 C 623.780 580.887, 623.133 570.769, 622.942 552 C 622.543 512.937, 620.822 471.620, 619.526 470 C 618.865 469.175, 617.748 465.800, 617.042 462.500 C 616.337 459.200, 614.969 455.375, 614.003 454 C 612.432 451.763, 610.743 441.221, 611.040 435.500 C 611.156 433.254, 611.892 416.199, 611.958 414.225 C 611.981 413.524, 613.125 412.523, 614.500 412 C 617.238 410.959, 618.017 406.417, 615.832 404.232 C 613.891 402.291, 612.031 395.781, 612.015 390.872 C 612.006 387.995, 611.433 385.774, 610.500 385 C 609.574 384.232, 608.986 381.984, 608.965 379.128 C 608.945 376.582, 608.286 373.375, 607.500 372 C 606.714 370.625, 606.055 367.060, 606.035 364.079 C 606.012 360.427, 605.447 358.046, 604.306 356.786 C 603.342 355.721, 602.494 352.890, 602.339 350.218 C 602.189 347.635, 601.601 345.367, 601.033 345.178 C 600.465 344.988, 600 343.761, 600 342.451 C 600 337.210, 591.585 324, 588.247 324 C 587.357 324, 584.494 322.200, 581.885 320 C 578.683 317.300, 576.178 316, 574.178 316 C 572.466 316, 570.971 315.366, 570.638 314.500 C 570.288 313.587, 568.775 313, 566.772 313 C 564.564 313, 563.070 312.342, 562.232 311 C 561.370 309.620, 559.900 309, 557.492 309 C 555.055 309, 554 308.547, 554 307.500 C 554 306.568, 553.057 306, 551.509 306 C 550.126 306, 547.789 304.776, 546.259 303.250 C 544.741 301.738, 542.600 300.500, 541.500 300.500 C 539.724 300.500, 539.494 299.815, 539.444 294.373 C 539.404 290.004, 538.902 287.759, 537.694 286.551 C 535.621 284.478, 535.539 280.304, 537.441 273.588 C 538.233 270.790, 539.366 264.675, 539.959 260 C 540.551 255.325, 541.518 248.800, 542.108 245.500 C 543.749 236.316, 542.936 212.681, 540.905 210.550 C 540.407 210.028, 540 208.743, 540 207.695 C 540 206.647, 538.650 203.790, 537 201.345 C 535.350 198.900, 533.982 196.585, 533.959 196.200 C 533.937 195.815, 532.587 193.942, 530.959 192.038 C 529.332 190.134, 528 187.540, 528 186.275 C 528 184.545, 526.905 183.442, 523.590 181.831 C 521.164 180.653, 518.678 178.589, 518.066 177.246 C 517.264 175.485, 516.472 174.998, 515.227 175.500 C 511.358 177.061, 506.224 177.169, 503.413 175.748 C 501.159 174.609, 497.898 174.386, 489 174.762 L 477.500 175.248 472.500 179.869 C 469.750 182.411, 466.967 185.711, 466.315 187.204 C 465.629 188.777, 463.629 190.546, 461.559 191.411 C 459.527 192.260, 457.585 193.961, 457.055 195.356 C 456.542 196.704, 455.244 198.639, 454.170 199.654 C 448.512 205.003, 448.706 231.962, 454.436 236.531 C 456.793 238.410, 457.157 239.275, 456.589 241.646 C 454.157 251.789, 455.003 255.696, 460.440 259.421 C 462.263 260.671, 462.298 261.104, 461.024 266.625 C 460.278 269.856, 459.507 272.812, 459.310 273.194 C 459.113 273.575, 456.712 272.495, 453.976 270.794 C 449.180 267.813, 449 267.534, 448.992 263.101 C 448.986 259.177, 448.618 258.330, 446.493 257.344 C 445.060 256.680, 443.764 256.573, 443.442 257.094 C 443.134 257.592, 441.144 258, 439.020 258 C 435.476 258, 435.101 258.267, 434.452 261.250 C 434.063 263.038, 433.127 265.388, 432.372 266.473 C 431.618 267.557, 431 269.190, 431 270.100 C 431 271.010, 430.325 272.315, 429.500 273 C 428.675 273.685, 428 275.271, 428 276.525 C 428 278.159, 427.150 279.101, 425 279.850 C 422.749 280.635, 422 281.518, 422 283.389 C 422 287.331, 420.199 287.411, 418.581 283.540 C 417.768 281.593, 416.701 280, 416.212 280 C 414.631 280, 413 275.033, 412.994 270.203 C 412.990 267.616, 412.299 264.180, 411.458 262.566 C 410.616 260.952, 410.177 258.982, 410.481 258.189 C 410.785 257.396, 410.636 256.241, 410.150 255.623 C 409.663 255.005, 408.700 250.787, 408.010 246.250 C 406.977 239.457, 406.439 238, 404.966 238 C 402.576 238, 401.610 232.156, 402.550 223.380 L 403.265 216.700 405.057 219.076 L 406.850 221.452 407.551 215.253 C 408.095 210.446, 408.673 208.921, 410.126 208.460 C 411.157 208.133, 412 207.227, 412 206.447 C 412 203.899, 409.786 195.560, 408.397 192.879 C 407.485 191.119, 407.005 186.138, 406.934 177.703 C 406.849 167.547, 406.543 165.039, 405.333 164.574 C 403.369 163.821, 403.217 163.839, 402.554 164.913" stroke="#FFFFFF" fill="none" stroke-width="6" stroke-linecap="round" stroke-linejoin="round" stroke-dasharray="8 12"/>
</svg>
