<svg xmlns="http://www.w3.org/2000/svg" viewBox="0 0 1000 1000">
  <path d="M 479.578 51.178 C 477.421 51.652, 475.171 52.422, 474.578 52.890 C 473.985 53.357, 471.711 54.062, 469.524 54.457 C 467.322 54.855, 463.888 56.587, 461.827 58.338 C 459.780 60.077, 456.732 62.547, 455.053 63.826 C 453.374 65.105, 452 67.036, 452 68.116 C 452 69.196, 451.171 71.749, 450.157 73.790 C 449.144 75.830, 447.735 79.638, 447.027 82.250 C 446.319 84.862, 445.349 87, 444.870 87 C 443.537 87, 443.830 90.605, 445.604 96.027 C 447.258 101.084, 447.132 105.313, 445.054 114.500 C 443.745 120.288, 444.499 127.735, 446.916 132.895 C 449.909 139.284, 453.162 144, 454.576 144 C 455.334 144, 456.725 145.238, 457.668 146.750 C 458.611 148.262, 460.679 150.823, 462.263 152.439 C 467.576 157.859, 468.427 160.574, 468.691 172.936 C 468.949 184.991, 468.518 186.472, 464.291 188.079 C 463.031 188.559, 462 189.772, 462 190.775 C 462 193.216, 460.081 195, 457.455 195 C 456.275 195, 454.495 195.900, 453.500 197 C 452.505 198.100, 450.855 199, 449.835 199 C 448.815 199, 447.210 199.900, 446.268 201 C 445.326 202.100, 443.521 203, 442.256 203 C 440.992 203, 438.097 204.231, 435.823 205.736 C 433.550 207.240, 430.693 208.341, 429.476 208.181 C 428.075 207.998, 426.142 209.012, 424.208 210.946 C 422.528 212.626, 420.653 214, 420.042 214 C 419.430 214, 417.873 214.692, 416.581 215.539 C 415.289 216.385, 413.843 217.007, 413.366 216.920 C 411.007 216.492, 409 217.138, 409 218.326 C 409 220.222, 404.953 223.739, 401.902 224.496 C 400.401 224.868, 398.584 226.484, 397.601 228.320 C 393.458 236.060, 392.801 237.036, 391.130 237.931 C 390.157 238.451, 388.742 240.753, 387.985 243.045 C 387.229 245.337, 386.023 247.438, 385.305 247.713 C 384.587 247.989, 384 248.795, 384 249.505 C 384 250.215, 382.880 252.754, 381.512 255.148 C 380.144 257.542, 379.019 260.309, 379.012 261.298 C 379.005 262.287, 378.060 264.987, 376.911 267.298 C 374.615 271.915, 370.396 282.653, 368.876 287.750 C 368.342 289.538, 367.505 291, 367.014 291 C 366.524 291, 365.823 292.997, 365.457 295.437 C 365.091 297.877, 363.714 302.004, 362.396 304.606 C 361.078 307.209, 360 309.871, 360 310.521 C 360 311.170, 358.978 313.682, 357.728 316.101 C 354.816 321.741, 352.335 329.296, 351.538 334.957 C 351.193 337.408, 349.580 341.738, 347.955 344.578 C 346.330 347.419, 345 350.557, 345 351.551 C 345 353.597, 343.427 358.914, 341.380 363.784 C 338.607 370.382, 339.558 382.126, 343.546 390.528 C 345.496 394.638, 347.480 398, 347.956 398 C 348.432 398, 351.443 402.162, 354.647 407.250 C 357.852 412.337, 361.026 417.175, 361.702 418 C 362.378 418.825, 364.299 421.412, 365.972 423.750 C 367.842 426.364, 369.797 428, 371.050 428 C 372.170 428, 374.301 429.125, 375.783 430.500 C 377.266 431.875, 378.934 433.013, 379.490 433.029 C 380.882 433.070, 387 438.737, 387 439.986 C 387 440.544, 387.962 441, 389.139 441 C 391.042 441, 395.381 444.621, 405.114 454.329 C 408.544 457.750, 409.983 462.506, 410.006 470.500 C 410.020 475.037, 410.631 477.561, 412.512 480.852 C 413.993 483.442, 415 486.782, 415 489.102 C 415 491.900, 415.423 493, 416.500 493 C 418.348 493, 418.480 494.602, 416.689 495.289 C 412.766 496.794, 412.513 531.594, 416.393 535.882 C 417.274 536.856, 418.417 539.643, 418.933 542.076 C 419.852 546.409, 421.995 553.529, 424.178 559.500 C 427.346 568.167, 431.141 590.144, 431.517 602 C 432.163 622.419, 433.168 626.867, 439.196 636 C 440.104 637.375, 441.326 641.144, 441.912 644.375 C 442.499 647.606, 443.658 651.613, 444.489 653.279 C 445.320 654.944, 446 656.801, 446.001 657.404 C 446.001 658.007, 447.404 661.425, 449.117 665 C 452.142 671.310, 452.241 671.959, 452.519 687.218 C 452.876 706.854, 455.855 732.270, 457.716 731.556 C 458.422 731.285, 459.027 731.386, 459.059 731.781 C 459.091 732.177, 459.328 734.300, 459.585 736.500 C 459.841 738.700, 460.414 748.600, 460.859 758.500 C 461.303 768.400, 461.748 774.700, 461.848 772.500 C 462.063 767.786, 463.933 763.922, 464.026 768 C 464.194 775.355, 465.299 790.013, 465.949 793.500 C 466.663 797.335, 466.726 797.200, 467.479 790.216 C 467.912 786.210, 468.472 783.138, 468.724 783.391 C 469.176 783.843, 469.371 785.627, 470.919 803.500 C 471.668 812.147, 472.057 811.315, 472.401 800.334 C 472.455 798.592, 472.889 796.792, 473.364 796.334 C 475.886 793.902, 472.323 844.555, 468.359 867.500 C 468.074 869.150, 467.699 872.300, 467.525 874.500 C 467.352 876.700, 467.073 878.950, 466.906 879.500 C 466.419 881.106, 468.101 890.395, 469.099 891.609 C 470.525 893.343, 472.977 902.168, 472.989 905.610 C 472.999 908.299, 474.590 912.200, 480.489 924 C 482.470 927.962, 484.289 939.636, 483.769 945.049 L 483.294 950 509.682 950 L 536.070 950 534.954 947.914 C 533.655 945.487, 533.602 945.563, 537.500 944.309 C 540.122 943.466, 540.539 942.815, 540.809 939.149 C 541.172 934.209, 543 934.551, 543 939.559 C 543 944.041, 546.621 944.625, 547.284 940.250 L 547.700 937.500 547.850 940.250 C 548.037 943.685, 550 943.913, 550 940.500 C 550 939.125, 550.337 937.973, 550.750 937.940 C 576.148 935.918, 587.922 935.474, 592.704 936.358 C 594.853 936.755, 596.392 936.465, 597.382 935.475 C 598.193 934.664, 599.742 934, 600.823 934 C 603.792 934, 609 928.650, 609 925.599 C 609 923.514, 609.480 923, 611.429 923 C 615.010 923, 616.629 920.784, 617.322 914.929 C 617.720 911.567, 618.665 909.029, 619.970 907.813 C 625.023 903.105, 619.767 880.961, 612.848 877.807 C 609.007 876.057, 607.729 870.828, 606.904 853.500 C 605.898 832.337, 605.572 829.654, 603.679 826.952 C 602.755 825.634, 602 823.615, 602 822.465 C 602 818.935, 598.177 812.189, 595.761 811.456 C 594.517 811.079, 592.510 809.865, 591.301 808.759 C 590.091 807.652, 588.437 807.002, 587.624 807.314 C 586.811 807.626, 585.608 807.233, 584.951 806.441 C 584.293 805.648, 582.979 805, 582.029 805 C 580.978 805, 579.586 803.408, 578.467 800.927 C 577.457 798.687, 575.823 796.289, 574.835 795.597 C 572.523 793.978, 570 787.927, 570 784.002 C 570 782.317, 567.531 775.743, 564.513 769.393 C 561.451 762.953, 558.776 755.781, 558.462 753.174 C 557.557 745.663, 557.940 726.569, 559.101 721.326 C 559.688 718.672, 560.404 714.810, 560.690 712.744 C 560.977 710.678, 561.614 708.739, 562.106 708.435 C 562.598 708.131, 563 707.045, 563 706.022 C 563 704.999, 563.630 702.888, 564.400 701.331 C 566.146 697.800, 568 691.862, 568 689.801 C 568 688.945, 568.704 687.661, 569.564 686.947 C 570.539 686.138, 570.914 684.795, 570.561 683.385 C 570.248 682.141, 570.398 680.872, 570.894 680.565 C 571.390 680.259, 572.129 676.744, 572.535 672.754 C 572.941 668.764, 573.471 663.700, 573.713 661.500 C 573.955 659.300, 574.321 646.250, 574.527 632.500 C 574.733 618.750, 575.406 605.475, 576.023 603 C 576.640 600.525, 577.387 597.033, 577.683 595.241 C 577.979 593.448, 578.621 591.734, 579.110 591.432 C 579.600 591.129, 580.003 585.396, 580.006 578.691 C 580.009 571.986, 580.462 564.025, 581.012 561 C 584.138 543.827, 584.799 540.947, 585.929 539.585 C 586.613 538.761, 586.957 537.730, 586.694 537.294 C 586.432 536.857, 586.865 533.575, 587.657 530 C 588.589 525.795, 589.067 518.203, 589.009 508.500 C 588.879 486.699, 590.837 477.432, 597.211 469.663 C 599.845 466.452, 602 462.991, 602 461.972 C 602 460.952, 602.457 459.836, 603.015 459.491 C 603.573 459.146, 604.676 457.319, 605.464 455.432 C 606.253 453.544, 607.596 452, 608.449 452 C 609.302 452, 610 451.485, 610 450.855 C 610 448.640, 615.335 441.309, 618.550 439.106 C 620.757 437.594, 622.007 435.775, 622.445 433.440 C 622.826 431.410, 623.681 430, 624.532 430 C 625.325 430, 626.631 428.425, 627.436 426.500 C 628.240 424.575, 629.341 423, 629.882 423 C 630.423 423, 631.182 421.988, 631.569 420.750 C 631.957 419.512, 633.337 417.228, 634.637 415.673 C 635.937 414.119, 637 412.222, 637 411.458 C 637 410.695, 637.848 409.616, 638.885 409.062 C 639.922 408.507, 641.083 406.803, 641.466 405.276 C 641.849 403.749, 643.026 401.695, 644.081 400.711 C 645.137 399.727, 646 398.275, 646 397.484 C 646 396.693, 647.125 395.309, 648.500 394.408 C 649.993 393.430, 651 391.823, 651 390.420 C 651 389.094, 651.871 387.604, 653 387 C 654.100 386.411, 655.003 385.158, 655.006 384.215 C 655.010 383.272, 655.685 381.211, 656.506 379.636 C 657.328 378.060, 658 375.218, 658 373.320 C 658 371.422, 658.389 369.111, 658.865 368.184 C 660.055 365.868, 658.298 350.999, 656.605 349.063 C 655.854 348.203, 654.932 344.944, 654.556 341.820 C 654.181 338.696, 653.227 335.603, 652.437 334.948 C 651.647 334.292, 650.993 332.798, 650.985 331.628 C 650.970 329.352, 648.341 321.179, 647.087 319.508 C 646.671 318.954, 645.756 315.800, 645.054 312.500 C 644.352 309.200, 643.446 306.050, 643.041 305.500 C 642.044 304.145, 639 294.481, 639 292.669 C 639 291.869, 638.388 290.979, 637.640 290.692 C 636.297 290.177, 635.429 286.003, 634.323 274.734 C 634.012 271.563, 633.362 268.724, 632.879 268.425 C 632.395 268.126, 632 266.799, 632 265.475 C 632 264.151, 631.363 261.590, 630.583 259.784 C 629.804 257.978, 628.424 254.700, 627.516 252.500 C 626.608 250.300, 625.480 247.600, 625.010 246.500 C 624.540 245.400, 623.891 243.278, 623.567 241.785 C 623.244 240.292, 621.697 237.142, 620.130 234.785 C 618.563 232.428, 616.984 229.263, 616.621 227.750 C 616.259 226.238, 615.308 225, 614.510 225 C 613.707 225, 612.687 223.545, 612.230 221.750 C 611.592 219.243, 610.329 217.948, 606.702 216.085 C 603.685 214.535, 602 213.012, 602 211.835 C 602 210.826, 601.427 210, 600.727 210 C 600.027 210, 597.158 208.488, 594.352 206.640 C 589.157 203.218, 584.754 201.529, 581.928 201.874 C 581.063 201.979, 579.038 201.379, 577.428 200.539 C 575.817 199.699, 573.221 199.010, 571.658 199.006 C 570.094 199.003, 567.671 198.100, 566.273 197 C 564.874 195.900, 562.243 195, 560.424 195 C 558.606 195, 556.864 194.589, 556.554 194.087 C 556.243 193.585, 554.192 192.870, 551.995 192.499 C 549.596 192.094, 548 191.274, 548 190.447 C 548 188.523, 544.763 187, 540.673 187 C 538.521 187, 536.997 186.433, 536.638 185.500 C 536.322 184.675, 535.486 183.986, 534.781 183.968 C 531.070 183.877, 527.579 178.757, 526.700 172.116 C 525.059 159.730, 526.921 148.089, 531.686 140.942 C 537.397 132.377, 537.501 132.019, 537.488 121 C 537.480 113.684, 536.966 109.099, 535.794 105.879 C 534.869 103.338, 533.840 96.816, 533.508 91.386 C 533.035 83.642, 532.407 80.649, 530.594 77.507 C 529.323 75.303, 527.989 72.274, 527.629 70.776 C 526.694 66.884, 523.288 62.237, 517.243 56.608 L 511.990 51.717 498.400 51.359 C 490.925 51.162, 484.515 50.846, 484.155 50.658 C 483.795 50.470, 481.735 50.704, 479.578 51.178" stroke="#FFFFFF" fill="none" stroke-width="6" stroke-linecap="round" stroke-linejoin="round" stroke-dasharray="8 12"/>
</svg>
