<svg xmlns="http://www.w3.org/2000/svg" viewBox="0 0 1000 1000">
  <path d="M 509.287 51.113 C 508.675 51.725, 506.117 52.610, 503.603 53.080 C 498.947 53.950, 493.093 58.836, 493.029 61.906 C 493.013 62.679, 491.942 64.704, 490.648 66.406 C 487.079 71.102, 485.003 75.594, 484.968 78.700 C 484.951 80.240, 484.276 82.374, 483.468 83.441 C 482.661 84.509, 482 86.166, 482 87.123 C 482 88.080, 480.650 89.825, 479 91 C 477.350 92.175, 476 93.858, 476 94.739 C 476 95.621, 475.383 97.053, 474.630 97.921 C 472.213 100.705, 471.756 118.420, 474.027 121.307 C 475.963 123.768, 475.837 134.365, 473.857 135.588 C 473.386 135.880, 473 137.246, 473 138.625 C 473 142.940, 466.815 152.127, 465.424 149.877 C 464.993 149.179, 464.212 149.847, 463.382 151.624 C 462.642 153.206, 461.649 155.175, 461.174 156 C 460.381 157.378, 459.525 159.009, 457.108 163.750 C 456.617 164.713, 455.730 166.730, 455.137 168.234 L 454.058 170.967 451.574 168.484 C 448.290 165.199, 446.596 165.344, 439.700 169.503 C 436.510 171.426, 433.018 173, 431.940 173 C 430.862 173, 429.210 173.900, 428.268 175 C 427.326 176.100, 425.418 177.014, 424.028 177.032 C 422.637 177.049, 420.626 177.724, 419.559 178.532 C 418.491 179.339, 416.423 180, 414.964 180 C 413.504 180, 411.495 180.900, 410.500 182 C 409.505 183.100, 408.155 184, 407.500 184 C 406.845 184, 405.495 184.900, 404.500 186 C 403.505 187.100, 402.071 188, 401.314 188 C 400.557 188, 399.673 188.688, 399.351 189.529 C 398.572 191.558, 390.878 195, 387.122 195 C 385.013 195, 383.948 195.588, 383.500 197 C 383.151 198.100, 382.476 199, 382 199 C 381.524 199, 380.865 199.851, 380.534 200.892 C 380.204 201.933, 379.054 203.014, 377.979 203.295 C 376.904 203.576, 375.590 204.948, 375.060 206.342 C 374.530 207.737, 373.062 209.429, 371.798 210.103 C 369.176 211.499, 368.497 212.291, 362.996 220.364 C 360.700 223.733, 359 227.410, 359 229.007 C 359 230.555, 358.335 232.041, 357.500 232.362 C 356.675 232.678, 356 234.009, 356 235.320 C 356 236.630, 354.875 239.818, 353.500 242.404 C 352.125 244.990, 351 248.630, 351 250.494 C 351 252.357, 350.578 254.142, 350.063 254.461 C 348.194 255.616, 346 261.397, 346 265.167 C 346 267.290, 345.626 269.809, 345.169 270.764 C 344.712 271.719, 343.587 273.999, 342.669 275.831 C 341.751 277.663, 341 280.224, 341 281.522 C 341 282.820, 340.543 284.164, 339.985 284.509 C 338.338 285.527, 336 291.984, 336 295.515 C 336 297.500, 335.410 299.012, 334.500 299.362 C 333.495 299.747, 332.993 301.351, 332.978 304.219 C 332.966 306.573, 332.066 310.462, 330.978 312.859 C 329.890 315.257, 328.995 318.182, 328.989 319.359 C 328.983 320.537, 328.308 323.709, 327.489 326.409 C 325.447 333.142, 325.453 353.756, 327.500 358.654 C 328.325 360.629, 329.010 363.202, 329.022 364.372 C 329.034 365.542, 329.924 367.625, 331 369 C 332.076 370.375, 332.966 372.103, 332.978 372.841 C 332.990 373.579, 334.800 376.748, 337 379.884 C 339.200 383.021, 341 386.331, 341 387.241 C 341 388.150, 342.125 391.010, 343.500 393.596 C 344.875 396.182, 346 399.152, 346 400.197 C 346 401.241, 347.027 403.087, 348.283 404.298 C 351.257 407.167, 353.802 410.856, 359.458 420.500 C 363.816 427.930, 369.008 434, 371.005 434 C 371.976 434, 373.538 435.173, 374.477 436.606 C 378.075 442.097, 381.474 444.746, 385.864 445.483 C 388.264 445.885, 391.084 446.954, 392.132 447.857 C 393.179 448.761, 395.260 449.728, 396.756 450.008 C 398.449 450.324, 399.612 451.267, 399.837 452.508 C 400.035 453.603, 401.503 455.712, 403.099 457.194 C 404.694 458.675, 406 460.597, 406 461.465 C 406 462.333, 407.074 463.532, 408.387 464.130 C 409.740 464.747, 411.158 466.577, 411.662 468.359 C 412.152 470.086, 413.485 471.915, 414.627 472.423 C 416.174 473.111, 417.025 474.972, 417.972 479.734 C 418.867 484.238, 419.626 485.974, 420.547 485.620 C 421.266 485.344, 422.392 485.767, 423.049 486.559 C 423.707 487.352, 424.917 488, 425.739 488 C 426.857 488, 427.073 488.693, 426.597 490.750 C 426.247 492.262, 425.680 495.226, 425.337 497.336 C 424.994 499.446, 424.103 501.407, 423.357 501.693 C 421.310 502.479, 421.565 509, 423.642 509 C 425.677 509, 424.972 518.898, 422.614 523.443 C 421.454 525.679, 421.141 531.724, 421.068 553.336 C 421.017 568.236, 420.558 581.793, 420.048 583.463 C 419.538 585.133, 418.668 588.975, 418.116 592 C 414.857 609.839, 414.757 611.370, 415.987 624.365 C 417.546 640.828, 417.616 643.981, 416.440 644.817 C 415.911 645.193, 414.423 647.975, 413.133 651 C 408.617 661.589, 403.788 670.832, 401.625 673.027 C 400.659 674.007, 399.743 678.225, 399.069 684.799 C 398.490 690.434, 397.371 696.047, 396.582 697.272 C 395.793 698.497, 394.628 703.325, 393.994 708 C 393.359 712.675, 391.984 719.200, 390.937 722.500 C 389.002 728.603, 388.213 733.162, 385.400 754.500 C 383.328 770.214, 382.346 776.526, 381.119 782 C 380.565 784.475, 379.631 794.150, 379.044 803.500 C 377.742 824.247, 377.352 826.737, 374.918 829.832 C 373.863 831.173, 373 833.082, 373 834.076 C 373 835.069, 372.590 836.135, 372.090 836.445 C 371.589 836.754, 370.638 840.268, 369.977 844.254 C 369.315 848.239, 368.121 853.075, 367.323 855 C 364.348 862.176, 362.036 878.689, 362.080 892.435 C 362.107 900.715, 362.358 901.814, 365.511 907.435 C 367.382 910.771, 369.833 914.066, 370.957 914.758 C 372.080 915.451, 373 916.699, 373 917.533 C 373 918.430, 374.269 919.304, 376.103 919.671 C 378.130 920.076, 379.844 921.368, 381.044 923.396 C 382.055 925.103, 383.282 926.962, 383.771 927.526 C 384.260 928.090, 385.429 929.725, 386.368 931.159 C 387.348 932.653, 389.408 934.032, 391.199 934.390 C 392.917 934.733, 394.950 935.911, 395.718 937.007 C 396.485 938.103, 398.213 939, 399.557 939 C 400.901 939, 402 939.387, 402 939.860 C 402 940.333, 404.577 940.986, 407.728 941.311 C 411.572 941.708, 413.886 942.491, 414.765 943.693 C 415.760 945.054, 417.663 945.538, 422.686 945.707 C 427.750 945.878, 429.804 946.407, 431.463 947.965 C 434.088 950.432, 444.192 950.679, 446.146 948.324 C 446.918 947.393, 448.288 947.124, 450.159 947.535 C 451.722 947.878, 453 947.770, 453 947.295 C 453 945.801, 458.744 942.964, 460.447 943.618 C 465.410 945.523, 467.208 934.912, 462.950 928.850 C 461.926 927.393, 460.807 925.080, 460.463 923.710 C 460.120 922.341, 458.750 920.274, 457.419 919.117 C 456.089 917.960, 455 916.405, 455 915.662 C 455 914.918, 454.100 913.495, 453 912.500 C 451.900 911.505, 451 910.093, 451 909.362 C 451 908.097, 448.708 905.151, 442.839 898.871 C 434.229 889.659, 428.652 875.194, 432.484 872.013 C 434.792 870.098, 440 859.911, 440 857.313 C 440 856.030, 440.900 854.210, 442 853.268 C 443.100 852.326, 444 850.817, 444 849.915 C 444 849.013, 445.300 846.640, 446.888 844.641 C 448.477 842.642, 450.072 839.430, 450.433 837.503 C 450.795 835.576, 451.467 834, 451.927 834 C 452.386 834, 453.263 832.013, 453.874 829.585 C 454.486 827.157, 456.114 823.829, 457.493 822.191 C 458.872 820.552, 460 818.734, 460 818.150 C 460 817.566, 461.056 815.533, 462.346 813.632 C 464.068 811.095, 464.863 808.149, 465.336 802.558 C 465.690 798.368, 466.599 793.716, 467.356 792.220 C 468.113 790.724, 469.046 785.450, 469.428 780.500 C 469.870 774.786, 470.771 770.396, 471.895 768.476 C 472.869 766.812, 473.956 763.335, 474.311 760.747 C 474.922 756.289, 476.086 753.388, 478.623 750 C 479.241 749.175, 480.047 746.825, 480.414 744.777 C 480.780 742.730, 481.689 740.705, 482.433 740.277 C 483.176 739.850, 484.485 737.813, 485.341 735.750 C 486.197 733.688, 487.387 732, 487.984 732 C 490.084 732, 494 735.250, 494 736.993 C 494 739.156, 496.530 741.409, 497.963 740.523 C 499.041 739.857, 499.408 740.550, 500.408 745.139 C 500.785 746.873, 501.844 747.995, 503.491 748.408 C 505.359 748.877, 506.030 749.735, 506.116 751.769 C 506.204 753.846, 506.347 754.021, 506.713 752.500 C 507.465 749.373, 509 748.276, 509 750.866 C 509 752.112, 509.509 754.083, 510.132 755.246 C 511.227 757.294, 511.307 757.301, 512.632 755.489 C 513.928 753.716, 514 753.744, 514 756.030 C 514 759.610, 516.336 769, 517.227 769 C 517.652 769, 518 768.127, 518 767.059 C 518 765.991, 518.450 764.840, 519 764.500 C 519.592 764.134, 520 765.267, 520 767.274 C 520 771.790, 520.584 772.161, 524.571 770.179 C 526.932 769.007, 527.958 767.804, 527.975 766.191 C 527.989 764.886, 528.442 764.155, 529.016 764.510 C 529.575 764.856, 529.806 765.505, 529.529 765.954 C 529.252 766.402, 529.624 768.501, 530.357 770.618 L 531.690 774.467 532.299 770.983 C 532.635 769.068, 533.010 760.075, 533.133 751 C 533.309 738.057, 533.763 733.237, 535.237 728.644 C 536.574 724.480, 536.945 721.302, 536.521 717.644 C 535.628 709.934, 537.490 674.110, 538.855 672.745 C 539.539 672.061, 540 668.105, 540 662.922 C 540 654.560, 539.423 652.086, 535.438 643.349 C 534.647 641.616, 534 639.644, 534 638.967 C 534 638.290, 533.045 636.191, 531.878 634.303 C 529.533 630.509, 529.756 622.778, 532.428 615.204 C 533.156 613.140, 534.079 606.738, 534.478 600.976 C 535.034 592.965, 535.769 589.363, 537.602 585.668 C 538.921 583.010, 540 580.028, 540 579.040 C 540 578.053, 540.628 576.724, 541.395 576.087 C 542.831 574.895, 543.192 573.416, 544.943 561.567 C 545.506 557.753, 546.424 554.176, 546.983 553.617 C 547.543 553.057, 548 551.367, 548 549.859 C 548 548.351, 548.415 546.861, 548.923 546.548 C 549.431 546.234, 550.142 544.632, 550.503 542.989 C 551.347 539.144, 555 538.700, 555 542.441 C 555 545.050, 556.575 546.775, 557.212 544.864 C 557.423 544.232, 557.140 541.491, 556.583 538.774 C 555.665 534.291, 555.765 533.678, 557.663 532.166 C 558.870 531.205, 560.010 528.808, 560.357 526.500 C 561.625 518.067, 562.801 513.877, 564.396 512.115 C 566.205 510.116, 568.905 496.435, 569.445 486.531 C 569.633 483.086, 570.232 479.420, 570.777 478.384 C 571.783 476.471, 571.612 464.364, 570.458 455.791 C 569.635 449.682, 570.285 449.494, 592.070 449.559 C 607.488 449.604, 608.855 449.760, 611.725 451.804 C 615.599 454.563, 616.164 454.547, 618.723 451.604 C 619.868 450.286, 621.500 448.819, 622.349 448.345 C 623.422 447.744, 624.245 444.590, 625.050 437.991 C 627.423 418.546, 627.395 416.713, 624.644 411.285 C 622.208 406.476, 622.120 405.609, 621.842 383.582 C 621.684 371.075, 621.205 360.627, 620.777 360.362 C 619.503 359.575, 619.888 345.152, 621.241 342.986 C 622.166 341.504, 622.198 340.547, 621.368 339.217 C 620.755 338.237, 619.936 335.987, 619.548 334.218 C 619.159 332.450, 617.909 330.349, 616.770 329.551 C 614.255 327.790, 613.143 321.890, 613.060 309.872 C 613.017 303.726, 612.594 300.908, 611.590 300.075 C 610.814 299.431, 609.938 296.563, 609.643 293.702 C 609.348 290.841, 608.669 284.450, 608.135 279.500 C 607.601 274.550, 606.632 258.350, 605.981 243.500 C 605.117 223.780, 604.421 215.903, 603.399 214.285 C 602.630 213.067, 602 211.181, 602 210.094 C 602 209.007, 601.550 207.840, 601 207.500 C 600.450 207.160, 600 206.192, 600 205.349 C 600 200.357, 582.631 184.013, 577.317 184.004 C 576.015 184.002, 574.879 183.193, 574.500 182 C 574.012 180.461, 572.987 180, 570.055 180 C 567.888 180, 565.708 179.353, 565 178.500 C 564.315 177.675, 563.134 177, 562.374 177 C 561.614 177, 559.311 176.099, 557.256 174.997 C 554.304 173.415, 552.489 173.132, 548.608 173.646 L 543.695 174.298 544.258 168.089 C 544.772 162.419, 547.695 154.814, 553.577 143.846 C 554.360 142.386, 555 139.678, 555 137.828 C 555 135.888, 556.058 132.907, 557.500 130.785 C 559.351 128.061, 560 125.795, 560 122.054 C 560 118.363, 561.042 114.647, 563.871 108.251 C 568.110 98.669, 568.660 89.502, 565.425 82.349 C 564.641 80.616, 564 78.707, 564 78.107 C 564 77.508, 563.100 76.455, 562 75.768 C 560.900 75.081, 560 73.491, 560 72.235 C 560 70.718, 559.160 69.631, 557.500 69 C 556.125 68.477, 554.985 67.476, 554.967 66.775 C 554.907 64.482, 551.285 61.060, 546.230 58.522 C 543.502 57.151, 540.704 55.349, 540.013 54.515 C 539.321 53.682, 537.290 53, 535.500 53 C 533.710 53, 531.685 52.325, 531 51.500 C 529.465 49.651, 511.077 49.323, 509.287 51.113" stroke="#FFFFFF" fill="none" stroke-width="6" stroke-linecap="round" stroke-linejoin="round" stroke-dasharray="8 12"/>
</svg>
