<svg xmlns="http://www.w3.org/2000/svg" viewBox="0 0 1000 1000">
  <path d="M 484.770 51.189 C 484.318 52.547, 475.754 54.961, 468.788 55.693 C 465.297 56.060, 463.918 56.682, 463.470 58.094 C 463.137 59.142, 461.996 60, 460.933 60 C 459.870 60, 459 60.384, 459 60.854 C 459 61.324, 457.875 62.922, 456.500 64.405 C 455.125 65.889, 454 67.674, 454 68.371 C 454 69.069, 452.925 70.574, 451.612 71.716 C 449.676 73.399, 449.084 75.182, 448.487 81.127 C 448.077 85.214, 447.165 88.913, 446.429 89.481 C 445.570 90.143, 444.900 94.002, 444.515 100.500 C 443.753 113.369, 440.320 128.759, 437.926 130.040 C 436.956 130.559, 435.843 132.450, 435.454 134.242 C 435.064 136.034, 434.127 138.388, 433.372 139.473 C 432.618 140.557, 432 142.176, 432 143.069 C 432 143.963, 431.175 145.646, 430.166 146.809 C 428.935 148.228, 427.968 151.874, 427.227 157.893 C 426.620 162.826, 425.420 168.221, 424.561 169.881 C 423.703 171.542, 423 173.905, 423 175.133 C 423 181.898, 420.633 195.073, 419.496 194.637 C 413.859 192.474, 416.607 226.155, 422.897 236.334 C 424.054 238.205, 425 240.640, 425 241.746 C 425 242.851, 425.705 244.340, 426.566 245.055 C 427.427 245.770, 428.840 247.737, 429.705 249.427 C 431.638 253.203, 436.490 258, 438.376 258 C 440.335 258, 442.459 261.644, 443.913 267.500 C 444.595 270.250, 446.001 274.075, 447.035 276 C 452.897 286.905, 454.387 292.233, 454.444 302.500 C 454.518 315.686, 451.606 325.469, 445.107 333.869 C 443.673 335.722, 441.811 338.382, 440.968 339.779 C 440.126 341.177, 437.723 342.914, 435.629 343.639 C 433.535 344.364, 430.929 346.092, 429.838 347.479 C 428.747 348.865, 426.875 350.021, 425.677 350.046 C 423.607 350.090, 422.841 350.803, 417.944 357.250 C 416.795 358.762, 415.243 360, 414.495 360 C 413.747 360, 412.849 360.900, 412.500 362 C 412.151 363.100, 411.424 364, 410.884 364 C 410.345 364, 408.177 364.834, 406.068 365.853 C 402.848 367.409, 400.408 367.646, 390.866 367.329 C 379.803 366.961, 367.089 368.796, 364.550 371.128 C 364.027 371.607, 362.002 372.003, 360.050 372.006 C 354.783 372.014, 348.893 373.912, 345.639 376.650 C 344.055 377.983, 341.350 379.666, 339.629 380.390 C 337.908 381.113, 334.990 383.121, 333.144 384.853 C 331.299 386.584, 329.194 388, 328.467 388 C 326.576 388, 319.108 400.879, 317.448 407 C 317.075 408.375, 315.977 410.400, 315.009 411.500 C 314.040 412.600, 312.946 415.186, 312.579 417.247 C 312.211 419.309, 310.810 423.359, 309.465 426.247 C 308.120 429.136, 307.015 432.660, 307.010 434.078 C 307.004 435.495, 305.875 439.424, 304.500 442.808 C 303.125 446.192, 301.989 450.657, 301.976 452.730 C 301.964 454.804, 301.034 459.875, 299.911 464 C 298.787 468.125, 297.468 475.872, 296.979 481.217 C 296.474 486.733, 295.442 491.922, 294.591 493.221 C 293.766 494.480, 292.436 498.208, 291.635 501.505 C 290.833 504.802, 289.238 509.283, 288.089 511.461 C 286.940 513.640, 286 516.003, 286 516.711 C 286 517.420, 285.603 518, 285.119 518 C 284.187 518, 281.416 525.118, 280.059 531 C 279.614 532.925, 278.069 538.488, 276.625 543.362 C 275.181 548.236, 274 552.900, 274 553.728 C 274 555.395, 271.203 564.520, 269.859 567.236 C 269.387 568.191, 269 569.697, 269 570.582 C 269 571.467, 268.367 573.386, 267.592 574.846 C 266.818 576.306, 264.983 580.200, 263.514 583.500 C 259.389 592.770, 256.197 598.997, 252.493 605 C 250.627 608.025, 248.217 612.075, 247.137 614 C 246.058 615.925, 244.153 618.581, 242.905 619.903 C 241.658 621.225, 239.481 624.458, 238.068 627.088 C 236.656 629.717, 234.035 634.618, 232.243 637.977 C 230.452 641.337, 228.075 647.488, 226.961 651.647 C 225.846 655.806, 224.007 661.027, 222.873 663.249 C 221.740 665.471, 220.235 669.361, 219.530 671.894 C 215.927 684.845, 211.725 697.555, 210.442 699.386 C 209.649 700.519, 209 702.039, 209 702.765 C 209 704.478, 201.258 714.964, 199.493 715.641 C 198.749 715.927, 197.665 717.362, 197.084 718.830 C 196.504 720.299, 195.645 722.175, 195.175 723 C 192.231 728.170, 189 734.975, 189 736.003 C 189 738.016, 182.981 744.959, 179.818 746.594 C 178.186 747.438, 176.387 749.459, 175.820 751.085 C 175.253 752.712, 173.936 754.499, 172.893 755.057 C 171.850 755.615, 170.364 757.588, 169.590 759.440 C 168.816 761.292, 167.271 763.097, 166.156 763.450 C 163.419 764.319, 161.182 770.638, 159.944 781 C 158.338 794.440, 157.850 797, 156.895 797 C 156.403 797, 156 799.250, 156 802 C 156 804.750, 156.450 807, 157 807 C 157.550 807, 158 807.606, 158 808.346 C 158 809.087, 158.633 810.999, 159.406 812.596 C 160.180 814.193, 161.137 817.971, 161.533 820.990 C 161.930 824.010, 163.097 828.053, 164.127 829.976 C 165.157 831.898, 166 834.036, 166 834.728 C 166 839.801, 181.507 858.093, 183.834 855.766 C 184.722 854.878, 185 855.135, 185 856.845 C 185 858.080, 186.125 860.216, 187.500 861.591 C 188.875 862.966, 190.007 864.858, 190.015 865.795 C 190.041 868.642, 191.779 870.485, 194.713 870.780 C 206.603 871.973, 211.346 870.705, 211.805 866.214 C 212.117 863.160, 213.173 862.606, 221 861.394 C 223.713 860.973, 232 863.665, 232 864.966 C 232 865.406, 232.787 866.020, 233.750 866.329 C 240.180 868.395, 249.137 871.921, 252.710 873.794 C 255.026 875.007, 257.613 876, 258.460 876 C 259.307 876, 260 876.441, 260 876.981 C 260 877.520, 261.238 878.255, 262.750 878.612 C 264.262 878.970, 266.932 880.329, 268.683 881.631 C 270.434 882.934, 272.362 884, 272.968 884 C 273.767 884, 273.763 884.574, 272.955 886.083 C 272.086 887.709, 272.171 888.533, 273.342 889.833 C 275.238 891.938, 276.568 897, 275.225 897 C 274.680 897, 273.983 896.041, 273.676 894.869 C 272.589 890.714, 270.079 895.291, 269.402 902.664 C 268.708 910.209, 270.035 916.892, 272.770 919.627 C 273.715 920.572, 274.963 922.279, 275.544 923.422 C 276.158 924.629, 277.523 925.467, 278.800 925.421 C 280.524 925.358, 281 925.905, 281 927.948 C 281 933.936, 287.133 937.591, 288.440 932.382 C 289.152 929.546, 286.840 926, 284.278 926 C 282.657 926, 283.502 922.006, 285.385 920.765 C 289.148 918.286, 293.165 922.955, 290.903 927.180 C 289.752 929.332, 290.044 932.490, 291.857 937.500 C 292.454 939.150, 293.192 941.747, 293.496 943.272 C 293.968 945.636, 294.330 945.894, 295.952 945.026 C 296.999 944.465, 298.505 944.256, 299.299 944.561 C 300.092 944.866, 301.011 944.414, 301.340 943.557 C 301.668 942.701, 302.626 942, 303.469 942 C 304.311 942, 305 941.460, 305 940.800 C 305 939.867, 305.267 939.867, 306.200 940.800 C 308.869 943.469, 320 941.691, 320 938.596 C 320 934.512, 342.610 935.261, 343.195 939.364 C 343.389 940.719, 344.112 941.399, 345.175 941.223 C 346.096 941.071, 347.135 941.409, 347.484 941.973 C 347.833 942.538, 349.190 943, 350.500 943 C 351.810 943, 353.171 943.468, 353.525 944.041 C 353.879 944.613, 354.997 944.818, 356.010 944.497 C 357.175 944.127, 358.211 944.554, 358.829 945.659 C 359.600 947.037, 360.106 947.157, 361.227 946.227 C 362.286 945.348, 362.936 945.336, 363.781 946.181 C 364.627 947.027, 365.336 946.966, 366.566 945.945 C 367.988 944.765, 368.412 944.843, 369.633 946.513 C 370.807 948.118, 371.376 948.246, 372.953 947.261 C 374.277 946.435, 374.967 946.401, 375.217 947.150 C 375.764 948.793, 379.645 949.145, 403.443 949.708 C 425.905 950.239, 434.455 949.401, 438.107 946.310 C 439.470 945.155, 439.908 945.184, 441 946.500 C 442.149 947.884, 442.466 947.889, 443.957 946.539 C 445.211 945.404, 445.913 945.313, 446.771 946.171 C 447.630 947.030, 448.280 947.013, 449.377 946.102 C 450.552 945.127, 451.057 945.243, 451.951 946.695 C 452.985 948.371, 453.147 948.381, 454.230 946.825 C 455.287 945.305, 455.608 945.396, 457.673 947.800 C 459.385 949.793, 460.235 950.165, 461.097 949.303 C 461.728 948.672, 462.829 948.381, 463.545 948.656 C 464.261 948.930, 465.379 948.159, 466.031 946.942 C 466.969 945.189, 467.393 945.017, 468.071 946.115 C 470.113 949.419, 483 947.275, 483 943.631 C 483 940.274, 491.203 934.503, 493.913 935.953 C 494.988 936.529, 496.993 937, 498.367 937 C 499.987 937, 501.088 937.703, 501.500 939 C 502.177 941.132, 503.105 941.285, 514.823 941.186 C 520.203 941.141, 521.484 940.770, 523.407 938.695 C 525.595 936.334, 526.244 936.237, 543.584 935.657 C 553.438 935.327, 562.625 934.857, 564 934.612 C 565.375 934.367, 566.807 934.129, 567.183 934.083 C 567.558 934.038, 568.166 933.051, 568.535 931.891 C 569.389 929.198, 579.651 924.484, 586.749 923.523 C 589.636 923.132, 592.238 922.424, 592.531 921.950 C 592.824 921.476, 593.790 921.366, 594.677 921.706 C 595.654 922.081, 596.846 921.571, 597.702 920.412 C 599.045 918.596, 599.166 918.589, 600.124 920.279 C 601.064 921.939, 601.257 921.906, 602.994 919.779 L 604.857 917.500 605.825 920 L 606.794 922.500 607.872 919.750 C 608.771 917.459, 609.580 916.983, 612.725 916.899 C 620.098 916.700, 624.506 916.067, 626.704 914.891 C 628.414 913.976, 629.261 913.972, 630.351 914.876 C 631.497 915.827, 631.885 915.595, 632.369 913.667 C 632.881 911.626, 633.873 911.133, 639.234 910.254 C 643.066 909.627, 645.944 909.585, 646.644 910.148 C 647.273 910.655, 649.869 911.111, 652.413 911.162 C 654.958 911.213, 657.293 911.665, 657.604 912.168 C 657.914 912.670, 659.003 912.816, 660.023 912.493 C 662.307 911.768, 664 914.556, 664 919.041 C 664 921.441, 664.363 922.075, 665.490 921.642 C 667.472 920.882, 668.662 925.497, 667 927.500 C 665.267 929.588, 666.506 933.397, 669.425 934.960 C 670.788 935.690, 672.173 937.510, 672.501 939.005 C 672.840 940.549, 674.157 942.206, 675.549 942.840 C 676.897 943.455, 678 944.443, 678 945.038 C 678 945.632, 678.536 945.787, 679.191 945.382 C 681.404 944.014, 689.260 945.059, 691.803 947.060 C 693.319 948.252, 694.714 948.673, 695.391 948.143 C 696.815 947.029, 702.114 945.609, 703.795 945.891 C 704.506 946.010, 706.585 945.184, 708.413 944.054 C 710.240 942.924, 712.689 942, 713.854 942 C 715.217 942, 716.915 940.574, 718.619 938 C 720.075 935.800, 721.594 934, 721.995 934 C 723.652 934, 724.134 920.805, 722.541 919.045 C 721.693 918.109, 721 917.022, 721 916.630 C 721 916.237, 719.650 913.029, 718 909.500 C 714.596 902.218, 714.157 897.049, 716.750 894.776 C 719.677 892.209, 724.990 889.876, 726.202 890.625 C 726.868 891.037, 728.683 889.737, 730.555 887.507 C 732.321 885.404, 734.606 883.582, 735.633 883.457 C 741.028 882.806, 744.345 881.455, 746.714 878.945 C 748.780 876.756, 750.604 876.010, 755.200 875.477 C 761.732 874.719, 764.876 872.582, 773.973 862.719 C 776.812 859.640, 780.098 856.982, 781.275 856.811 C 782.452 856.640, 784.637 854.700, 786.131 852.500 C 787.625 850.300, 789.669 848.452, 790.674 848.394 C 791.678 848.335, 793.293 847.947, 794.263 847.532 C 795.265 847.102, 796.633 847.281, 797.434 847.946 C 798.394 848.742, 799.426 848.804, 800.672 848.141 C 804.324 846.197, 809.831 844, 811.053 844 C 811.740 844, 814.739 841.525, 817.716 838.500 C 820.693 835.475, 823.811 833, 824.646 833 C 825.481 833, 828.085 831.425, 830.435 829.500 C 832.784 827.575, 835.186 826, 835.774 826 C 836.361 826, 837.131 824.681, 837.485 823.069 C 837.839 821.457, 838.775 819.602, 839.564 818.947 C 840.354 818.291, 841 817.166, 841 816.445 C 841 815.724, 841.900 814.849, 843 814.500 C 844.940 813.884, 845 812.987, 845 784.433 L 845 755 841.886 755 C 838.066 755, 831.596 751.498, 830.104 748.624 C 829.498 747.456, 827.418 744.475, 825.482 742 C 823.546 739.525, 821.073 735.641, 819.986 733.368 C 818.900 731.095, 817.108 729, 816.005 728.712 C 814.735 728.379, 814 727.348, 814 725.897 C 814 723.412, 810.472 717.686, 805.280 711.747 C 803.476 709.683, 802 707.554, 802 707.016 C 802 706.478, 800.987 705.778, 799.750 705.461 C 797.090 704.779, 791 695.758, 791 692.500 C 791 691.182, 789.951 689.543, 788.500 688.592 C 787.125 687.691, 786 686.055, 786 684.957 C 786 683.859, 784.829 681.105, 783.397 678.837 C 779.870 673.250, 773.028 659.767, 773.013 658.372 C 773.006 657.752, 772.325 656.685, 771.500 656 C 770.675 655.315, 770 653.224, 770 651.353 C 770 648.644, 769.491 647.757, 767.500 647 C 765.797 646.352, 765 645.289, 765 643.662 C 765 642.349, 763.650 639.576, 762 637.500 C 760.350 635.424, 758.992 633.224, 758.983 632.612 C 758.973 632.001, 757.802 630.396, 756.381 629.047 C 754.959 627.698, 753.434 625.642, 752.992 624.480 C 752.550 623.317, 749.896 619.374, 747.094 615.719 C 744.292 612.063, 742 608.559, 742 607.931 C 742 607.303, 740.987 605.543, 739.750 604.020 C 735.608 598.924, 729.149 587.356, 729.059 584.872 C 729.027 583.977, 728.325 582.685, 727.500 582 C 726.675 581.315, 726 579.925, 726 578.911 C 726 577.243, 724.175 572.306, 721.878 567.764 C 721.395 566.809, 721 564.711, 721 563.103 C 721 561.495, 719.650 557.327, 718.001 553.840 C 716.351 550.353, 715.001 546.311, 715.001 544.857 C 715 543.403, 714.325 541.955, 713.500 541.638 C 712.675 541.322, 711.984 540.036, 711.965 538.781 C 711.945 537.527, 711.286 535.375, 710.500 534 C 709.714 532.625, 709.055 530.647, 709.035 529.605 C 709.016 528.563, 707.425 524.435, 705.500 520.433 C 703.575 516.431, 702 512.546, 702 511.801 C 702 511.055, 701.339 509.502, 700.532 508.349 C 699.724 507.196, 698.620 503.159, 698.078 499.376 C 696.884 491.050, 695.576 484.680, 694.102 480.007 C 693.496 478.085, 693 473.167, 693 469.078 C 693 464.988, 692.598 460.260, 692.107 458.571 C 691.616 456.882, 690.524 453.250, 689.681 450.500 C 688.839 447.750, 687.842 443.250, 687.468 440.500 C 687.093 437.750, 685.934 434.012, 684.893 432.193 C 683.852 430.374, 682.479 426.774, 681.841 424.193 C 681.204 421.612, 679.854 418.427, 678.841 417.115 C 677.829 415.803, 677 413.693, 677 412.424 C 677 411.156, 676.585 409.861, 676.077 409.548 C 675.569 409.234, 674.859 407.633, 674.498 405.990 C 674.137 404.347, 673.042 402.439, 672.064 401.751 C 671.087 401.063, 669.941 399.406, 669.519 398.069 C 669.096 396.732, 666.861 393.775, 664.551 391.498 C 662.241 389.221, 660.064 386.610, 659.713 385.696 C 659.363 384.782, 658.486 384.260, 657.765 384.537 C 657.045 384.813, 655.565 384.350, 654.478 383.508 C 643.525 375.024, 640.431 373, 638.419 373 C 637.131 373, 635.273 372.161, 634.289 371.135 C 632.232 368.990, 620.152 366.842, 608.730 366.589 C 601.497 366.430, 598.461 365.465, 596.051 362.562 C 595.345 361.711, 593.043 360.550, 590.936 359.983 C 588.829 359.415, 585.799 357.645, 584.203 356.049 C 582.524 354.370, 579.657 352.841, 577.400 352.421 C 575.255 352.022, 572.912 350.864, 572.193 349.848 C 571.475 348.832, 570.309 348, 569.604 348 C 568.898 348, 567.808 346.875, 567.182 345.500 C 566.555 344.125, 565.215 343, 564.204 343 C 561.826 343, 551 332.944, 551 330.735 C 551 329.806, 549.970 328.371, 548.712 327.547 C 543.138 323.895, 542.880 298.110, 548.337 290.234 C 549.802 288.121, 551 285.933, 551 285.371 C 551 284.808, 552.072 283.341, 553.382 282.110 C 554.738 280.837, 556.039 278.157, 556.401 275.892 C 556.751 273.704, 557.487 271.145, 558.036 270.206 C 558.585 269.268, 559.826 265.823, 560.793 262.551 C 562.350 257.284, 563.064 256.302, 567.026 253.988 C 573.397 250.265, 576.866 244.658, 577.637 236.840 C 578.044 232.713, 578.922 229.771, 580.155 228.410 C 582.338 226, 584 220.851, 584 216.497 C 584 214.564, 584.718 213.033, 586 212.232 C 589.090 210.302, 588.196 201.053, 584.569 197.426 C 582.276 195.133, 582.577 189.807, 585.123 187.627 C 587.770 185.360, 587.163 178.163, 584.064 175.064 C 581.739 172.739, 578 165.704, 578 163.655 C 578 162.871, 578.750 159.906, 579.667 157.067 C 581.224 152.247, 581.224 151.552, 579.667 146.614 C 578.750 143.705, 577.971 139.789, 577.936 137.912 C 577.840 132.828, 575.626 123.226, 574.226 121.826 C 573.552 121.152, 573.001 118.778, 573.003 116.550 C 573.009 109.342, 569.066 98, 566.554 98 C 563.822 98, 562 96.198, 562 93.494 C 562 92.336, 560.875 89.864, 559.500 88 C 558.125 86.136, 557 84.034, 557 83.329 C 557 82.623, 555.819 81.272, 554.376 80.327 C 552.932 79.381, 549.895 76.701, 547.626 74.372 C 543.364 69.997, 536.619 65, 534.975 65 C 534.460 65, 533.755 66.128, 533.409 67.507 L 532.780 70.014 529.355 67.007 C 527.368 65.262, 524.791 63.994, 523.215 63.985 C 519.673 63.965, 518.811 63.317, 515.690 58.334 C 512.496 53.235, 512.053 52.949, 506.882 52.660 C 503.904 52.494, 502.454 52.902, 501.693 54.121 C 500.869 55.440, 500.095 55.606, 498.179 54.878 C 496.828 54.364, 495.503 54.164, 495.235 54.432 C 494.508 55.159, 489 52.104, 489 50.974 C 489 49.577, 485.244 49.768, 484.770 51.189" stroke="#FFFFFF" fill="none" stroke-width="6" stroke-linecap="round" stroke-linejoin="round" stroke-dasharray="8 12"/>
</svg>
