<svg xmlns="http://www.w3.org/2000/svg" viewBox="0 0 1000 1000">
  <path d="M 494.594 52.501 C 492.356 54.427, 490.571 55, 486.818 55 C 482.383 55, 481.547 55.400, 477.474 59.474 C 475.013 61.934, 473 64.339, 473 64.818 C 473 65.297, 471.876 66.996, 470.501 68.594 C 469.127 70.193, 468.002 72.063, 468.001 72.750 C 468.001 73.438, 467.212 74.868, 466.250 75.928 C 463.575 78.876, 462.631 80.238, 461.002 83.500 C 460.178 85.150, 458.975 86.840, 458.330 87.256 C 457.684 87.672, 456.860 89.359, 456.499 91.006 C 456.137 92.653, 455.445 94, 454.961 94 C 454.476 94, 453.522 95.912, 452.839 98.250 C 452.156 100.588, 451.285 102.725, 450.902 103 C 449.163 104.251, 447.867 113.167, 448.013 122.879 C 448.100 128.720, 448.133 134.512, 448.086 135.750 C 447.957 139.115, 446 138.467, 446 135.059 C 446 133.441, 445.550 131.840, 445 131.500 C 444.450 131.160, 444 131.809, 444 132.941 C 444 134.073, 443.550 135, 443 135 C 442.450 135, 442 137.229, 442 139.953 C 442 145.254, 440.462 149.773, 438.012 151.672 C 436.843 152.578, 436.500 155.092, 436.500 162.740 C 436.500 170.830, 436.181 172.956, 434.750 174.389 C 433.788 175.354, 433 176.733, 433 177.455 C 433 178.176, 432.100 179.002, 431 179.290 C 429.832 179.595, 429 180.654, 429 181.835 C 429 182.947, 428.396 184.461, 427.658 185.199 C 426.920 185.937, 425.770 187.561, 425.104 188.807 C 424.437 190.052, 422.566 191.337, 420.946 191.661 C 419.326 191.985, 418 192.626, 418 193.086 C 418 193.547, 416.252 194.394, 414.115 194.969 C 411.614 195.642, 410.044 196.725, 409.708 198.008 C 409.422 199.103, 408.470 200, 407.594 200 C 406.717 200, 406 200.432, 406 200.960 C 406 201.488, 404.200 202.459, 402 203.118 C 399.800 203.777, 398 204.623, 398 204.998 C 398 205.372, 396.917 206.172, 395.594 206.775 C 394.150 207.433, 392.922 209.077, 392.526 210.882 C 392.085 212.890, 390.905 214.317, 388.983 215.168 C 387.397 215.870, 385.515 217.581, 384.800 218.972 C 384.085 220.362, 382.938 222.095, 382.250 222.821 C 381.563 223.548, 381 224.786, 381 225.571 C 381 226.357, 380.438 227.004, 379.750 227.008 C 378.459 227.016, 376 231.404, 376 233.699 C 376 234.415, 375.640 235, 375.201 235 C 374.212 235, 372 240.943, 372 243.600 C 372 244.677, 371.100 246.207, 370 247 C 368.900 247.793, 368 249.242, 368 250.221 C 368 251.199, 367.603 252, 367.119 252 C 366.096 252, 364 259.692, 364 263.443 C 364 264.849, 363.100 266.900, 362 268 C 360.900 269.100, 360 271.125, 360 272.500 C 360 273.875, 359.550 275, 359 275 C 358.450 275, 358 275.681, 358 276.514 C 358 278.014, 356.067 282.039, 354.885 283 C 354.546 283.275, 353.971 284.459, 353.605 285.631 C 353.240 286.803, 352.054 288.785, 350.970 290.034 C 349.887 291.284, 349 293.601, 349 295.184 C 349 296.768, 348.362 298.308, 347.582 298.607 C 346.801 298.906, 345.619 301.418, 344.955 304.188 C 344.215 307.273, 342.667 310.256, 340.961 311.887 C 339.399 313.379, 337.868 316.186, 337.476 318.275 C 337.092 320.324, 336.377 322, 335.889 322 C 334.187 322, 334.790 365.705, 336.500 366.362 C 337.325 366.678, 338 367.626, 338 368.469 C 338 369.311, 338.415 370, 338.922 370 C 339.430 370, 340.395 371.688, 341.067 373.750 C 341.740 375.813, 342.650 377.736, 343.090 378.025 C 343.530 378.314, 344.381 381.625, 344.981 385.383 C 345.582 389.141, 346.731 392.874, 347.536 393.679 C 348.341 394.484, 349 395.800, 349 396.603 C 349 397.406, 349.663 398.317, 350.473 398.628 C 351.283 398.939, 352.234 400.731, 352.587 402.611 C 352.939 404.490, 353.918 406.414, 354.762 406.887 C 355.714 407.419, 356.625 410.147, 357.161 414.072 C 357.637 417.551, 358.406 420.646, 358.869 420.949 C 359.332 421.252, 360.026 423.211, 360.411 425.303 C 360.796 427.394, 361.761 429.355, 362.555 429.660 C 363.437 429.998, 364 431.588, 364 433.741 C 364 437.829, 365.962 445, 367.081 445 C 367.501 445, 368.395 446.688, 369.067 448.750 C 369.740 450.813, 370.585 452.725, 370.946 453 C 371.306 453.275, 372.137 455.879, 372.791 458.786 C 373.482 461.852, 375.016 465.107, 376.445 466.536 C 379.234 469.325, 384.445 469.888, 385.362 467.500 C 385.678 466.675, 386.819 466, 387.897 466 C 390.423 466, 392.822 463.574, 393.652 460.180 C 394.013 458.706, 394.604 457.275, 394.965 457 C 395.327 456.725, 396.060 454.925, 396.595 453 C 397.281 450.529, 398.218 449.406, 399.783 449.180 C 401.003 449.005, 402 448.217, 402 447.430 C 402 446.644, 402.450 446, 403 446 C 403.550 446, 404.039 445.212, 404.086 444.250 C 404.133 443.288, 404.572 443.839, 405.060 445.476 C 405.609 447.316, 405.576 448.824, 404.974 449.426 C 404.438 449.962, 404 451.435, 404 452.700 C 404 453.965, 403.550 455, 403 455 C 402.428 455, 402 458.011, 402 462.034 C 402 468.531, 402.229 469.291, 405 472 C 407.722 474.660, 409.112 479, 407.243 479 C 406.329 479, 404 486.168, 404 488.984 C 404 490.093, 403.629 491, 403.175 491 C 402.722 491, 401.743 495.275, 401 500.500 C 400.257 505.725, 399.355 510, 398.996 510 C 398.084 510, 396 519.443, 396 523.576 C 396 525.459, 395.649 527, 395.221 527 C 394.488 527, 392 540.387, 392 544.330 C 392 545.327, 391.359 546.784, 390.575 547.567 C 389.685 548.458, 388.887 552.366, 388.446 557.996 C 388.059 562.948, 387.350 567, 386.871 567 C 385.437 567, 385.785 589.762, 387.226 590.242 C 388.988 590.829, 388.992 643.769, 387.230 644.858 C 386.480 645.321, 385.638 650.182, 385.044 657.473 C 384.512 663.997, 383.666 669.597, 383.163 669.917 C 382.660 670.238, 381.702 673.763, 381.034 677.750 C 380.366 681.737, 379.508 685, 379.128 685 C 378.748 685, 377.839 687.025, 377.108 689.500 C 376.377 691.975, 375.469 694, 375.091 694 C 374.069 694, 372 700.240, 372 703.321 C 372 704.794, 371.627 706, 371.172 706 C 369.729 706, 368 715.856, 368 724.076 C 368 728.692, 367.583 732, 367 732 C 366.450 732, 366 733.773, 366 735.941 C 366 738.109, 365.550 740.160, 365 740.500 C 362.513 742.037, 364.637 801, 367.180 801 C 367.631 801, 368 801.675, 368 802.500 C 368 803.325, 367.550 804, 367 804 C 366.450 804, 366 805.800, 366 808 C 366 810.428, 366.468 812, 367.191 812 C 367.846 812, 367.509 812.638, 366.441 813.417 C 364.732 814.665, 364.460 816.339, 364.168 827.417 C 363.986 834.338, 363.486 840, 363.056 840 C 362.163 840, 360 849.966, 360 854.083 C 360 855.596, 359.531 856.990, 358.958 857.181 C 358.385 857.372, 357.472 860.672, 356.930 864.514 C 356.387 868.356, 355.542 871.638, 355.052 871.806 C 354.562 871.975, 353.603 875.237, 352.921 879.056 C 352.238 882.875, 351.358 886, 350.965 886 C 350.572 886, 349.991 887.296, 349.674 888.879 C 349.357 890.463, 348.308 892.549, 347.342 893.515 C 345.176 895.681, 344.592 920.510, 346.676 921.799 C 347.323 922.199, 348.407 924.771, 349.085 927.513 C 349.764 930.256, 350.887 932.840, 351.581 933.256 C 352.276 933.672, 353.140 935.359, 353.501 937.006 C 354.213 940.248, 355.444 940.891, 356.362 938.500 C 357.084 936.618, 360 936.520, 360 938.378 C 360 941.273, 362.567 942.011, 370.352 941.353 C 375.446 940.922, 378 940.290, 378 939.460 C 378 937.317, 380.764 936.991, 381.308 939.069 C 382.233 942.605, 384.927 941.311, 385.616 937 C 385.968 934.800, 386.585 933, 386.988 933 C 387.391 933, 387.986 930.423, 388.311 927.272 C 388.709 923.422, 389.492 921.111, 390.701 920.221 C 392.359 919.002, 392.479 917.041, 392.228 895.210 C 391.965 872.331, 392.592 866, 395.121 866 C 396.421 866, 396.240 840.247, 394.937 839.812 C 393.335 839.278, 393.154 818.145, 394.742 817.161 C 395.426 816.738, 396.267 814.166, 396.613 811.446 C 396.959 808.726, 397.773 806.050, 398.423 805.500 C 399.073 804.950, 400.176 801.913, 400.874 798.750 C 401.572 795.587, 402.455 793, 402.835 793 C 403.215 793, 404.081 790.665, 404.759 787.812 C 405.437 784.958, 406.368 782.370, 406.827 782.062 C 407.287 781.753, 408.250 778.688, 408.968 775.250 C 409.686 771.813, 410.613 769, 411.028 769 C 411.443 769, 412.062 767.887, 412.404 766.528 C 412.745 765.168, 413.859 763.255, 414.879 762.278 C 415.967 761.235, 416.947 758.514, 417.250 755.696 C 417.534 753.053, 418.440 750.353, 419.263 749.696 C 420.087 749.038, 421.075 747.155, 421.459 745.510 C 421.844 743.866, 422.602 742.246, 423.143 741.912 C 423.684 741.577, 424.520 737.117, 425 732 C 425.480 726.883, 426.306 722.427, 426.836 722.098 C 427.367 721.769, 428.325 714.758, 428.966 706.518 C 429.607 698.278, 430.483 691.303, 430.912 691.018 C 431.341 690.733, 431.974 689.345, 432.319 687.934 C 432.664 686.523, 433.858 684.317, 434.973 683.031 C 436.088 681.746, 437 680.110, 437 679.397 C 437 678.683, 437.563 677.740, 438.252 677.300 C 438.940 676.860, 440.177 675.150, 441 673.500 C 441.823 671.850, 443.046 670.148, 443.718 669.717 C 444.390 669.287, 445.236 666.699, 445.599 663.967 C 445.961 661.235, 446.577 659, 446.968 659 C 447.955 659, 450 654.303, 450 652.036 C 450 651.008, 450.445 650.017, 450.990 649.833 C 451.534 649.650, 452.385 645.495, 452.881 640.601 C 453.502 634.462, 454.246 631.442, 455.279 630.864 C 456.103 630.403, 457.061 628.895, 457.407 627.513 C 457.754 626.131, 458.464 625, 458.985 625 C 459.505 625, 460.235 622.712, 460.606 619.915 C 460.977 617.118, 461.868 614.604, 462.587 614.328 C 463.306 614.052, 464.421 611.278, 465.064 608.163 C 466.269 602.330, 467.209 601.042, 470.284 601.015 C 471.265 601.007, 473.387 599.650, 475 598 C 477.819 595.117, 482 593.922, 482 596 C 482 596.550, 482.675 597, 483.500 597 C 484.325 597, 485 596.550, 485 596 C 485 595.450, 485.900 595, 487 595 C 488.100 595, 489 595.450, 489 596 C 489 596.550, 489.675 597, 490.500 597 C 491.325 597, 492 596.550, 492 596 C 492 595.450, 492.900 595, 494 595 C 495.100 595, 496 595.450, 496 596 C 496 596.550, 498.067 597, 500.594 597 C 504.346 597, 505.283 597.366, 505.710 599 C 506.259 601.098, 512 602.011, 512 600 C 512 599.450, 512.900 599.900, 514 601 C 515.733 602.733, 516 604.333, 516 613 C 516 619, 515.600 623, 515 623 C 514.422 623, 514 626.167, 514 630.500 C 514 634.833, 514.422 638, 515 638 C 515.550 638, 516 639.125, 516 640.500 C 516 641.875, 515.550 643, 515 643 C 513.670 643, 513.707 649.736, 515.040 650.180 C 515.612 650.371, 516.539 655.011, 517.099 660.491 C 517.660 665.971, 518.562 670.729, 519.103 671.063 C 519.644 671.398, 520.441 674.982, 520.873 679.029 C 521.309 683.108, 522.181 686.560, 522.830 686.777 C 524.552 687.351, 524.475 717.675, 522.750 718.250 C 521.800 718.567, 521.500 724.022, 521.500 741 C 521.500 757.978, 521.800 763.433, 522.750 763.750 C 524.656 764.385, 524.549 822.594, 522.638 824.505 C 521.888 825.255, 520.977 828.114, 520.613 830.859 C 520.249 833.604, 519.449 836.017, 518.836 836.221 C 518.222 836.426, 517.358 839.264, 516.915 842.528 C 516.472 845.793, 515.635 848.622, 515.055 848.815 C 514.414 849.029, 514 852.892, 514 858.663 C 514 869.921, 512.123 887.253, 510.813 888.094 C 510.304 888.420, 509.621 891.273, 509.295 894.432 C 508.940 897.875, 508.161 900.385, 507.351 900.696 C 506.607 900.981, 506 902.648, 506 904.408 C 506 907.766, 504.027 912.979, 502.750 912.992 C 502.337 912.996, 502 916.825, 502 921.500 C 502 926.175, 502.340 930, 502.757 930 C 503.571 930, 506 937.041, 506 939.401 C 506 940.189, 506.563 941.060, 507.250 941.338 C 508.250 941.741, 508.250 941.858, 507.250 941.921 C 506.558 941.965, 506 943.285, 506 944.879 C 506 948.585, 510.553 950.921, 513.810 948.886 C 515.431 947.874, 516.139 947.871, 517.340 948.868 C 518.541 949.864, 519.245 949.864, 520.840 948.868 C 522.438 947.870, 523.141 947.872, 524.352 948.877 C 525.597 949.910, 526.234 949.766, 527.933 948.067 C 529.070 946.930, 530.705 946, 531.566 946 C 532.427 946, 534.002 945.534, 535.066 944.965 C 536.419 944.241, 537.623 944.263, 539.074 945.040 C 540.830 945.979, 541.231 945.831, 541.691 944.075 C 541.989 942.934, 542.600 942, 543.049 942 C 543.498 942, 544.116 941.208, 544.423 940.241 C 544.731 939.274, 545.998 938.036, 547.241 937.491 C 548.942 936.745, 549.580 935.515, 549.824 932.513 C 550.003 930.320, 550.589 928.254, 551.126 927.922 C 551.664 927.590, 552.476 923.623, 552.931 919.107 C 553.481 913.656, 554.280 910.494, 555.309 909.698 C 557.761 907.804, 558.246 858.388, 555.830 856.619 C 551.815 853.680, 550.694 819.319, 554.518 816.407 C 555.308 815.805, 556.452 812.993, 557.060 810.157 C 557.668 807.320, 558.523 805, 558.959 805 C 559.395 805, 559.963 802.458, 560.221 799.350 C 560.526 795.669, 561.266 793.279, 562.345 792.490 C 563.265 791.817, 564 789.912, 564 788.199 C 564 786.504, 564.450 784.840, 565 784.500 C 565.550 784.160, 566 782.559, 566 780.941 C 566 779.323, 566.450 778, 567 778 C 567.550 778, 568 776.569, 568 774.821 C 568 771.673, 569.922 764.964, 571.100 764 C 571.759 763.461, 572.763 757.074, 573.693 747.510 C 574.060 743.735, 574.863 741.090, 575.863 740.358 C 577.003 739.525, 577.560 737.052, 577.835 731.598 C 578.046 727.419, 578.619 724, 579.109 724 C 579.599 724, 580 722.650, 580 721 C 580 719.350, 579.550 718, 579 718 C 578.450 718, 578 715.559, 578 712.576 C 578 706.437, 576.078 697, 574.828 697 C 574.373 697, 574 688, 574 677 C 574 666, 574.357 657, 574.793 657 C 576.046 657, 578 648.460, 578 642.986 C 578 640.244, 578.364 638, 578.808 638 C 579.253 638, 580.085 632.185, 580.658 625.078 C 581.436 615.438, 582.119 611.738, 583.350 610.507 C 584.258 609.600, 585 608.237, 585 607.478 C 585 606.720, 585.596 605.740, 586.325 605.300 C 587.054 604.860, 587.940 603.712, 588.294 602.750 C 588.648 601.788, 589.589 601, 590.385 601 C 591.181 601, 592.430 599.650, 593.160 598 C 593.891 596.350, 594.797 595, 595.175 595 C 595.552 595, 596.005 593.988, 596.180 592.750 C 596.448 590.869, 597.215 590.449, 600.860 590.187 C 604.177 589.949, 605.341 589.411, 605.727 587.937 C 606.005 586.872, 606.547 586, 606.930 586 C 607.313 586, 608.231 584.459, 608.970 582.576 C 609.709 580.692, 611.143 578.934, 612.157 578.669 C 613.171 578.404, 614 577.293, 614 576.201 C 614 575.108, 614.734 573.932, 615.632 573.588 C 617.641 572.817, 617.258 530.396, 615.231 529.143 C 614.618 528.764, 613.648 525.542, 613.075 521.982 C 612.501 518.423, 611.575 515.358, 611.016 515.172 C 610.453 514.984, 609.972 511.413, 609.937 507.167 C 609.846 496.074, 608.440 482.893, 607.268 482.145 C 605.914 481.280, 604.924 475.363, 604.337 464.615 C 603.711 453.161, 604.122 451.719, 608.466 450.149 C 610.409 449.446, 612 448.522, 612 448.096 C 612 447.670, 613.125 446.808, 614.500 446.182 C 615.875 445.555, 617 444.458, 617 443.744 C 617 442.290, 619.656 439.783, 623.171 437.921 C 626.730 436.034, 628.889 433.108, 629.628 429.169 C 629.997 427.204, 631.124 424.710, 632.134 423.626 C 633.545 422.111, 633.825 420.760, 633.347 417.770 C 632.804 414.374, 632.995 413.814, 634.863 413.326 C 636.038 413.018, 637 412.167, 637 411.433 C 637 410.700, 637.596 409.740, 638.325 409.300 C 639.054 408.860, 639.940 407.712, 640.294 406.750 C 640.648 405.787, 641.609 405, 642.430 405 C 643.326 405, 644.354 403.399, 645 401 C 645.592 398.800, 646.455 397, 646.917 397 C 647.379 397, 648.317 395.650, 649 394 C 649.683 392.350, 650.585 391, 651.004 391 C 651.422 391, 652.081 387.626, 652.468 383.502 C 652.854 379.378, 653.694 375.666, 654.335 375.252 C 655.903 374.240, 658 370.384, 658 368.514 C 658 367.681, 658.450 367, 659 367 C 659.550 367, 660 364.720, 660 361.934 C 660 356.674, 661.231 353.308, 663.864 351.367 C 666.826 349.183, 665.706 324.563, 662.498 321.355 C 661.774 320.632, 660.877 318.231, 660.503 316.020 C 660.130 313.809, 659.468 312, 659.033 312 C 658.598 312, 657.683 310.650, 657 309 C 656.317 307.350, 655.407 306, 654.978 306 C 654.550 306, 653.660 303.750, 653 301 C 652.340 298.250, 651.453 296, 651.028 296 C 650.603 296, 649.973 294.232, 649.627 292.071 C 649.282 289.910, 648.379 287.522, 647.621 286.764 C 646.864 286.007, 645.922 283.919, 645.528 282.126 C 645.134 280.332, 644.179 278.622, 643.406 278.325 C 642.633 278.029, 642 276.680, 642 275.327 C 642 272.961, 640.415 269.039, 639.038 268 C 638.674 267.725, 637.818 264.952, 637.136 261.837 C 636.454 258.722, 635.269 255.933, 634.503 255.639 C 633.737 255.346, 632.810 253.506, 632.444 251.553 C 632.077 249.599, 631.432 248, 631.010 248 C 630.588 248, 629.683 246.650, 629 245 C 628.317 243.350, 627.362 242, 626.879 242 C 626.395 242, 625.994 241.438, 625.987 240.750 C 625.970 239.196, 622.660 234.919, 617.778 230.142 C 611.664 224.160, 610.157 222.644, 607.195 219.500 C 603.957 216.062, 600.703 214, 598.514 214 C 597.681 214, 597 213.550, 597 213 C 597 212.450, 596.161 212, 595.136 212 C 592.977 212, 588 207.371, 588 205.364 C 588 204.402, 586.587 204, 583.200 204 C 575.637 204, 573.441 199.226, 578.621 194.046 C 580.367 192.299, 581.317 190.178, 581.468 187.684 C 581.593 185.627, 582.385 183.394, 583.228 182.722 C 584.071 182.050, 585.075 180.155, 585.459 178.510 C 585.844 176.866, 586.685 175.194, 587.329 174.796 C 589.218 173.629, 588.921 152.187, 587 151.002 C 581.963 147.896, 582 147.995, 582 137.503 C 582 120.519, 580.413 111.111, 576.997 107.847 C 575.406 106.327, 573.542 103.152, 572.853 100.792 C 572.164 98.431, 571.051 96.160, 570.378 95.744 C 569.706 95.328, 568.847 93.582, 568.470 91.864 C 568.087 90.119, 566.065 87.159, 563.892 85.161 C 561.751 83.193, 560 81.006, 560 80.303 C 560 78.547, 556.842 75, 555.278 75 C 554.575 75, 554 74.419, 554 73.709 C 554 72.999, 552.216 70.777, 550.035 68.772 C 547.854 66.767, 545.793 64.025, 545.455 62.678 C 544.984 60.799, 543.988 60.094, 541.166 59.643 C 539.145 59.319, 536.751 58.190, 535.845 57.132 C 534.940 56.075, 532.307 54.890, 529.994 54.499 C 527.681 54.108, 524.936 52.936, 523.894 51.894 C 520.639 48.639, 498.553 49.097, 494.594 52.501" stroke="#FFFFFF" fill="none" stroke-width="6" stroke-linecap="round" stroke-linejoin="round" stroke-dasharray="8 12"/>
</svg>
