<svg xmlns="http://www.w3.org/2000/svg" viewBox="0 0 1000 1000">
  <path d="M 541 51 C 541 51.550, 538.820 52, 536.155 52 C 532.580 52, 530.836 52.524, 529.500 54 C 528.505 55.100, 526.702 56, 525.494 56 C 524.286 56, 521.155 57.139, 518.536 58.532 C 515.886 59.941, 512.972 60.809, 511.964 60.489 C 510.694 60.085, 509.317 60.963, 507.348 63.431 C 505.805 65.365, 503.408 67.421, 502.021 67.999 C 499.608 69.007, 495.928 77.568, 495.982 82.050 C 495.992 82.902, 495.517 84.083, 494.927 84.673 C 493.255 86.345, 492.652 103.632, 493.956 112.500 C 494.604 116.900, 495.566 127.025, 496.096 135 C 496.626 142.975, 497.320 151.435, 497.639 153.800 C 498.084 157.091, 497.805 158.558, 496.451 160.054 C 495.274 161.354, 494.706 163.533, 494.752 166.573 C 494.811 170.429, 494.630 170.876, 493.588 169.451 C 491.817 167.029, 482.354 168.308, 481.472 171.088 C 480.965 172.686, 479.896 173, 474.968 173 C 470.231 173, 468.873 173.368, 468.070 174.870 C 467.260 176.383, 465.573 176.826, 459.204 177.194 C 454.090 177.490, 450.501 178.236, 448.947 179.325 C 447.158 180.577, 444.379 181, 437.932 181 C 430.663 181, 429.034 181.305, 427.551 182.944 C 426.584 184.013, 424.601 185.025, 423.146 185.194 C 421.274 185.410, 419.990 186.524, 418.758 189 C 417.800 190.925, 416.449 192.950, 415.756 193.500 C 415.063 194.050, 413.607 196.188, 412.521 198.250 C 411.434 200.313, 410.203 202, 409.785 202 C 409.367 202, 407.939 203.688, 406.612 205.750 C 405.285 207.813, 400.883 212.875, 396.831 217 C 388.408 225.572, 386 229.884, 386 236.393 C 386 239.965, 385.540 241.262, 383.928 242.242 C 382.788 242.934, 381.269 244.884, 380.551 246.576 C 379.146 249.891, 370.781 261.545, 368.045 264 C 367.125 264.825, 364.714 266.818, 362.686 268.430 C 360.659 270.041, 359 272.091, 359 272.986 C 359 273.880, 357.875 276.136, 356.500 278 C 355.125 279.864, 354 281.828, 354 282.366 C 354 282.903, 353.377 284.053, 352.615 284.921 C 350.614 287.202, 345.068 300.849, 344.353 305.250 C 344.018 307.313, 343.352 309, 342.872 309 C 342.392 309, 342 311.250, 342 314 C 342 316.750, 342.414 319, 342.921 319 C 343.427 319, 344.146 320.463, 344.519 322.250 C 344.891 324.038, 345.761 326.400, 346.451 327.500 C 347.141 328.600, 347.931 332.650, 348.207 336.500 C 348.544 341.199, 349.413 344.651, 350.851 347 C 352.029 348.925, 352.994 352.007, 352.996 353.849 C 352.998 355.691, 353.631 358.616, 354.403 360.349 C 360.030 372.986, 361 375.468, 361 377.236 C 361 379.577, 365.933 389, 367.159 389 C 367.622 389, 368 389.873, 368 390.941 C 368 392.009, 368.501 393.192, 369.113 393.570 C 369.726 393.948, 371.103 396.113, 372.173 398.379 C 373.961 402.163, 377.508 407.768, 379.967 410.691 C 380.518 411.347, 381.700 413.709, 382.593 415.941 C 383.486 418.174, 384.607 420, 385.083 420 C 385.559 420, 386.696 421.446, 387.610 423.212 C 388.524 424.979, 390.560 427.714, 392.136 429.289 C 393.711 430.865, 395 432.778, 395 433.542 C 395 434.305, 395.870 435.395, 396.932 435.964 C 397.995 436.533, 399.184 438.011, 399.574 439.249 C 399.964 440.487, 401.569 443.065, 403.141 444.978 C 404.714 446.891, 406 448.967, 406 449.593 C 406 450.218, 406.884 451.855, 407.965 453.229 C 409.046 454.603, 410.411 457.870, 410.998 460.490 C 412.279 466.206, 413.447 468.516, 416.949 472.264 C 418.406 473.823, 420.403 476.764, 421.386 478.799 C 422.369 480.835, 423.810 483.774, 424.587 485.331 C 425.364 486.888, 426 489.235, 426 490.547 C 426 492.680, 427.636 497.320, 430.122 502.236 C 430.605 503.191, 431 505.004, 431 506.264 C 431 507.524, 431.577 509.443, 432.282 510.527 C 432.988 511.612, 434.369 515.200, 435.352 518.500 C 436.335 521.800, 437.558 525.882, 438.070 527.571 C 438.581 529.260, 439 531.398, 439 532.321 C 439 533.244, 439.407 534, 439.903 534 C 440.400 534, 441.044 536.138, 441.334 538.750 C 441.623 541.362, 442.593 548.675, 443.489 555 C 444.642 563.134, 444.931 569.573, 444.477 577 C 443.151 598.704, 443.553 620.003, 445.494 631 C 446.514 636.775, 447.182 644.200, 446.978 647.500 C 446.775 650.800, 446.705 679.600, 446.823 711.500 C 446.941 743.400, 447.067 779.400, 447.103 791.500 C 447.139 803.600, 446.865 818.580, 446.495 824.790 C 446.083 831.687, 446.200 836.550, 446.795 837.290 C 447.331 837.955, 448.080 840.075, 448.459 842 C 448.839 843.925, 449.794 846.925, 450.582 848.668 C 451.371 850.410, 452.304 854.010, 452.657 856.668 C 453.010 859.325, 453.906 862.388, 454.649 863.473 C 456.468 866.128, 456.356 868.974, 454 880 C 451.826 890.175, 451.500 895.070, 452.898 896.550 C 453.787 897.491, 453.977 898.521, 455.914 912.906 C 456.463 916.979, 457.381 920.781, 457.956 921.356 C 458.530 921.930, 459.013 923.997, 459.028 925.950 C 459.062 930.208, 464.916 937.342, 469.221 938.372 C 470.718 938.731, 472.421 939.918, 473.006 941.012 C 473.592 942.105, 475.032 943, 476.206 943 C 477.381 943, 479.053 943.609, 479.921 944.354 C 480.790 945.098, 484.425 946.290, 488 947.003 C 491.575 947.715, 494.948 948.551, 495.496 948.860 C 496.045 949.170, 500.867 949.513, 506.213 949.624 C 517.920 949.867, 524.894 947.130, 528.187 941 C 530.558 936.586, 529.867 925.969, 526.938 921.823 C 525.898 920.350, 524.072 916.300, 522.879 912.823 C 521.687 909.345, 520.101 905.612, 519.355 904.527 C 518.610 903.443, 518 901.781, 518 900.835 C 518 898.802, 514.155 892, 513.006 892 C 511.095 892, 509.266 867.060, 510.868 862.846 C 511.462 861.286, 513.468 859.478, 515.842 858.365 C 519.356 856.718, 519.758 856.179, 519.286 853.752 C 518.780 851.156, 520.293 848, 522.043 848 C 522.482 848, 523.135 849.462, 523.495 851.250 C 524.672 857.098, 525.113 857.999, 526.817 858.040 C 527.743 858.062, 530.972 859.146, 533.992 860.449 C 537.013 861.752, 539.825 862.608, 540.241 862.351 C 540.656 862.094, 541.997 862.585, 543.221 863.442 C 544.444 864.299, 546.668 865, 548.163 865 C 549.659 865, 551.160 865.450, 551.500 866 C 551.840 866.550, 553.640 867, 555.500 867 C 557.360 867, 559.171 867.468, 559.525 868.041 C 559.879 868.613, 560.978 868.824, 561.968 868.510 C 562.957 868.196, 565.863 868.409, 568.424 868.983 C 571.648 869.706, 573.679 869.707, 575.024 868.987 C 576.092 868.416, 584.459 867.723, 593.618 867.449 C 609.518 866.972, 610.404 866.838, 613.212 864.475 C 614.830 863.114, 617.214 862, 618.509 862 C 619.977 862, 621.102 861.255, 621.492 860.026 C 621.836 858.940, 623.389 857.147, 624.942 856.041 C 628.071 853.813, 630.025 844.906, 628.169 841.335 C 627.644 840.326, 626.706 838.217, 626.083 836.648 C 625.171 834.353, 624.676 834.024, 623.545 834.963 C 622.432 835.887, 621.903 835.687, 621 834 C 620.145 832.403, 619.537 832.140, 618.563 832.948 C 616.970 834.270, 615.404 832.656, 614.732 829 L 614.272 826.500 614.136 829.128 C 614.061 830.573, 613.421 832.236, 612.713 832.823 C 610.713 834.483, 593.147 833.443, 591.044 831.540 C 590.108 830.693, 588.853 830, 588.255 830 C 587.656 830, 586.904 829.437, 586.583 828.750 C 586.117 827.750, 585.883 827.750, 585.417 828.750 C 584.726 830.229, 579 830.452, 579 829 C 579 828.450, 578.318 828, 577.484 828 C 576.650 828, 575.232 826.457, 574.332 824.570 C 573.416 822.650, 571.707 820.892, 570.447 820.576 C 569.060 820.228, 567.007 817.901, 565.090 814.506 C 563.381 811.478, 561.548 809, 561.017 809 C 558.271 809, 557 802.918, 557 789.772 C 557 780.207, 556.618 775.888, 555.647 774.473 C 553.212 770.924, 552.924 759.159, 555.072 750.980 C 556.132 746.940, 557 742.644, 557 741.432 C 557 740.220, 557.672 737.940, 558.494 736.364 C 559.315 734.789, 559.990 732.038, 559.994 730.250 C 559.997 728.462, 560.400 727, 560.889 727 C 561.377 727, 562.094 725.312, 562.480 723.250 C 562.867 721.188, 563.783 718.375, 564.515 717 C 566.573 713.137, 567.999 703.583, 568.011 693.583 C 568.029 679.141, 568.570 677.254, 573.389 674.837 C 578.532 672.257, 581.745 669.360, 583.744 665.500 C 584.599 663.850, 586.095 661.937, 587.070 661.249 C 588.044 660.561, 589.137 658.653, 589.498 657.010 C 589.859 655.367, 590.606 653.743, 591.160 653.401 C 592.583 652.522, 595.998 644.258, 596.009 641.667 C 596.014 640.475, 597.125 637.250, 598.478 634.500 C 599.831 631.750, 600.952 628.147, 600.969 626.493 C 600.986 624.840, 601.501 621.915, 602.114 619.993 C 603.123 616.831, 604.915 605.391, 606.868 589.634 C 607.291 586.227, 608.241 583.293, 609.136 582.634 C 610.835 581.384, 611.752 576.824, 612.884 564 C 613.297 559.325, 614.186 554.482, 614.859 553.237 C 615.713 551.660, 616.022 545.898, 615.879 534.237 C 615.660 516.354, 616.082 513.396, 619.204 510.922 C 620.764 509.686, 621.397 507.415, 622.131 500.422 C 622.646 495.515, 623.952 488.612, 625.033 485.082 C 626.115 481.551, 627.007 477.051, 627.015 475.082 C 627.036 470.318, 628.470 467.975, 629.412 471.165 L 630.102 473.500 630.987 471.335 C 631.474 470.145, 632.515 468.795, 633.301 468.335 C 634.088 467.876, 634.983 466.150, 635.291 464.500 C 635.599 462.850, 636.979 457.450, 638.358 452.500 C 639.737 447.550, 641.602 439.900, 642.502 435.500 C 645.697 419.885, 647.230 413.463, 648.470 410.500 C 656.291 391.804, 659.653 372.500, 658.604 352.318 C 657.464 330.370, 656.697 324.778, 654.377 321.500 C 653.209 319.850, 652.028 316.925, 651.752 315 C 651.228 311.344, 649.355 305.568, 647.860 303 C 646.540 300.732, 646.306 299.955, 645.151 294 C 644.565 290.975, 643.594 286.025, 642.994 283 C 642.394 279.975, 641.519 275.475, 641.049 273 C 640.579 270.525, 639.251 265.702, 638.097 262.282 C 636.944 258.861, 636 254.694, 636 253.022 C 636 251.218, 635.186 249.284, 634 248.268 C 632.900 247.326, 632 245.392, 632 243.969 C 632 242.546, 631.339 240.509, 630.532 239.441 C 629.724 238.374, 629.049 236.457, 629.032 235.183 C 629.014 233.909, 627.986 231.434, 626.747 229.683 C 624.140 225.999, 622.895 223.959, 620.036 218.688 C 617.653 214.296, 613.452 210.272, 610.367 209.427 C 609.193 209.105, 607.006 207.302, 605.506 205.421 C 604.006 203.539, 601.989 202, 601.024 202 C 600.059 202, 598.126 201.100, 596.727 200 C 595.329 198.900, 593.517 198, 592.701 198 C 591.885 198, 590.934 196.875, 590.589 195.500 C 590.090 193.512, 589.333 193, 586.889 193 C 585.198 193, 582.671 192.100, 581.273 191 C 579.874 189.900, 577.943 189, 576.980 189 C 576.018 189, 574.493 187.875, 573.592 186.500 C 572.691 185.125, 571.289 184, 570.477 184 C 568.452 184, 568.636 182.070, 571 178.500 C 572.093 176.850, 572.990 174.575, 572.993 173.444 C 572.997 172.314, 574.145 169.839, 575.546 167.944 C 576.946 166.050, 578.571 162.599, 579.158 160.275 C 580.206 156.126, 582.904 152.480, 586.390 150.500 C 587.698 149.757, 588.252 147.891, 588.544 143.243 C 588.760 139.802, 589.401 136.119, 589.968 135.059 C 591.758 131.715, 591.332 82.520, 589.500 81 C 588.675 80.315, 588 78.492, 588 76.949 C 588 75.406, 587.325 73.468, 586.500 72.643 C 585.675 71.818, 585 70.676, 585 70.106 C 585 69.536, 583.726 67.591, 582.169 65.785 C 580.612 63.978, 579.051 61.712, 578.700 60.750 C 578.211 59.408, 576.920 59, 573.156 59 C 567.074 59, 557.445 54.978, 556.516 52.049 C 555.937 50.226, 555.047 50, 548.433 50 C 544.144 50, 541 50.423, 541 51" stroke="#FFFFFF" fill="none" stroke-width="6" stroke-linecap="round" stroke-linejoin="round" stroke-dasharray="8 12"/>
</svg>
