<svg xmlns="http://www.w3.org/2000/svg" viewBox="0 0 1000 1000">
  <path d="M 555 50.885 C 555 51.371, 552.525 52.079, 549.500 52.457 C 546.475 52.835, 544 53.562, 544 54.072 C 544 54.605, 537.012 55, 527.582 55 C 510.522 55, 508 55.326, 508 57.530 C 508 59.819, 501.859 65.196, 499.847 64.670 C 498.698 64.370, 498 64.719, 498 65.594 C 498 66.367, 497.550 67, 497 67 C 496.450 67, 496 67.517, 496 68.149 C 496 68.781, 494.425 70.828, 492.500 72.697 C 490.575 74.567, 489 76.975, 489 78.048 C 489 79.122, 488.599 80, 488.108 80 C 487.618 80, 486.947 81.075, 486.617 82.389 C 486.254 83.834, 485.029 85.027, 483.518 85.406 C 481.545 85.901, 480.886 86.859, 480.391 89.955 C 480.046 92.112, 479.142 94.115, 478.382 94.407 C 477.622 94.699, 477 95.626, 477 96.469 C 477 97.311, 476.601 98, 476.114 98 C 475.626 98, 474.923 100.025, 474.552 102.500 C 474.181 104.975, 473.514 107, 473.070 107 C 472.627 107, 472.024 108.788, 471.731 110.973 C 471.437 113.158, 470.478 115.665, 469.599 116.544 C 468.719 117.423, 468 118.738, 468 119.464 C 468 120.191, 467.325 121.045, 466.500 121.362 C 465.366 121.797, 465 123.632, 465 128.885 C 465 132.949, 464.554 135.982, 463.926 136.191 C 463.335 136.388, 462.597 139.351, 462.287 142.775 C 461.976 146.199, 461.335 149, 460.861 149 C 460.388 149, 460 156.425, 460 165.500 C 460 175.833, 460.374 182, 461 182 C 461.593 182, 462 185.667, 462 191 C 462 196.333, 461.593 200, 461 200 C 460.412 200, 460 203.483, 460 208.450 C 460 214.999, 459.655 217.093, 458.468 217.758 C 457.626 218.229, 456.649 220.385, 456.298 222.549 C 455.563 227.078, 454.301 228.635, 450.612 229.561 C 448.976 229.972, 447.756 231.124, 447.383 232.611 C 447.053 233.925, 446.418 235, 445.971 235 C 445.524 235, 444.858 236.369, 444.491 238.043 C 443.979 240.374, 443.142 241.222, 440.911 241.668 C 439.310 241.988, 438 242.613, 438 243.058 C 438 243.502, 437.157 244.133, 436.126 244.460 C 434.956 244.831, 434.046 246.329, 433.701 248.452 C 432.994 252.812, 430.220 255.549, 425.637 256.408 C 423.637 256.784, 422 257.481, 422 257.957 C 422 258.434, 420.131 259.140, 417.847 259.526 C 415.563 259.912, 412.750 261.222, 411.597 262.438 C 410.444 263.654, 408.712 264.939, 407.750 265.293 C 406.788 265.647, 406 266.366, 406 266.889 C 406 267.413, 404.650 268.138, 403 268.500 C 401.350 268.862, 400 269.551, 400 270.030 C 400 270.509, 397.300 271.206, 394 271.580 C 390.700 271.953, 388 272.614, 388 273.050 C 388 273.485, 386.650 274.138, 385 274.500 C 383.350 274.862, 382 275.514, 382 275.948 C 382 276.382, 380.209 276.977, 378.021 277.270 C 375.377 277.625, 373.003 278.844, 370.944 280.902 C 369.240 282.606, 367.174 284, 366.352 284 C 364.816 284, 362 286.305, 362 287.562 C 362 287.950, 359.750 290.482, 357 293.189 C 354.250 295.896, 352 298.725, 352 299.476 C 352 300.227, 350.650 301.138, 349 301.500 C 347.350 301.862, 346 302.543, 346 303.012 C 346 303.481, 345.057 304.165, 343.904 304.531 C 342.751 304.896, 340.162 306.892, 338.151 308.964 C 336.139 311.037, 333.032 313.054, 331.247 313.446 C 329.461 313.838, 328 314.524, 328 314.971 C 328 315.418, 326.925 316.053, 325.611 316.383 C 324.209 316.735, 322.974 317.966, 322.625 319.360 C 322.129 321.334, 321.227 321.827, 317.297 322.270 C 314.695 322.563, 312.401 323.298, 312.199 323.902 C 311.998 324.506, 310.183 325.006, 308.167 325.014 C 303.023 325.033, 300 325.996, 300 327.617 C 300 328.377, 299.599 329, 299.108 329 C 298.618 329, 297.950 330.065, 297.623 331.367 C 297.181 333.127, 296.132 333.879, 293.527 334.302 C 289.960 334.881, 285 339.153, 285 341.646 C 285 342.391, 284.586 343, 284.079 343 C 283.573 343, 282.862 344.350, 282.500 346.001 C 282.045 348.074, 281.077 349.194, 279.371 349.622 C 277.674 350.048, 276.722 351.142, 276.326 353.121 C 276.009 354.704, 275.356 356, 274.875 356 C 274.394 356, 274 357.025, 274 358.278 C 274 359.531, 273.100 361.326, 272 362.268 C 270.900 363.210, 270 364.622, 270 365.407 C 270 366.191, 269.438 367.022, 268.750 367.252 C 266.534 367.993, 267.007 401.866, 269.250 403.121 C 270.212 403.659, 271 405.213, 271 406.575 C 271 408.525, 271.636 409.177, 274 409.650 C 275.650 409.980, 277 410.644, 277 411.125 C 277 411.606, 278.103 412, 279.450 412 C 280.798 412, 282.315 412.741, 282.822 413.647 C 283.585 415.009, 285.861 415.343, 296.023 415.583 C 304.815 415.790, 308.540 416.246, 309.136 417.186 C 309.770 418.185, 309.973 418.201, 309.985 417.250 C 309.993 416.531, 311.275 416, 313 416 C 314.650 416, 316 416.450, 316 417 C 316 418.235, 318.708 418.334, 319.167 417.116 C 319.350 416.629, 326.632 416.022, 335.348 415.766 C 344.064 415.511, 351.489 414.863, 351.848 414.328 C 352.207 413.792, 353.287 413.064, 354.250 412.708 C 355.212 412.353, 356 411.374, 356 410.531 C 356 409.342, 357.228 409, 361.500 409 C 364.525 409, 367 408.550, 367 408 C 367 407.450, 369.039 407, 371.531 407 C 374.465 407, 376.250 406.513, 376.593 405.618 C 376.885 404.858, 378.896 403.952, 381.062 403.606 C 383.228 403.260, 385 402.532, 385 401.988 C 385 401.445, 386.925 401, 389.278 401 C 392.318 401, 394.051 400.421, 395.268 399 C 399.441 394.127, 410 397.991, 410 404.391 C 410 405.826, 410.393 407, 410.873 407 C 411.353 407, 411.966 409.298, 412.236 412.107 C 412.506 414.915, 413.305 417.570, 414.011 418.007 C 415.624 419.004, 415.924 435.796, 414.346 436.816 C 413.765 437.192, 412.979 439.184, 412.600 441.242 C 412.053 444.220, 411.360 445.119, 409.206 445.646 C 407.718 446.010, 406.128 446.801, 405.674 447.404 C 405.088 448.181, 404.700 448.136, 404.341 447.250 C 403.738 445.766, 401 445.561, 401 447 C 401 447.550, 400.345 448, 399.545 448 C 398.675 448, 397.827 449.405, 397.434 451.500 C 397.073 453.425, 396.377 455, 395.889 455 C 395.400 455, 395 455.675, 395 456.500 C 395 457.325, 394.325 458, 393.500 458 C 392.675 458, 392 458.450, 392 459 C 392 459.550, 391.425 460, 390.722 460 C 388.307 460, 386.164 463.839, 385.467 469.415 C 385.084 472.487, 384.407 475, 383.964 475 C 383.521 475, 382.862 476.350, 382.500 478 C 382.012 480.223, 381.272 481, 379.643 481 C 378.428 481, 376.205 482.414, 374.670 484.163 C 372.681 486.430, 370.961 487.358, 368.599 487.440 C 365.393 487.551, 362 489.827, 362 491.865 C 362 492.420, 360.538 493.014, 358.750 493.187 C 356.084 493.444, 355.445 493.972, 355.196 496.126 C 354.934 498.383, 354.306 498.830, 350.717 499.311 C 348.421 499.619, 346.383 500.350, 346.188 500.935 C 345.993 501.521, 344.732 502, 343.385 502 C 342.039 502, 340.678 502.675, 340.362 503.500 C 339.985 504.481, 338.427 505, 335.862 505 C 333.296 505, 331.738 505.519, 331.362 506.500 C 331.045 507.325, 329.695 508, 328.362 508 C 327.028 508, 325.693 508.637, 325.394 509.416 C 325.084 510.224, 322.734 511.124, 319.925 511.510 C 317.216 511.883, 315 512.575, 315 513.049 C 315 513.522, 313.313 514.220, 311.250 514.599 C 309.188 514.978, 307.227 515.708, 306.894 516.220 C 306.561 516.732, 304.318 517.416, 301.910 517.739 C 297.353 518.350, 295.843 519.298, 294.725 522.250 C 294.361 523.212, 293.374 524, 292.531 524 C 291.689 524, 291 524.401, 291 524.892 C 291 525.382, 289.875 526.066, 288.500 526.411 C 287.125 526.756, 286 527.452, 286 527.958 C 286 528.464, 283.990 529.179, 281.533 529.547 C 278.172 530.051, 276.901 530.747, 276.398 532.359 C 275.546 535.090, 274.183 535.966, 270.750 535.985 C 269.238 535.993, 268 536.450, 268 537 C 268 537.550, 267.321 538, 266.490 538 C 265.660 538, 264.210 538.900, 263.268 540 C 262.318 541.109, 260.318 542, 258.778 542 C 256.975 542, 256 542.527, 256 543.500 C 256 544.325, 255.599 545, 255.108 545 C 254.618 545, 253.934 546.125, 253.589 547.500 C 253.244 548.875, 252.520 550, 251.981 550 C 251.441 550, 251 550.575, 251 551.278 C 251 551.981, 250.100 553.326, 249 554.268 C 247.900 555.210, 247 556.612, 247 557.383 C 247 558.155, 246.325 559.045, 245.500 559.362 C 244.675 559.678, 244 560.626, 244 561.469 C 244 562.311, 243.550 563, 243 563 C 242.450 563, 242 563.643, 242 564.429 C 242 565.214, 241.384 566.473, 240.632 567.225 C 239.879 567.978, 238.919 569.697, 238.497 571.047 C 238.075 572.396, 237.269 573.796, 236.705 574.158 C 236.141 574.520, 235.471 577.332, 235.216 580.408 C 234.961 583.484, 234.411 586, 233.995 586 C 232.952 586, 231 594.109, 231 598.443 C 231 600.399, 230.550 602, 230 602 C 228.765 602, 228.655 613.703, 229.886 614.167 C 230.373 614.350, 231.217 620.964, 231.760 628.863 C 232.304 636.763, 233.196 643.513, 233.742 643.863 C 234.288 644.214, 234.942 648.168, 235.196 652.650 C 235.525 658.462, 236.137 661.280, 237.329 662.472 C 238.438 663.581, 239 665.799, 239 669.071 C 239 671.782, 239.414 674, 239.921 674 C 240.427 674, 241.138 675.350, 241.500 677 C 241.862 678.650, 242.573 680, 243.079 680 C 243.586 680, 244 681.139, 244 682.531 C 244 683.924, 244.637 685.307, 245.416 685.606 C 246.239 685.922, 247.128 688.318, 247.537 691.325 C 247.925 694.171, 248.672 696.773, 249.197 697.106 C 249.722 697.439, 250.402 699.577, 250.707 701.856 C 251.013 704.135, 251.654 706, 252.132 706 C 252.609 706, 253 706.575, 253 707.277 C 253 707.980, 254.281 709.679, 255.847 711.052 C 257.592 712.584, 258.974 715.047, 259.419 717.419 C 259.818 719.547, 260.787 721.930, 261.572 722.715 C 262.373 723.516, 263 726.059, 263 728.504 C 263 731.904, 263.417 732.998, 264.892 733.466 C 266.814 734.076, 267.962 736.747, 267.986 740.667 C 267.994 741.858, 268.507 743.002, 269.127 743.209 C 269.747 743.416, 270.479 745.928, 270.754 748.792 C 271.029 751.657, 271.647 754, 272.127 754 C 272.607 754, 273 755.364, 273 757.031 C 273 758.755, 273.625 760.302, 274.448 760.618 C 275.417 760.990, 276.122 763.465, 276.579 768.101 C 277.188 774.286, 277.515 775.091, 279.631 775.622 C 282.559 776.357, 283.166 783.338, 280.394 784.402 C 278.587 785.096, 279.242 789.885, 281.329 791.240 C 282.217 791.816, 282.205 792.191, 281.282 792.789 C 279.278 794.088, 279.087 806, 281.071 806 C 283.364 806, 284.737 808.817, 285.207 814.487 C 285.477 817.739, 286.216 820.572, 286.849 820.783 C 288.528 821.343, 288.261 828.882, 286.500 830.643 C 285.675 831.468, 285 831.661, 285 831.071 C 285 828.979, 282.714 830.053, 278.979 833.902 C 276.896 836.048, 274.136 838.136, 272.846 838.541 C 271.556 838.946, 269.509 840.340, 268.298 841.639 C 267.087 842.938, 265.062 844.006, 263.798 844.014 C 259.486 844.039, 256.979 845.237, 256.399 847.547 C 256.080 848.817, 255.185 850.099, 254.410 850.396 C 253.634 850.694, 253 851.433, 253 852.040 C 253 853.870, 250.574 855.715, 247.193 856.458 C 245.437 856.843, 244 857.516, 244 857.952 C 244 858.388, 242.200 859.032, 240 859.384 C 237.800 859.736, 236 860.468, 236 861.012 C 236 861.555, 234.871 862, 233.490 862 C 232.110 862, 230.210 862.900, 229.268 864 C 228.326 865.100, 226.981 866, 226.278 866 C 225.575 866, 225 866.391, 225 866.870 C 225 867.348, 222.877 867.979, 220.283 868.272 C 217.688 868.564, 215.401 869.298, 215.199 869.902 C 214.998 870.506, 214.289 871, 213.624 871 C 212.959 871, 211.873 873.025, 211.211 875.500 C 210.549 877.975, 209.556 880, 209.004 880 C 208.452 880, 208 880.675, 208 881.500 C 208 882.325, 207.550 883, 207 883 C 206.450 883, 206 885.025, 206 887.500 C 206 889.975, 206.450 892, 207 892 C 207.550 892, 208 892.675, 208 893.500 C 208 894.325, 208.450 895, 209 895 C 209.550 895, 210 896.269, 210 897.821 C 210 902.729, 218.263 910.366, 223.774 910.552 C 226.325 910.638, 228.579 911.294, 229.099 912.100 C 229.863 913.288, 230.152 913.272, 231 912 C 231.889 910.667, 232.108 910.667, 232.973 912 C 233.799 913.275, 237.346 913.458, 256.574 913.220 C 279.099 912.941, 282 912.493, 282 909.294 C 282 907.296, 286.110 905.217, 291.356 904.561 C 294.460 904.173, 297 903.503, 297 903.072 C 297 902.640, 300.243 901.986, 304.207 901.617 C 308.171 901.249, 311.659 900.562, 311.957 900.090 C 312.256 899.618, 315.951 899.061, 320.168 898.851 C 326.896 898.516, 328.133 898.149, 330.261 895.852 C 332.266 893.689, 333.930 893.110, 339.844 892.516 C 343.780 892.120, 347 891.393, 347 890.899 C 347 890.404, 347.657 890, 348.461 890 C 349.265 890, 350.871 888.987, 352.031 887.750 C 354.126 885.515, 354.150 885.514, 355.610 887.495 C 357.220 889.682, 358.953 888.316, 358.985 884.833 C 358.993 883.917, 359.563 882.976, 360.250 882.744 C 361.851 882.203, 361.817 858.123, 360.214 857.132 C 359.633 856.773, 358.849 855.247, 358.471 853.740 C 358.093 852.233, 357.447 851, 357.037 851 C 356.626 851, 356.017 847.743, 355.683 843.763 C 355.350 839.782, 354.609 836.370, 354.038 836.179 C 352.708 835.736, 352.673 832, 354 832 C 354.550 832, 355 830.650, 355 829 C 355 827.350, 354.550 826, 354 826 C 353.450 826, 353 825.360, 353 824.577 C 353 823.794, 351.668 821.822, 350.040 820.194 C 347.547 817.701, 346.971 816.149, 346.391 810.367 C 346.012 806.590, 345.331 803.256, 344.878 802.958 C 344.425 802.659, 343.749 796.584, 343.376 789.458 C 343.004 782.331, 342.291 776.233, 341.793 775.906 C 341.295 775.580, 340.625 772.767, 340.304 769.656 C 339.983 766.545, 339.361 764, 338.921 764 C 338.482 764, 337.819 761.975, 337.448 759.500 C 337.077 757.025, 336.374 755, 335.886 755 C 335.399 755, 335 750.050, 335 744 C 335 737.950, 335.396 733, 335.881 733 C 336.365 733, 337.083 728.275, 337.477 722.500 C 337.870 716.725, 338.599 712, 339.096 712 C 339.593 712, 340 707.950, 340 703 C 340 698.050, 339.590 694, 339.090 694 C 338.589 694, 337.861 690.175, 337.471 685.500 C 337.082 680.825, 336.425 677, 336.011 677 C 335.597 677, 334.953 674.300, 334.580 671 C 334.206 667.700, 333.532 665, 333.082 665 C 332.632 665, 332.012 663.124, 331.704 660.830 C 331.396 658.537, 330.437 656.265, 329.572 655.781 C 328.556 655.212, 328 653.503, 328 650.950 C 328 648.778, 327.570 647, 327.045 647 C 326.520 647, 325.795 645.425, 325.434 643.500 C 325.073 641.575, 324.377 640, 323.889 640 C 323.400 640, 323 639.325, 323 638.500 C 323 637.675, 322.361 637, 321.579 637 C 320.798 637, 319.852 635.603, 319.477 633.895 C 318.861 631.091, 318.512 630.848, 315.860 631.378 C 312.333 632.083, 311.478 630.594, 312.447 625.428 C 313.216 621.334, 315.336 621.270, 315.816 625.327 C 316.157 628.205, 318.420 628.954, 319.362 626.500 C 319.678 625.675, 320.566 625, 321.335 625 C 322.446 625, 322.631 623.569, 322.234 618.020 C 321.816 612.185, 322.002 610.936, 323.367 610.413 C 324.265 610.068, 325 608.762, 325 607.510 C 325 606.074, 325.739 605.040, 327 604.710 C 328.324 604.364, 329 603.346, 329 601.701 C 329 600.333, 329.675 598.955, 330.500 598.638 C 331.325 598.322, 332 597.323, 332 596.418 C 332 595.159, 332.704 594.876, 335 595.213 C 336.650 595.455, 338 595.282, 338 594.827 C 338 593.706, 341.775 590, 342.917 590 C 343.421 590, 344.062 590.562, 344.341 591.250 C 344.735 592.221, 345.060 592.197, 345.801 591.140 C 347.256 589.064, 357.750 588.731, 358.866 590.726 C 359.357 591.602, 361.236 592.368, 363.122 592.461 C 373.784 592.985, 373 592.643, 373 596.778 C 373 601.458, 376.041 604.453, 380.953 604.610 C 382.853 604.671, 384.578 605.233, 384.787 605.860 C 384.996 606.487, 385.704 607, 386.361 607 C 387.679 607, 391 610.511, 391 611.904 C 391 612.389, 390.325 613.045, 389.500 613.362 C 388.675 613.678, 388 614.626, 388 615.469 C 388 616.311, 387.550 617, 387 617 C 386.450 617, 386 617.675, 386 618.500 C 386 619.325, 386.420 620, 386.934 620 C 387.447 620, 388.010 621.237, 388.184 622.750 C 388.483 625.353, 388.807 625.516, 394.250 625.800 C 397.413 625.965, 400 626.527, 400 627.050 C 400 627.572, 402.250 628, 405 628 C 407.750 628, 410 627.550, 410 627 C 410 626.450, 410.679 626, 411.510 626 C 412.340 626, 413.790 625.100, 414.732 624 C 415.884 622.655, 417.682 622, 420.222 622 C 422.300 622, 424 621.550, 424 621 C 424 620.450, 424.675 620, 425.500 620 C 426.325 620, 427 620.450, 427 621 C 427 621.550, 427.900 622, 429 622 C 430.100 622, 431 621.550, 431 621 C 431 620.450, 432.475 620, 434.278 620 C 436.318 620, 438.202 619.245, 439.268 618 C 440.511 616.549, 442.218 616, 445.490 616 C 447.971 616, 450 615.550, 450 615 C 450 614.450, 450.575 614, 451.278 614 C 451.981 614, 453.326 613.100, 454.268 612 C 455.377 610.705, 457.218 610, 459.490 610 C 461.421 610, 463 609.550, 463 609 C 463 608.450, 463.640 608, 464.423 608 C 465.206 608, 467.173 606.673, 468.795 605.051 C 470.417 603.429, 473.039 601.784, 474.622 601.396 C 476.205 601.007, 478.473 599.653, 479.663 598.387 C 481.460 596.474, 483.148 596.003, 489.644 595.598 C 493.945 595.330, 497.621 594.636, 497.815 594.055 C 498.380 592.360, 506.689 592.747, 507.362 594.500 C 507.802 595.648, 509.687 596, 515.385 596 C 519.576 596, 522.983 596.448, 523.175 597.024 C 523.362 597.587, 525.308 598.338, 527.499 598.694 C 529.690 599.049, 532.081 599.939, 532.813 600.670 C 533.544 601.402, 534.973 602, 535.988 602 C 537.003 602, 537.987 602.461, 538.175 603.024 C 538.362 603.587, 540.308 604.338, 542.499 604.694 C 546.696 605.375, 548.187 606.377, 549.275 609.250 C 549.705 610.386, 551.001 611, 552.969 611 C 554.636 611, 556 611.401, 556 611.892 C 556 612.382, 557.125 613.066, 558.500 613.411 C 559.875 613.756, 561 614.480, 561 615.019 C 561 615.559, 561.623 616, 562.383 616 C 563.144 616, 564.002 616.900, 564.290 618 C 564.702 619.578, 565.654 620, 568.799 620 C 571.421 620, 572.983 620.514, 573.362 621.500 C 573.678 622.325, 575.076 623, 576.469 623 C 577.861 623, 579 623.400, 579 623.889 C 579 624.377, 580.575 625.073, 582.500 625.434 C 584.425 625.795, 586 626.520, 586 627.045 C 586 627.570, 587.913 628.007, 590.250 628.015 C 595.218 628.033, 596.477 628.688, 597.433 631.750 C 598.132 633.992, 600 634.901, 600 633 C 600 632.450, 600.900 632, 602 632 C 603.100 632, 604 632.450, 604 633 C 604 634.452, 609.726 634.229, 610.417 632.750 C 610.883 631.750, 611.117 631.750, 611.583 632.750 C 611.904 633.437, 613.442 634, 615.002 634 C 618.849 634, 621 634.935, 621 636.607 C 621 637.609, 622.383 638, 625.929 638 C 630.959 638, 634 636.278, 634 633.429 C 634 632.643, 634.415 632, 634.923 632 C 635.430 632, 635.992 626.017, 636.173 618.705 L 636.500 605.410 640.101 601.705 C 642.467 599.270, 644.610 598, 646.351 598 C 647.808 598, 649 597.550, 649 597 C 649 596.450, 650.778 596, 652.950 596 C 655.646 596, 657.234 595.444, 657.950 594.250 C 658.950 592.583, 659.050 592.583, 660.050 594.250 C 660.670 595.284, 662.306 596, 664.050 596 C 665.672 596, 667 596.450, 667 597 C 667 597.550, 667.675 598, 668.500 598 C 669.325 598, 670 598.616, 670 599.370 C 670 600.243, 671.566 600.916, 674.322 601.227 C 678.296 601.675, 683 604.377, 683 606.211 C 683 607.361, 686.311 611, 687.358 611 C 687.860 611, 689.265 612.072, 690.479 613.383 C 691.694 614.694, 693.613 616.060, 694.744 616.419 C 695.876 616.778, 697.066 618.127, 697.390 619.416 C 697.976 621.752, 700.467 622.960, 704.750 622.986 C 706.659 622.998, 707 623.539, 707 626.556 C 707 629.262, 707.746 630.794, 710.118 632.961 C 713.500 636.049, 713.263 638, 709.508 638 C 707.956 638, 706.898 638.746, 706.450 640.156 C 706.074 641.342, 704.773 643.254, 703.559 644.406 C 702.344 645.558, 701.061 647.288, 700.707 648.250 C 700.353 649.212, 699.567 650, 698.960 650 C 697.255 650, 695.167 652.485, 694.441 655.379 C 694.079 656.821, 693.382 658, 692.892 658 C 692.401 658, 692 658.868, 692 659.929 C 692 660.989, 691.402 662.456, 690.670 663.187 C 689.939 663.919, 689.053 666.287, 688.702 668.451 C 688.351 670.615, 687.374 672.771, 686.532 673.242 C 685.689 673.714, 685 675.202, 685 676.550 C 685 677.897, 684.609 679, 684.132 679 C 683.654 679, 683.013 680.865, 682.707 683.144 C 682.402 685.423, 681.728 687.561, 681.211 687.894 C 680.693 688.227, 679.923 689.625, 679.500 691 C 679.077 692.375, 678.353 693.744, 677.891 694.043 C 677.430 694.341, 676.741 697.936, 676.361 702.030 C 675.980 706.124, 675.068 710.075, 674.334 710.808 C 673.295 711.848, 673 717.538, 673 736.571 C 673 750.104, 672.605 761, 672.114 761 C 671.626 761, 670.923 763.025, 670.552 765.500 C 670.181 767.975, 669.506 770, 669.052 770 C 668.597 770, 668.046 773.176, 667.827 777.059 C 667.607 780.941, 666.948 784.429, 666.362 784.809 C 665.776 785.189, 664.842 789.626, 664.287 794.669 C 663.387 802.849, 662.967 804.126, 660.389 806.513 C 657.586 809.108, 657.490 809.521, 657.160 820.344 C 656.907 828.622, 656.455 831.706, 655.410 832.300 C 654.634 832.740, 654 833.752, 654 834.550 C 654 835.347, 653.586 836, 653.079 836 C 652.573 836, 651.862 837.350, 651.500 839 C 651.138 840.650, 650.432 842, 649.932 842 C 647.346 842, 645 845.633, 645 849.639 C 645 851.946, 644.482 854.006, 643.849 854.217 C 643.216 854.428, 642.485 857.166, 642.225 860.300 C 641.965 863.435, 641.415 866, 641.003 866 C 640.591 866, 640.042 868.206, 639.783 870.903 C 639.421 874.678, 638.643 876.425, 636.406 878.497 C 633.588 881.107, 633.490 881.520, 633.159 892.200 C 632.713 906.577, 633.343 910, 636.437 910 C 638.160 910, 638.966 910.727, 639.471 912.740 C 640.318 916.115, 641.575 916.965, 645.750 916.985 C 647.538 916.993, 649 917.450, 649 918 C 649 918.550, 651.453 919, 654.450 919 C 658.564 919, 660.137 919.422, 660.863 920.719 C 661.496 921.851, 662.853 922.360, 664.831 922.210 C 666.506 922.082, 668.534 922.677, 669.409 923.552 C 670.273 924.416, 672.672 925.389, 674.740 925.716 C 676.808 926.042, 678.798 926.764, 679.161 927.320 C 679.525 927.876, 681.515 928.267, 683.583 928.189 C 687.310 928.049, 694 933.034, 694 935.950 C 694 936.528, 696.003 937, 698.450 937 C 701.402 937, 703.188 937.514, 703.755 938.528 C 704.365 939.617, 706.852 940.200, 712.424 940.561 C 719.534 941.021, 720.473 941.333, 722.842 944.033 C 724.866 946.339, 726.287 947, 729.223 947 C 731.300 947, 733 947.450, 733 948 C 733 948.550, 733.675 949, 734.500 949 C 735.325 949, 736 948.550, 736 948 C 736 947.450, 736.900 947, 738 947 C 739.100 947, 740 947.450, 740 948 C 740 948.550, 741.125 949, 742.500 949 C 743.875 949, 745 948.550, 745 948 C 745 947.450, 745.900 947, 747 947 C 748.100 947, 749 947.450, 749 948 C 749 948.550, 749.675 949, 750.500 949 C 751.325 949, 752 948.550, 752 948 C 752 947.450, 753.125 947, 754.500 947 C 755.875 947, 757 947.450, 757 948 C 757 948.550, 757.900 949, 759 949 C 760.100 949, 761 948.550, 761 948 C 761 946.521, 762.929 946.786, 764.643 948.500 C 766.719 950.576, 771.892 950.444, 772.717 948.294 C 773.576 946.058, 776.219 943, 777.294 943 C 778.911 943, 781.029 940.103, 781.638 937.058 C 781.975 935.376, 782.638 934, 783.113 934 C 783.588 934, 784.264 932.200, 784.616 930 C 784.968 927.800, 785.761 925.993, 786.378 925.985 C 787.192 925.974, 787.197 925.768, 786.395 925.235 C 785.786 924.831, 785.055 922.371, 784.770 919.769 C 784.365 916.087, 783.558 914.432, 781.125 912.297 C 779.406 910.789, 778 909.210, 778 908.789 C 778 907.676, 774.704 904, 773.706 904 C 772.629 904, 770.006 901.408, 769.983 900.321 C 769.957 899.122, 765.408 895, 764.109 895 C 763.499 895, 763 894.550, 763 894 C 763 893.450, 761.861 893, 760.469 893 C 759.076 893, 757.678 892.325, 757.362 891.500 C 757.045 890.675, 755.809 890, 754.615 890 C 752.095 890, 749.315 887.105, 748.423 883.551 C 748.081 882.187, 746.876 880.778, 745.744 880.419 C 743.175 879.603, 739 875.186, 739 873.283 C 739 867.865, 732.117 868.105, 730.724 873.571 C 730.306 875.210, 730.215 875.237, 730.116 873.750 C 730.052 872.788, 729.550 872, 729 872 C 728.450 872, 728 871.347, 728 870.550 C 728 869.752, 727.368 868.740, 726.596 868.300 C 725.824 867.860, 725.037 866.375, 724.846 865 C 724.607 863.274, 723.779 862.398, 722.170 862.170 C 719.722 861.823, 716 858.705, 716 857 C 716 856.450, 715.550 856, 715 856 C 714.450 856, 713.130 855.130, 712.066 854.066 C 709.791 851.791, 708.543 831.557, 710.595 830.216 C 711.198 829.822, 711.971 827.726, 712.314 825.557 C 712.656 823.389, 713.626 821.229, 714.468 820.758 C 715.552 820.152, 716 818.305, 716 814.450 C 716 811.453, 716.450 809, 717 809 C 717.550 809, 718 808.311, 718 807.469 C 718 806.626, 718.675 805.678, 719.500 805.362 C 720.325 805.045, 721 803.732, 721 802.443 C 721 801.154, 721.606 799.740, 722.346 799.300 C 723.086 798.860, 723.982 797, 724.337 795.167 C 724.700 793.294, 726.301 790.678, 727.992 789.194 C 729.646 787.743, 731 785.980, 731 785.277 C 731 784.575, 731.450 784, 732 784 C 732.550 784, 733 782.682, 733 781.071 C 733 779.461, 733.719 777.423, 734.599 776.544 C 735.478 775.665, 736.437 773.158, 736.731 770.973 C 737.024 768.788, 737.605 767, 738.023 767 C 738.441 767, 739.075 765.837, 739.432 764.415 C 739.789 762.993, 741.157 760.833, 742.471 759.614 C 743.786 758.396, 745.167 756.184, 745.539 754.699 C 745.912 753.215, 746.618 752, 747.108 752 C 747.599 752, 748 751.425, 748 750.722 C 748 750.019, 748.900 748.674, 750 747.732 C 751.100 746.790, 752 745.340, 752 744.510 C 752 743.679, 752.414 743, 752.921 743 C 753.427 743, 754.138 741.650, 754.500 740 C 754.862 738.350, 755.523 737, 755.968 737 C 756.413 737, 757.073 735.425, 757.434 733.500 C 757.795 731.575, 758.512 730, 759.026 730 C 759.541 730, 760.236 728.908, 760.571 727.572 C 760.906 726.237, 761.815 724.901, 762.590 724.604 C 763.374 724.303, 764 722.717, 764 721.031 C 764 719.364, 764.392 718, 764.872 718 C 765.352 718, 766.032 716.200, 766.384 714 C 766.736 711.800, 767.433 710, 767.932 710 C 768.432 710, 769.138 708.650, 769.500 707 C 769.862 705.350, 770.546 704, 771.018 704 C 771.491 704, 772.181 701.975, 772.552 699.500 C 772.923 697.025, 773.626 695, 774.114 695 C 774.601 695, 775 694.311, 775 693.469 C 775 692.626, 775.634 691.694, 776.410 691.396 C 777.185 691.099, 778.094 689.763, 778.429 688.428 C 778.764 687.092, 779.480 686, 780.019 686 C 780.559 686, 781 683.997, 781 681.550 C 781 678.503, 781.507 676.816, 782.606 676.201 C 783.596 675.646, 784.417 673.424, 784.747 670.401 C 785.042 667.705, 785.894 665.140, 786.641 664.700 C 787.544 664.169, 788 661.905, 788 657.950 C 788 654.678, 788.391 652, 788.868 652 C 789.346 652, 789.987 650.135, 790.293 647.856 C 790.598 645.577, 791.445 643.343, 792.174 642.892 C 794.458 641.481, 794.062 603.174, 791.750 601.880 C 790.788 601.341, 790 599.798, 790 598.450 C 790 597.103, 789.600 596, 789.111 596 C 788.623 596, 787.927 594.425, 787.566 592.500 C 787.205 590.575, 786.516 589, 786.034 589 C 785.553 589, 784.862 587.650, 784.500 586 C 784.138 584.350, 783.427 583, 782.921 583 C 782.414 583, 782 582.321, 782 581.490 C 782 580.660, 781.100 579.210, 780 578.268 C 778.900 577.326, 778 575.981, 778 575.278 C 778 574.575, 777.550 574, 777 574 C 776.450 574, 776 573.375, 776 572.610 C 776 570.456, 765.203 560, 762.979 560 C 761.890 560, 761 559.425, 761 558.722 C 761 557.387, 757.551 554, 756.192 554 C 755.760 554, 754.302 552.669, 752.953 551.042 C 751.586 549.394, 749.490 548.066, 748.219 548.042 C 746.964 548.019, 745.639 547.212, 745.275 546.250 C 744.325 543.743, 742.392 542, 740.562 542 C 739.692 542, 738.210 541.100, 737.268 540 C 736.326 538.900, 734.531 538, 733.278 538 C 732.025 538, 731 537.550, 731 537 C 731 536.450, 729.636 536, 727.969 536 C 726.001 536, 724.705 535.386, 724.275 534.250 C 723.189 531.383, 721.698 530.375, 717.549 529.702 C 715.385 529.351, 713.229 528.374, 712.758 527.532 C 712.286 526.689, 711.248 526, 710.450 526 C 709.653 526, 709 525.550, 709 525 C 709 524.450, 707.538 523.994, 705.750 523.986 C 701 523.966, 698 522.959, 698 521.383 C 698 520.623, 697.325 520, 696.500 520 C 695.675 520, 695 519.594, 695 519.098 C 695 518.602, 692.333 517.887, 689.073 517.508 C 685.408 517.083, 682.938 516.282, 682.604 515.410 C 682.306 514.635, 681.374 514, 680.531 514 C 679.689 514, 679 513.550, 679 513 C 679 512.450, 677.087 511.993, 674.750 511.985 C 669.820 511.967, 668.522 511.308, 667.602 508.358 C 666.929 506.200, 664.384 505.039, 660.269 505.014 C 658.729 505.004, 657.844 504.226, 657.411 502.500 C 657.066 501.125, 656.157 500, 655.392 500 C 654.626 500, 654 499.550, 654 499 C 654 497.556, 650.533 494.304, 648.207 493.566 C 645.875 492.825, 645.032 490.264, 645.014 483.857 C 645.004 480.662, 644.532 479.034, 643.500 478.638 C 642.675 478.322, 642 477.374, 642 476.531 C 642 475.689, 641.586 475, 641.079 475 C 640.573 475, 639.862 473.650, 639.500 472 C 639.138 470.350, 638.476 469, 638.029 469 C 637.582 469, 636.936 467.882, 636.593 466.515 C 636.217 465.017, 635.020 463.792, 633.579 463.431 C 629.899 462.507, 628.272 449.871, 631.428 446.715 C 632.213 445.930, 633.178 443.535, 633.572 441.394 C 633.966 439.252, 634.690 437.239, 635.180 436.919 C 635.670 436.600, 636.350 434.575, 636.690 432.419 C 637.031 430.264, 637.786 428.189, 638.369 427.809 C 638.951 427.429, 639.605 423.981, 639.822 420.147 C 640.258 412.425, 640.656 412.041, 648.250 412.014 L 652 412 652 416.500 C 652 418.975, 652.450 421, 653 421 C 653.550 421, 654 421.886, 654 422.969 C 654 425.038, 656.681 424.790, 658.268 422.573 C 658.775 421.865, 659.388 422.096, 660.068 423.250 C 660.635 424.213, 661.787 425, 662.627 425 C 663.467 425, 665.504 426.350, 667.154 428 C 669.119 429.965, 671.162 431, 673.077 431 C 674.685 431, 676 431.450, 676 432 C 676 432.550, 678.254 433, 681.010 433 C 684.782 433, 686.443 433.494, 687.732 435 C 688.674 436.100, 690.019 437, 690.722 437 C 691.425 437, 692 437.482, 692 438.071 C 692 438.661, 692.675 439.818, 693.500 440.643 C 694.325 441.468, 695 441.661, 695 441.071 C 695 440.482, 696.350 440, 698 440 C 699.650 440, 701 440.450, 701 441 C 701 441.550, 701.675 442, 702.500 442 C 703.325 442, 704 441.550, 704 441 C 704 439.255, 706.194 439.918, 708.439 442.340 C 710.243 444.287, 712.010 444.797, 718.956 445.376 C 727.002 446.047, 727.443 446.215, 731.151 450.036 L 734.998 454 747.499 454 C 754.375 454, 760 453.602, 760 453.117 C 760 452.631, 760.900 451.998, 762 451.710 C 763.100 451.423, 764 450.470, 764 449.594 C 764 448.717, 764.675 448, 765.500 448 C 766.325 448, 767 447.550, 767 447 C 767 446.446, 769.643 446, 772.929 446 C 778.796 446, 781.941 444.509, 782.042 441.679 C 782.066 441.030, 783.416 439.396, 785.042 438.047 C 787.638 435.894, 788 434.946, 788 430.297 C 788 427.384, 788.450 425, 789 425 C 789.550 425, 790 424.132, 790 423.071 C 790 422.011, 790.720 420.423, 791.600 419.543 C 793.817 417.325, 793.883 411.073, 791.701 409.853 C 790.699 409.292, 790 407.688, 790 405.950 C 790 404.328, 789.550 403, 789 403 C 788.450 403, 788 401.861, 788 400.469 C 788 399.076, 787.366 397.694, 786.590 397.396 C 785.815 397.099, 784.906 395.763, 784.571 394.428 C 784.236 393.092, 783.556 392, 783.060 392 C 782.565 392, 781.843 390.563, 781.458 388.807 C 781.072 387.050, 780.136 384.993, 779.378 384.235 C 778.620 383.477, 778 381.989, 778 380.929 C 778 379.868, 777.550 379, 777 379 C 776.450 379, 776 378.372, 776 377.604 C 776 374.691, 761.992 361.872, 758.135 361.256 C 755.489 360.834, 753.071 359.229, 749.247 355.356 C 746.358 352.430, 742.870 349.755, 741.497 349.410 C 740.124 349.065, 739 348.431, 739 348 C 739 347.569, 737.925 346.947, 736.611 346.617 C 735.157 346.252, 733.973 345.028, 733.588 343.493 C 732.899 340.750, 730.074 337, 728.696 337 C 727.514 337, 707 316.394, 707 315.206 C 707 314.680, 705.621 313.974, 703.935 313.637 C 702.249 313.300, 699.515 311.669, 697.858 310.012 C 695.883 308.037, 693.840 307, 691.923 307 C 690.315 307, 689 306.536, 689 305.969 C 689 305.401, 688.212 304.639, 687.250 304.275 C 686.288 303.910, 684.905 303.024, 684.179 302.306 C 683.452 301.588, 680.864 301, 678.429 301 C 675.993 301, 674 300.550, 674 300 C 674 299.450, 673.416 299, 672.703 299 C 671.990 299, 670.302 297.669, 668.953 296.042 C 667.604 294.416, 665.923 293.066, 665.219 293.042 C 664.514 293.019, 663.678 292.325, 663.362 291.500 C 663.045 290.675, 661.822 289.994, 660.643 289.986 C 656.100 289.957, 654 288.818, 654 286.383 C 654 285.073, 653.550 284, 653 284 C 652.450 284, 652 283.311, 652 282.469 C 652 281.626, 651.212 280.639, 650.250 280.275 C 647.221 279.127, 645.820 277.073, 645.269 272.973 C 644.976 270.788, 644.382 269, 643.948 269 C 643.514 269, 642.871 267.688, 642.518 266.084 C 642.166 264.479, 641.230 262.919, 640.439 262.615 C 639.648 262.311, 639 261.374, 639 260.531 C 639 259.689, 638.550 259, 638 259 C 637.450 259, 637 257.897, 637 256.550 C 637 255.202, 636.212 253.659, 635.250 253.122 C 633.736 252.276, 633.455 250.212, 633.170 237.832 C 632.989 229.960, 632.410 223.254, 631.885 222.929 C 631.359 222.604, 630.650 220.575, 630.308 218.419 C 629.966 216.257, 628.655 213.530, 627.385 212.336 C 625.375 210.447, 625.059 209.114, 624.905 201.881 C 624.788 196.437, 625.118 193.461, 625.864 193.212 C 627.262 192.746, 627.388 187, 626 187 C 624.498 187, 624.796 185.061, 626.572 183.285 C 628.191 181.666, 627.726 167.185, 626.016 166 C 625.620 165.725, 625.036 161.046, 624.719 155.603 C 624.340 149.100, 623.697 145.431, 622.843 144.903 C 622.018 144.393, 621.404 141.257, 621.160 136.300 C 620.900 131.027, 620.326 128.241, 619.388 127.700 C 618.573 127.231, 618 125.269, 618 122.950 C 618 120.778, 617.609 119, 617.130 119 C 616.652 119, 616.026 116.919, 615.739 114.376 C 615.452 111.833, 614.779 109.471, 614.244 109.126 C 613.708 108.782, 612.925 107.396, 612.503 106.047 C 612.081 104.697, 611.121 102.978, 610.368 102.225 C 609.616 101.473, 609 99.314, 609 97.429 C 609 95.543, 608.559 94, 608.019 94 C 607.480 94, 606.756 92.875, 606.411 91.500 C 606.066 90.125, 605.382 89, 604.892 89 C 604.401 89, 604 88.132, 604 87.071 C 604 86.011, 603.325 84.468, 602.500 83.643 C 601.675 82.818, 601 81.761, 601 81.294 C 601 80.827, 600.100 79.674, 599 78.732 C 597.900 77.790, 597 76.370, 597 75.577 C 597 74.784, 596.057 73.835, 594.904 73.469 C 592.252 72.628, 585 65.221, 585 63.354 C 585 62.582, 583.650 61.680, 582 61.350 C 580.350 61.020, 579 60.356, 579 59.875 C 579 59.394, 577.975 59, 576.722 59 C 575.469 59, 573.674 58.100, 572.732 57 C 571.790 55.900, 569.869 55, 568.462 55 C 567.019 55, 564.895 53.911, 563.588 52.500 C 561.325 50.058, 555 48.869, 555 50.885" stroke="#FFFFFF" fill="none" stroke-width="6" stroke-linecap="round" stroke-linejoin="round" stroke-dasharray="8 12"/>
</svg>
