<svg xmlns="http://www.w3.org/2000/svg" viewBox="0 0 1000 1000">
  <path d="M 457 51.846 C 455.075 52.888, 451.409 54.044, 448.852 54.416 C 444.926 54.987, 444.013 55.554, 442.970 58.072 C 441.634 61.297, 437.161 65, 434.601 65 C 433.698 65, 432.105 66.925, 430.919 69.449 C 429.769 71.896, 428.191 74.426, 427.414 75.072 C 426.636 75.717, 426 76.990, 426 77.900 C 426 78.810, 425.212 80.668, 424.250 82.027 C 419.970 88.074, 423.454 110.982, 429.404 115.920 C 430.228 116.604, 431.183 119.264, 431.527 121.832 C 431.871 124.399, 432.793 128.197, 433.576 130.270 C 434.359 132.344, 435 135.143, 435 136.489 C 435 139.443, 438.329 146.082, 441.038 148.535 C 442.117 149.511, 443 150.855, 443 151.520 C 443 152.186, 443.900 153.874, 445 155.273 C 446.100 156.671, 447 158.915, 447 160.259 C 447 162.551, 451.059 171.351, 453.083 173.450 C 456.107 176.584, 451.952 185.286, 446.307 187.645 C 444.300 188.484, 440.645 190.707, 438.185 192.585 C 435.725 194.463, 432.888 196, 431.880 196 C 430.873 196, 428.607 196.877, 426.845 197.948 C 425.083 199.020, 423.302 199.686, 422.887 199.430 C 422.163 198.983, 417.714 200.896, 409.802 205.056 C 407.768 206.125, 405.475 207, 404.707 207 C 403.939 207, 402.462 207.937, 401.425 209.083 C 400.389 210.228, 398.134 211.753, 396.415 212.471 C 394.696 213.189, 391.728 215.338, 389.820 217.247 C 387.911 219.155, 385.910 220.893, 385.372 221.108 C 384.835 221.324, 383.346 224.650, 382.064 228.500 C 380.782 232.350, 379.118 236.388, 378.366 237.473 C 375.979 240.919, 376.463 275.522, 379 282.740 C 380.458 286.889, 381 290.994, 381 297.894 C 381 303.099, 381.434 308.740, 381.964 310.429 C 382.494 312.118, 383.357 320.025, 383.883 328 C 385.010 345.100, 385.650 348.693, 388.140 351.885 C 389.163 353.197, 390 354.874, 390 355.612 C 390 356.350, 391.130 357.694, 392.512 358.600 C 393.893 359.505, 395.295 361.326, 395.626 362.646 C 395.957 363.966, 397.051 365.623, 398.056 366.327 C 400.396 367.966, 407 377.533, 407 379.285 C 407 380.018, 407.661 381.491, 408.468 382.559 C 410.330 385.021, 410.363 387.106, 408.596 390.669 C 406.446 395.006, 405 402.390, 405 409.039 C 405 414.530, 405.216 415.132, 407.500 416 C 409.803 416.876, 409.999 417.445, 409.983 423.225 C 409.966 429.512, 407.019 446.315, 405.701 447.632 C 405.316 448.018, 405 449.052, 405 449.931 C 405 450.810, 404.100 453.209, 403 455.261 C 401.900 457.314, 401 459.868, 401 460.937 C 401 462.007, 400.550 463.160, 400 463.500 C 399.450 463.840, 398.997 464.879, 398.994 465.809 C 398.990 466.739, 398.387 468.652, 397.652 470.059 C 396.914 471.473, 395.998 477.963, 395.604 484.559 C 395.213 491.127, 394.467 496.928, 393.946 497.450 C 392.504 498.898, 392.819 510.321, 394.406 514.128 C 395.506 516.766, 395.837 524.518, 395.929 549.746 C 396.004 570.516, 396.436 582.971, 397.143 584.746 C 397.746 586.261, 398.465 594.250, 398.741 602.500 C 399.018 610.750, 399.687 618.054, 400.229 618.731 C 400.770 619.408, 401.455 624.694, 401.750 630.478 C 402.111 637.553, 402.731 641.362, 403.643 642.119 C 404.555 642.876, 405 645.600, 405 650.422 C 405 654.370, 405.501 658.101, 406.113 658.713 C 406.818 659.418, 406.974 661.418, 406.539 664.163 C 406.161 666.548, 405.548 676.869, 405.176 687.098 C 404.699 700.218, 404.110 706.166, 403.175 707.291 C 402.109 708.574, 401.962 715.189, 402.424 741.193 C 402.739 758.962, 403.023 775.300, 403.054 777.500 C 403.085 779.700, 402.809 795.035, 402.441 811.578 C 401.700 844.838, 401.624 844.307, 408.260 851.923 L 411.243 855.346 410.801 866.070 C 410.372 876.474, 410.266 876.888, 407.260 879.894 C 405.555 881.599, 403.851 884.457, 403.473 886.247 C 403.096 888.036, 401.249 891.750, 399.369 894.500 C 391.096 906.605, 389.388 908.467, 385.576 909.537 C 383.503 910.119, 381.326 911.473, 380.738 912.547 C 380.151 913.621, 378.620 915.491, 377.335 916.702 C 376.051 917.913, 375 919.869, 375 921.048 C 375 922.227, 374.369 924.386, 373.599 925.846 C 372.828 927.306, 371.685 930.413, 371.058 932.750 C 370.432 935.087, 369.488 937, 368.960 937 C 366.026 937, 368.872 940.848, 373.622 943.304 C 375.285 944.164, 377.251 945.598, 377.992 946.490 C 379.730 948.585, 397.963 947.726, 401.543 945.380 C 402.785 944.566, 407.108 943.643, 411.151 943.327 C 417.123 942.862, 418.928 942.311, 420.782 940.386 C 422.037 939.084, 424.427 937.314, 426.092 936.453 C 428.020 935.456, 429.811 933.273, 431.024 930.443 C 432.402 927.229, 433.502 926, 435 926 C 436.139 926, 438.067 925.353, 439.285 924.562 C 440.503 923.772, 444.151 922.934, 447.390 922.702 C 451.726 922.391, 453.706 921.753, 454.890 920.285 C 455.776 919.188, 457.287 918.014, 458.250 917.676 C 460.242 916.978, 460.250 916.904, 460.066 900 C 459.946 888.901, 459.710 887.314, 457.965 885.840 C 455.118 883.435, 455.142 872.858, 458 870 C 459.100 868.900, 460 867.309, 460 866.465 C 460 865.620, 460.690 863.876, 461.533 862.589 C 462.846 860.586, 462.995 856.519, 462.570 834.375 C 462.297 820.144, 462.060 806.250, 462.043 803.500 C 461.974 791.768, 463.739 759.780, 464.923 751.317 C 466.065 743.159, 466.029 741.880, 464.604 739.845 C 462.884 737.390, 462.342 725.585, 463.840 723.224 C 464.286 722.522, 464.198 719.457, 463.647 716.412 C 462.896 712.272, 462.967 709.981, 463.926 707.329 C 464.631 705.377, 465.560 698.543, 465.990 692.141 C 466.420 685.738, 467.273 679.233, 467.886 677.685 C 468.499 676.137, 469 671.804, 469 668.057 C 469 664.263, 469.665 659.653, 470.500 657.654 C 471.427 655.437, 472 650.875, 472 645.723 C 472 639.937, 472.450 636.788, 473.468 635.441 C 474.550 634.011, 474.945 630.569, 474.968 622.372 C 474.993 613.730, 475.335 610.967, 476.500 610 C 477.527 609.148, 478.010 606.823, 478.032 602.628 C 478.052 598.832, 478.622 595.761, 479.532 594.559 C 480.339 593.491, 481 590.651, 481 588.246 C 481 581.606, 485.020 570.872, 487.243 571.577 C 488.209 571.884, 489 571.692, 489 571.151 C 489 570.609, 488.521 570.007, 487.935 569.812 C 487.234 569.578, 487.120 567.584, 487.599 563.978 C 488 560.965, 488.553 559.175, 488.826 560 C 489.100 560.825, 489.956 561.966, 490.729 562.535 C 491.501 563.104, 492.390 565.579, 492.704 568.035 C 493.018 570.491, 493.889 573.715, 494.638 575.200 C 495.387 576.686, 496 579.668, 496 581.828 C 496 584.099, 496.633 586.280, 497.500 587 C 498.418 587.762, 499 589.955, 499 592.655 C 499 595.080, 499.675 598.680, 500.500 600.654 C 501.325 602.629, 502 605.228, 502 606.431 C 502 607.634, 502.661 609.491, 503.468 610.559 C 504.483 611.901, 504.948 615.124, 504.974 621 C 504.999 626.528, 505.535 630.501, 506.506 632.364 C 507.328 633.940, 508 636.697, 508 638.492 C 508 640.287, 508.675 642.315, 509.500 643 C 510.704 644, 511 647.041, 511 658.431 C 511 669.357, 511.337 673.064, 512.468 674.559 C 513.276 675.626, 513.951 677.683, 513.968 679.128 C 513.986 680.573, 514.675 683.371, 515.500 685.346 C 516.325 687.320, 517 690.664, 517 692.777 C 517 694.889, 517.661 697.491, 518.468 698.559 C 519.694 700.179, 519.942 706.385, 519.968 736.128 C 519.995 766.108, 520.231 771.947, 521.459 772.966 C 522.688 773.986, 522.965 780.855, 523.209 816.339 L 523.500 858.500 525.808 861.736 C 527.077 863.516, 528.494 867.116, 528.955 869.736 C 529.416 872.356, 530.384 875.949, 531.105 877.721 C 532.190 880.386, 532.184 882.110, 531.069 887.721 C 529.616 895.025, 528.478 917.825, 529.389 921.349 C 529.738 922.696, 531.662 924.247, 534.541 925.500 C 537.068 926.600, 540.646 929.131, 542.492 931.124 C 544.574 933.373, 547.163 934.996, 549.312 935.399 C 551.739 935.854, 553.482 937.087, 555.138 939.517 C 556.467 941.470, 558.351 942.989, 559.446 942.993 C 561.592 943.001, 569 947.764, 569 949.136 C 569 949.611, 576.833 950, 586.406 950 L 603.812 950 607.406 944.998 C 610.987 940.013, 611.899 936.674, 610 935.500 C 609.450 935.160, 608.970 933.896, 608.934 932.691 C 608.742 926.333, 605.206 919.531, 598.220 912.080 C 588.399 901.605, 584.864 896.429, 584.236 891.599 C 583.942 889.345, 582.662 886.249, 581.391 884.721 C 576.698 879.078, 576.738 860.422, 581.458 853.467 L 584.066 849.624 583.783 781.562 L 583.500 713.500 581.069 708.500 C 579.057 704.362, 578.510 701.260, 577.899 690.500 C 577.492 683.350, 576.696 674.184, 576.128 670.132 C 574.906 661.405, 575.964 654.321, 579.126 650.043 C 582.409 645.602, 583.086 639.997, 583.980 609.853 C 584.431 594.647, 585.085 581.308, 585.433 580.211 C 585.898 578.746, 587.316 578.031, 590.783 577.516 C 593.377 577.130, 596.305 575.956, 597.289 574.907 C 598.273 573.858, 600.356 573, 601.917 573 C 605.121 573, 613.998 563.700, 614.002 560.341 C 614.003 559.328, 615.329 555.987, 616.948 552.915 L 619.892 547.330 619.864 516.915 C 619.837 487.881, 620.201 481.875, 622.135 479.401 C 623.792 477.282, 625.058 467.341, 625.945 449.491 C 626.659 435.108, 627.258 430.419, 628.920 426.204 C 630.483 422.238, 631 418.684, 631 411.906 C 631 406.945, 631.490 400.941, 632.088 398.564 C 632.968 395.071, 632.885 393.678, 631.657 391.304 C 630.469 389.006, 630.264 386.258, 630.717 378.675 C 631.210 370.403, 631.044 368.707, 629.585 367.094 C 628.143 365.500, 627.810 362.407, 627.462 347.352 C 626.897 322.967, 624.278 297.349, 622.060 294.514 C 621.623 293.956, 620.969 291.025, 620.607 288 C 619.938 282.419, 617.868 272.578, 615.453 263.500 C 614.722 260.750, 613.596 255.350, 612.951 251.500 C 611.798 244.619, 609.897 239.402, 603.475 225.500 C 600.119 218.234, 596.004 214.208, 588 210.357 C 585.817 209.307, 580.881 205.868, 578 203.391 C 576.625 202.209, 573.848 200.714, 571.830 200.069 C 569.811 199.425, 567.619 198.246, 566.958 197.449 C 566.296 196.652, 564.785 196, 563.600 196 C 562.415 196, 560.557 195.389, 559.473 194.642 C 558.388 193.896, 555.700 192.707, 553.500 192.001 C 551.300 191.295, 549.140 190.106, 548.700 189.359 C 548.260 188.611, 546.653 188, 545.128 188 C 539.990 188, 533.519 185.016, 528.880 180.507 C 524.764 176.505, 524.223 175.451, 523.703 170.416 C 523.384 167.324, 522.447 164.046, 521.619 163.132 C 519.344 160.618, 518.052 153.514, 518.024 143.372 C 518.002 135.001, 518.187 134.120, 520.250 132.750 C 522.455 131.287, 522.504 130.828, 522.709 109.878 C 522.933 87.002, 522.341 83.199, 517.506 76.500 C 516.316 74.850, 514.264 71.321, 512.947 68.657 C 510.405 63.515, 504.946 58, 502.398 58 C 501.555 58, 499.301 56.341, 497.389 54.313 L 493.912 50.626 477.206 50.290 C 462.319 49.990, 460.119 50.159, 457 51.846" stroke="#FFFFFF" fill="none" stroke-width="6" stroke-linecap="round" stroke-linejoin="round" stroke-dasharray="8 12"/>
</svg>
