<svg xmlns="http://www.w3.org/2000/svg" viewBox="0 0 1000 1000">
  <path d="M 494 51 C 494 51.550, 493.155 52, 492.122 52 C 491.090 52, 489.733 52.617, 489.108 53.370 C 488.482 54.124, 486.193 54.979, 484.020 55.271 C 481.847 55.562, 478.868 56.745, 477.400 57.900 C 475.932 59.055, 473.441 60, 471.865 60 C 470.231 60, 468.248 60.870, 467.250 62.024 C 466.288 63.138, 464.488 65.102, 463.250 66.389 C 462.012 67.676, 461 69.063, 461 69.471 C 461 69.879, 459.713 71.852, 458.139 73.856 C 451.266 82.610, 449.318 94.787, 452.038 112 C 452.515 115.025, 453.638 122.900, 454.531 129.500 C 455.425 136.100, 456.796 142.918, 457.578 144.651 C 458.360 146.384, 459 148.507, 459 149.369 C 459 150.231, 460.169 151.549, 461.597 152.297 C 463.401 153.242, 464.741 155.314, 465.981 159.079 C 469.779 170.610, 470.013 175.897, 466.900 179.855 C 465.855 181.183, 465 182.868, 465 183.600 C 465 185.331, 461.513 187.164, 457.719 187.426 C 454.485 187.650, 451 191.051, 451 193.982 C 451 195.482, 449.775 195.816, 442.750 196.232 C 433.199 196.797, 432.784 196.705, 431.479 193.731 C 429.660 189.586, 413 190.872, 413 195.157 C 413 195.621, 411.051 196, 408.668 196 C 403.397 196, 391.491 199.600, 387.813 202.306 C 386.086 203.577, 382.694 204.516, 378.313 204.936 C 374.566 205.295, 370.517 206.131, 369.316 206.794 C 368.114 207.458, 365.132 208, 362.688 208 C 359.883 208, 357.768 208.575, 356.951 209.559 C 355.409 211.417, 337.475 211.143, 330.219 209.151 C 327.733 208.469, 319.558 208.011, 310.719 208.059 C 302.349 208.105, 293.796 208.119, 291.712 208.091 C 289.588 208.063, 286.075 206.965, 283.712 205.591 C 279.977 203.419, 278.481 203.168, 270.500 203.376 C 265.550 203.505, 260.600 204.115, 259.500 204.732 C 255.438 207.010, 252.153 207.772, 245 208.096 C 244.175 208.133, 242.375 208.578, 241 209.084 C 238.075 210.161, 231.396 210.633, 205.503 211.591 C 191.309 212.116, 186.252 212.637, 185.503 213.651 C 184.599 214.875, 170.411 216.633, 164.500 216.253 C 151.468 215.415, 140.230 215.596, 138.490 216.672 C 137.267 217.429, 135.932 217.576, 135.077 217.048 C 134.123 216.458, 133.124 216.860, 131.952 218.308 C 130.525 220.070, 129.968 220.218, 128.704 219.169 C 127.865 218.473, 126.933 218.299, 126.634 218.783 C 126.335 219.267, 117.858 219.732, 107.795 219.817 C 86.500 219.996, 84 220.606, 84 225.621 C 84 227.480, 84.450 229, 85 229 C 85.550 229, 86 229.675, 86 230.500 C 86 231.433, 86.944 232, 88.500 232 C 89.875 232, 91 231.550, 91 231 C 91 228.151, 94.826 230.330, 96.268 234 C 97.554 237.273, 98.354 238.028, 100.670 238.156 C 102.226 238.242, 104.625 238.461, 106 238.642 C 107.375 238.824, 111.650 239.260, 115.500 239.611 C 119.350 239.962, 122.803 240.726, 123.174 241.310 C 123.629 242.027, 124.395 241.917, 125.532 240.973 C 126.997 239.757, 127.398 239.823, 128.608 241.479 C 129.374 242.526, 130 243.776, 130 244.258 C 130 245.370, 151.167 244.072, 152.450 242.881 C 153.953 241.487, 158.181 241.854, 160.046 243.541 C 161.594 244.942, 162.037 244.840, 164.918 242.415 C 167.902 239.905, 168.555 239.775, 176.032 240.208 C 181.532 240.526, 184.542 241.180, 185.816 242.334 C 186.884 243.300, 189.326 244, 191.629 244 C 193.813 244, 196.135 244.535, 196.789 245.189 C 197.443 245.843, 200.345 246.504, 203.239 246.658 C 212.578 247.156, 214.351 247.793, 216.759 251.512 C 218.875 254.778, 219.384 255.012, 224.759 255.186 C 227.917 255.289, 231.850 255.474, 233.500 255.597 C 235.150 255.721, 239.608 255.974, 243.406 256.161 C 249.819 256.476, 250.497 256.732, 252.906 259.750 L 255.500 263 268.191 263 C 276.045 263, 281.131 262.596, 281.536 261.941 C 281.896 261.358, 283.377 261.021, 284.826 261.191 C 286.885 261.432, 287.759 260.883, 288.821 258.676 C 290.082 256.055, 290.306 255.967, 291.946 257.452 C 293.495 258.853, 293.864 258.869, 294.933 257.581 C 295.889 256.429, 296.668 256.347, 298.546 257.203 C 300.332 258.017, 301.316 257.983, 302.418 257.068 C 303.430 256.228, 304.443 256.148, 305.632 256.814 C 306.793 257.464, 307.963 257.415, 309.160 256.668 C 310.487 255.839, 311.248 255.848, 312.103 256.703 C 312.953 257.553, 313.723 257.565, 315.030 256.749 C 316.397 255.895, 317.391 256.026, 319.367 257.321 C 320.776 258.244, 322.560 259, 323.330 259 C 324.100 259, 326.004 260.002, 327.560 261.226 C 329.123 262.456, 332.427 263.686, 334.945 263.976 C 339.378 264.486, 339.508 264.600, 339.810 268.250 C 340.175 272.654, 337.050 272.235, 369 272.160 C 380.825 272.132, 391.727 272.360, 393.227 272.667 C 396.096 273.253, 401 280.454, 401 284.079 C 401 285.084, 401.416 286.940, 401.924 288.203 C 404.610 294.877, 407 309.550, 407 319.363 C 407 327.836, 407.322 330.179, 408.671 331.529 C 411.280 334.137, 412.110 345.293, 412.466 382.500 C 412.645 401.200, 413.090 421.767, 413.455 428.204 C 413.951 436.942, 413.793 440.490, 412.830 442.204 C 411.875 443.905, 411.480 452.141, 411.306 474 C 411.062 504.676, 410.853 507.290, 408.451 509.692 C 406.442 511.701, 406.289 561.127, 408.285 563.179 C 411.286 566.263, 415.051 584.433, 416.953 605 C 417.436 610.225, 418.544 616.173, 419.415 618.218 C 420.361 620.437, 421.013 624.871, 421.032 629.218 C 421.053 634.030, 421.562 637.158, 422.532 638.441 C 423.339 639.509, 424 641.620, 424 643.132 C 424 644.645, 424.450 646.160, 425 646.500 C 425.550 646.840, 426 647.991, 426 649.059 C 426 650.127, 426.421 651, 426.936 651 C 427.450 651, 428.070 655.612, 428.312 661.250 C 428.555 666.888, 429.232 673.750, 429.817 676.500 C 431.550 684.645, 431.316 720.166, 429.506 723.636 C 427.511 727.461, 427.414 744.712, 429.371 747.527 C 430.267 748.815, 430.896 753.553, 431.183 761.170 C 431.425 767.589, 432.118 773.439, 432.723 774.170 C 433.328 774.902, 434.123 779.325, 434.491 784 C 434.858 788.675, 435.798 794.819, 436.579 797.654 C 437.361 800.489, 438 803.921, 438 805.282 C 438 806.642, 438.675 809.371, 439.500 811.346 C 440.542 813.839, 441.005 818.537, 441.015 826.718 C 441.025 834.424, 441.529 839.884, 442.471 842.500 C 443.264 844.700, 443.932 848.188, 443.956 850.250 C 443.980 852.313, 444.337 854.004, 444.750 854.008 C 446.815 854.029, 448 860.180, 448 870.878 C 448 882.708, 446.883 888.057, 443.750 891.229 C 442.787 892.203, 442 894.169, 442 895.599 C 442 897.028, 441.394 899.616, 440.654 901.349 C 437.452 908.844, 437.055 911.697, 437.576 923.506 C 438.371 941.503, 438.392 941.586, 442.345 941.698 C 444.176 941.750, 447.617 942.784, 449.992 943.996 C 455.667 946.891, 466.370 947.368, 470 944.888 C 471.375 943.948, 474.741 942.871, 477.480 942.494 C 482.763 941.767, 486.476 939.628, 491.732 934.285 C 495.218 930.743, 497.101 930.245, 499.179 932.319 C 501.274 934.411, 504.886 934.971, 506.417 933.441 C 507.592 932.265, 507.890 932.424, 508.411 934.502 C 509.113 937.300, 511.815 940.070, 515.767 942.047 C 517.270 942.799, 519.271 944.050, 520.213 944.828 C 521.155 945.606, 522.605 945.982, 523.435 945.663 C 524.321 945.323, 525.550 945.948, 526.409 947.173 C 527.280 948.417, 528.493 949.025, 529.404 948.675 C 530.247 948.352, 531.202 948.518, 531.527 949.044 C 532.273 950.251, 543.098 950.298, 546.185 949.107 C 547.458 948.615, 550.627 946.107, 553.226 943.532 C 556.708 940.082, 558.462 939.012, 559.892 939.466 C 562.939 940.433, 563.220 938.660, 561.554 929.007 C 560.700 924.053, 560 918.126, 560 915.837 C 560 911.957, 556.254 904.327, 552.353 900.260 C 550.977 898.826, 551.707 875.729, 553.146 875.167 C 554.709 874.556, 554.150 860.007, 552.500 858.357 C 550.481 856.338, 550.567 855.906, 553.750 852.077 C 557.953 847.020, 559.882 841.297, 559.944 833.695 C 559.983 829.006, 560.654 825.455, 562.103 822.274 C 563.898 818.334, 564.191 815.867, 564.104 805.441 C 564.028 796.391, 564.389 792.483, 565.495 790.363 C 566.557 788.327, 566.989 784.284, 566.994 776.364 C 566.998 768.441, 567.431 764.402, 568.494 762.364 C 569.386 760.654, 569.990 756.781, 569.994 752.750 C 569.997 748.921, 570.433 746, 571 746 C 572.363 746, 572.342 722.281, 570.978 721.826 C 569.510 721.337, 569.138 677.169, 570.593 676.216 C 571.195 675.822, 572.259 669.200, 572.959 661.500 C 573.659 653.800, 574.914 645.925, 575.747 644 C 576.580 642.075, 577.657 635.100, 578.140 628.500 C 578.622 621.900, 579.382 611.550, 579.828 605.500 C 580.274 599.450, 581.335 592.925, 582.186 591 C 583.037 589.075, 584.291 583.675, 584.972 579 C 585.653 574.325, 586.539 568.309, 586.941 565.632 C 587.349 562.916, 588.354 560.381, 589.215 559.899 C 592.818 557.883, 592.661 513.222, 589.037 509.043 C 587.663 507.458, 587.188 504.262, 586.696 493.278 C 586.047 478.791, 586.713 473.145, 589.385 470.472 C 592.044 467.813, 591.676 453.024, 588.892 450.640 C 586.990 449.011, 586.853 448.193, 587.490 442.248 C 587.879 438.616, 588.863 434.994, 589.684 434.173 C 591.849 432.008, 591.237 402.380, 589 400.998 C 586.547 399.483, 586.781 344.075, 589.250 341.606 C 590.991 339.866, 591.039 339.412, 591.397 321.300 C 591.454 318.441, 592.063 315.538, 592.750 314.850 C 593.530 314.070, 594 310.754, 594 306.035 C 594 300.590, 594.519 297.494, 595.853 294.985 C 596.873 293.068, 598.022 289.795, 598.406 287.711 C 599.521 281.667, 607.726 273, 612.332 273 C 614.032 273, 616.345 272.085, 617.580 270.925 C 620.401 268.275, 633.683 267.964, 637.253 270.464 C 642.153 273.897, 653.233 271.191, 654.471 266.259 C 654.873 264.659, 655.775 264, 657.567 264 C 658.980 264, 661.118 262.897, 662.412 261.500 C 663.687 260.125, 665.410 259, 666.242 259 C 667.074 259, 668.307 258.334, 668.983 257.521 C 669.912 256.401, 670.686 256.297, 672.169 257.090 C 673.305 257.698, 674.626 257.774, 675.314 257.271 C 677.325 255.801, 709.463 256.770, 713.172 258.413 C 714.091 258.821, 715.691 258.701, 716.726 258.147 C 717.761 257.593, 719.145 257.472, 719.803 257.878 C 721.372 258.848, 748.188 258.620, 749.802 257.622 C 750.488 257.199, 752.345 257.136, 753.929 257.484 C 755.513 257.832, 757.041 257.743, 757.324 257.285 C 757.606 256.828, 762.262 256.325, 767.669 256.168 C 773.076 256.011, 779.075 255.477, 781 254.983 C 791.865 252.189, 795.654 250.788, 797 249.065 C 798.604 247.011, 802.671 246.431, 822.697 245.399 C 829.357 245.056, 833.629 245.266, 835.011 246.006 C 836.613 246.863, 837.486 246.842, 838.598 245.919 C 839.739 244.972, 840.565 244.964, 842.287 245.886 C 846.004 247.875, 871.012 247.772, 881.500 245.725 C 886.450 244.758, 891.948 243.732, 893.718 243.445 C 895.488 243.157, 897.609 242.248, 898.433 241.424 C 900.688 239.169, 906.513 237, 910.313 237 C 914.715 237, 917.245 234.248, 916.820 229.921 C 916.453 226.174, 914.907 225.236, 912.715 227.427 C 911.360 228.783, 911.063 228.781, 909.924 227.408 C 909.130 226.452, 907.786 226.088, 906.364 226.445 C 904.724 226.856, 903.778 226.455, 903.010 225.019 C 901.546 222.284, 896.813 220, 892.609 220 C 890.689 220, 888.852 219.570, 888.527 219.044 C 888.202 218.518, 887.259 218.347, 886.431 218.665 C 885.603 218.983, 884.107 218.502, 883.106 217.596 C 881.487 216.131, 881.148 216.116, 880.030 217.464 C 879.339 218.297, 878.361 218.723, 877.857 218.412 C 877.353 218.100, 873.917 217.630, 870.221 217.367 C 866.524 217.104, 863.113 216.504, 862.640 216.035 C 862.165 215.562, 860.483 215.633, 858.878 216.192 C 857.281 216.749, 855.320 216.953, 854.520 216.646 C 853.719 216.339, 852.859 216.419, 852.609 216.823 C 851.947 217.895, 838.359 218.115, 832.335 217.152 C 829.494 216.697, 826.569 216.649, 825.835 217.045 C 825.101 217.441, 819.550 217.350, 813.500 216.842 C 807.450 216.335, 797.878 215.805, 792.230 215.665 C 784.850 215.482, 781.467 214.989, 780.211 213.913 C 777.476 211.571, 754.667 208.788, 739 208.885 C 729.393 208.945, 718.232 209.702, 717.185 210.365 C 716.462 210.823, 714.221 210.889, 712.206 210.511 C 706.177 209.380, 676.899 209.072, 671.509 210.083 C 668.754 210.599, 665.999 211.694, 665.387 212.515 C 663.938 214.459, 649.859 215.077, 649.241 213.224 C 649.017 212.551, 647.807 212, 646.552 212 C 645.297 212, 643.179 211.142, 641.845 210.093 C 640.512 209.044, 637.315 207.870, 634.742 207.484 C 632.170 207.098, 629.545 206.156, 628.910 205.391 C 628.221 204.561, 625.843 204, 623.012 204 C 619.784 204, 617.458 203.361, 615.727 202 C 613.854 200.527, 611.646 199.994, 607.342 199.978 C 603.699 199.964, 599.859 199.211, 597.141 197.978 C 594.743 196.890, 591.518 196, 589.974 196 C 588.430 196, 587.003 195.509, 586.803 194.909 C 586.307 193.422, 566.693 193.422, 566.197 194.909 C 565.741 196.277, 558 196.362, 558 195 C 558 194.450, 557.362 194, 556.583 194 C 555.804 194, 555.013 193.540, 554.826 192.978 C 554.639 192.416, 552.168 191.590, 549.335 191.142 C 546.503 190.694, 543.436 189.579, 542.521 188.664 C 541.606 187.749, 539.330 187, 537.464 187 C 533.086 187, 532.212 185.324, 530.871 174.363 C 529.842 165.947, 529.903 165.284, 532.674 154.750 C 532.928 153.787, 533.735 153, 534.470 153 C 535.204 153, 536.285 151.620, 536.873 149.934 C 537.461 148.247, 538.943 146.057, 540.166 145.067 C 542.075 143.521, 542.587 141.517, 543.790 130.883 C 545.605 114.834, 546.431 82.434, 545.069 80.753 C 544.510 80.064, 542.465 77.700, 540.524 75.500 C 538.583 73.300, 536.763 70.781, 536.478 69.902 C 536.194 69.023, 534.867 67.805, 533.529 67.195 C 532.191 66.585, 530.423 64.784, 529.600 63.193 C 528.242 60.567, 527.493 60.242, 521.511 59.683 C 515.927 59.162, 514.260 58.527, 510.607 55.534 C 507.699 53.151, 505.269 52, 503.147 52 C 501.416 52, 500 51.550, 500 51 C 500 50.450, 498.650 50, 497 50 C 495.350 50, 494 50.450, 494 51" stroke="#FFFFFF" fill="none" stroke-width="6" stroke-linecap="round" stroke-linejoin="round" stroke-dasharray="8 12"/>
</svg>
