<svg xmlns="http://www.w3.org/2000/svg" viewBox="0 0 1000 1000">
  <path d="M 605.018 199.695 C 601.163 201.324, 600.776 202.888, 603.584 205.490 C 605.074 206.871, 605.776 208, 605.146 208 C 604.516 208, 604 208.841, 604 209.870 C 604 211.347, 604.955 211.848, 608.549 212.253 C 614.030 212.870, 614.500 213.271, 614.500 217.333 C 614.500 220.344, 614.709 220.515, 618.750 220.807 C 621.087 220.977, 623 221.539, 623 222.057 C 623 222.576, 623.969 223, 625.153 223 L 627.306 223 625.153 224.867 C 622.455 227.207, 622.389 229, 625 229 C 626.100 229, 627 229.450, 627 230 C 627 230.550, 629.025 231, 631.500 231 C 635.667 231, 636 231.190, 636 233.571 C 636 237.184, 638.225 238.997, 642.679 239.015 C 648.196 239.037, 648.755 239.739, 649.532 247.629 L 650.233 254.744 641.828 255.444 C 630.389 256.397, 625 254.836, 625 250.571 C 625 246.265, 615.698 241.952, 614.338 245.628 C 613.957 246.658, 613.163 247.872, 612.573 248.326 C 611.827 248.900, 611.882 249.307, 612.750 249.659 C 614.317 250.295, 614.561 274, 613 274 C 611.561 274, 611.766 276.738, 613.250 277.341 C 614.215 277.732, 614.184 278.069, 613.113 278.817 C 612.351 279.351, 611.506 282.085, 611.236 284.893 C 610.837 289.043, 610.395 290, 608.873 290 C 607.469 290, 607 290.733, 607 292.929 C 607 296.051, 604.780 299, 602.429 299 C 601.585 299, 601 299.989, 601 301.417 C 601 302.746, 600.506 303.998, 599.902 304.199 C 599.298 304.401, 598.564 306.688, 598.272 309.283 C 597.627 315.003, 595 315.996, 595 310.519 C 595 307.656, 594.564 306.929, 592.543 306.421 C 587.846 305.243, 587.502 305.962, 587.472 317.009 C 587.453 324.248, 587.078 327.474, 586.222 327.759 C 585.550 327.983, 585 329.704, 585 331.583 C 585 333.954, 584.541 335, 583.500 335 C 582.635 335, 582 334.096, 582 332.865 C 582 331.690, 580.847 329.661, 579.438 328.355 C 577.116 326.203, 577.022 325.835, 578.438 324.419 C 580.415 322.442, 580.444 320.108, 578.500 319.362 C 576.561 318.617, 576.574 316.032, 578.524 314.606 C 580.146 313.420, 579.598 307, 577.875 307 C 577.394 307, 577 305.200, 577 303 C 577 299.113, 577.097 299, 580.418 299 C 582.298 299, 584.548 298.727, 585.418 298.393 C 587.146 297.730, 587.614 295, 586 295 C 585.450 295, 585 294.149, 585 293.108 C 585 291.925, 584.064 290.982, 582.500 290.589 C 581.125 290.244, 580 289.520, 580 288.981 C 580 288.441, 579.325 288, 578.500 288 C 577.567 288, 577 287.056, 577 285.500 C 577 284.125, 576.550 283, 576 283 C 575.450 283, 575 281.912, 575 280.582 C 575 277.150, 574.008 275, 572.424 275 C 570.960 275, 571.600 272.006, 573.308 270.860 C 574.439 270.101, 567.413 263, 565.531 263 C 564.083 263, 563.034 259.949, 563.014 255.679 C 562.998 252.343, 560.958 250, 558.071 250 C 555.670 250, 555.303 248.481, 557.500 247.638 C 561.210 246.215, 557.346 238.197, 552.156 236.550 C 550.726 236.096, 550 235.046, 550 233.433 C 550 232.095, 549.550 231, 549 231 C 548.450 231, 547.993 229.313, 547.985 227.250 C 547.965 222.450, 547.244 221.459, 543.192 220.671 C 539.825 220.015, 537 217.950, 537 216.143 C 537 214.289, 533.876 212, 531.345 212 C 529.788 212, 527.541 210.669, 525.434 208.500 L 522.035 205 511.518 205 C 500.628 205, 497 206.345, 497 210.384 C 497 211.374, 495.194 211.882, 490.640 212.172 C 483.788 212.608, 481.412 214.043, 480.841 218.088 C 480.589 219.870, 479.782 220.583, 477.750 220.816 C 476.238 220.990, 475 221.553, 475 222.066 C 475 222.580, 474.325 223, 473.500 223 C 472.578 223, 472 223.937, 472 225.433 C 472 227.062, 471.272 228.096, 469.797 228.565 C 466.661 229.560, 465.002 231.495, 464.985 234.179 C 464.965 237.217, 464 238.574, 461.250 239.433 C 459.868 239.864, 459 240.933, 459 242.203 C 459 243.340, 457.907 245.283, 456.572 246.521 C 454.605 248.344, 454.007 250.170, 453.424 256.136 C 452.908 261.407, 452.177 263.960, 450.852 265.117 C 449.833 266.007, 449 267.594, 449 268.645 C 449 269.696, 448.100 271.326, 447 272.268 C 445.900 273.210, 445 274.660, 445 275.490 C 445 276.321, 444.550 277, 444 277 C 443.450 277, 443 277.482, 443 278.071 C 443 278.661, 442.325 279.818, 441.500 280.643 C 440.675 281.468, 440 283.198, 440 284.488 C 440 285.778, 439.571 286.983, 439.047 287.167 C 437.287 287.782, 436.662 295.519, 438.244 297.101 C 439.039 297.896, 439.939 300.771, 440.246 303.490 C 440.553 306.209, 441.298 308.599, 441.902 308.801 C 442.506 309.002, 443 309.767, 443 310.500 C 443 311.233, 442.506 311.998, 441.902 312.199 C 441.298 312.401, 440.564 314.688, 440.272 317.283 C 439.979 319.877, 439.348 322, 438.870 322 C 438.391 322, 438 322.675, 438 323.500 C 438 324.433, 437.056 325, 435.500 325 C 434.125 325, 433 325.450, 433 326 C 433 326.550, 432.100 327, 431 327 C 429.900 327, 429 326.550, 429 326 C 429 325.450, 428.100 325, 427 325 C 425.900 325, 425 324.606, 425 324.125 C 425 323.644, 423.650 322.980, 422 322.650 C 420.240 322.298, 419 321.419, 419 320.525 C 419 319.686, 418.550 319, 418 319 C 417.444 319, 417 316.333, 417 313 L 417 307 413.750 306.855 C 404.310 306.432, 402.045 307.377, 402.015 311.750 C 402.007 312.988, 401.550 314, 401 314 C 400.450 314, 400 315.350, 400 317 C 400 318.650, 399.550 320, 399 320 C 398.450 320, 397.994 321.238, 397.986 322.750 C 397.965 327.032, 396.899 330, 395.383 330 C 394.591 330, 394 331.022, 394 332.393 C 394 335.101, 392.360 336, 387.418 336 C 384.439 336, 384 336.321, 384 338.500 C 384 340.826, 384.340 341, 388.893 341 C 392.277 341, 393.960 341.454, 394.351 342.471 C 395.356 345.091, 392.406 346.864, 388.021 346.276 C 384.749 345.837, 384 346.041, 384 347.368 C 384 349.450, 383.792 349.425, 404.750 349.799 C 415.266 349.987, 416 350.130, 416 352 C 416 353.100, 415.550 354, 415 354 C 414.450 354, 414 354.675, 414 355.500 C 414 356.325, 414.675 357, 415.500 357 C 416.583 357, 417 355.889, 417 353 C 417 350.800, 417.450 349, 418 349 C 418.550 349, 419 348.325, 419 347.500 C 419 346.675, 418.550 346, 418 346 C 416.268 346, 416.908 344.001, 419.455 341.455 C 421.252 339.657, 422.993 339, 425.955 339 C 428.966 339, 430 338.598, 430 337.429 C 430 336.564, 430.562 335.230, 431.250 334.463 C 431.938 333.697, 433.055 332.406, 433.733 331.595 C 434.613 330.543, 436.045 330.295, 438.725 330.730 C 445.024 331.752, 445.187 332.241, 445.352 350.566 C 445.456 362.181, 445.855 367.292, 446.699 367.814 C 447.359 368.222, 448.192 371.468, 448.551 375.028 C 449.126 380.722, 448.951 381.789, 447.102 383.903 C 445.732 385.469, 445 387.671, 445 390.224 C 445 393.952, 442.646 397.979, 441.271 396.604 C 440.922 396.255, 440.511 393.845, 440.358 391.248 C 440.205 388.651, 439.612 386.371, 439.040 386.180 C 438.468 385.989, 438 384.971, 438 383.917 C 438 382.525, 437.246 381.963, 435.250 381.864 C 432.892 381.747, 432.821 381.666, 434.750 381.294 C 436.347 380.987, 437 380.156, 437 378.430 C 437 376.319, 436.540 376, 433.500 376 C 430.006 376, 428.506 378.227, 431.250 379.341 C 433.181 380.124, 430.046 381.966, 426.750 381.985 C 425.238 381.993, 424 382.450, 424 383 C 424 383.550, 423.325 384, 422.500 384 C 421.675 384, 421 384.482, 421 385.071 C 421 386.836, 418.285 389, 416.071 389 C 414.932 389, 414 388.550, 414 388 C 414 385.917, 409.145 386.967, 408.435 389.203 C 408.051 390.415, 407.083 392.059, 406.286 392.857 C 404.731 394.412, 405.334 401.197, 407.084 401.833 C 408.446 402.329, 408.193 405.755, 406.750 406.341 C 405.862 406.701, 405.818 407.087, 406.599 407.674 C 407.203 408.128, 408.006 411.200, 408.383 414.500 C 408.761 417.800, 409.504 420.650, 410.035 420.833 C 410.566 421.017, 411 421.756, 411 422.476 C 411 423.197, 411.675 424.045, 412.500 424.362 C 413.558 424.768, 414 426.419, 414 429.969 C 414 432.736, 414.450 435, 415 435 C 415.550 435, 416 436.350, 416 438 C 416 440.676, 416.329 441, 419.042 441 L 422.083 441 421.396 433.250 C 421.018 428.988, 420.328 425.351, 419.863 425.170 C 418.814 424.760, 421.467 422, 422.910 422 C 425.282 422, 425.463 439.402, 423.107 440.972 C 422.671 441.263, 422.028 442.974, 421.677 444.776 C 421.327 446.577, 419.906 449.185, 418.520 450.571 C 414.760 454.330, 415.802 462, 420.071 462 C 420.582 462, 421 464.459, 421 467.466 C 421 472.190, 421.407 473.347, 424 476 L 427 479.069 427 494.170 L 427 509.271 429.704 511.776 C 432.216 514.105, 432.433 514.960, 432.771 523.873 C 432.994 529.784, 433.588 533.759, 434.317 534.232 C 435.189 534.798, 435.106 535.253, 434 535.963 C 432.884 536.679, 432.411 539.364, 432.153 546.463 C 431.963 551.708, 431.400 556, 430.903 556 C 430.407 556, 430 556.900, 430 558 C 430 559.100, 430.482 560, 431.071 560 C 431.661 560, 431.436 560.707, 430.571 561.571 C 429.676 562.467, 429 564.833, 429 567.071 C 429 569.232, 428.550 571, 428 571 C 427.450 571, 427 571.900, 427 573 C 427 574.100, 426.550 575, 426 575 C 425.450 575, 425 575.914, 425 577.031 C 425 578.149, 424.337 579.317, 423.527 579.628 C 422.717 579.939, 421.749 581.837, 421.376 583.847 C 421.003 585.856, 419.930 588.175, 418.992 589 C 418.054 589.825, 416.966 591.513, 416.576 592.750 C 416.185 593.987, 415.481 595, 415.012 595 C 414.543 595, 413.862 596.350, 413.500 598 C 413.059 600.008, 412.233 601, 411 601 C 409.767 601, 408.941 601.992, 408.500 604 C 408.138 605.650, 407.427 607, 406.921 607 C 406.414 607, 406 607.878, 406 608.950 C 406 610.023, 405.265 611.312, 404.366 611.815 C 403.310 612.406, 402.558 614.544, 402.239 617.865 C 401.968 620.689, 401.353 623, 400.873 623 C 400.393 623, 400 623.660, 400 624.467 C 400 626.371, 393.371 633, 391.467 633 C 390.660 633, 390 633.410, 390 633.912 C 390 634.414, 388.235 635.122, 386.078 635.487 C 383.921 635.851, 381.911 636.791, 381.610 637.575 C 381.227 638.571, 379.397 639, 375.531 639 C 372.489 639, 370 639.450, 370 640 C 370 640.550, 368.912 641, 367.583 641 C 366.254 641, 365.002 641.494, 364.801 642.097 C 364.592 642.725, 360.612 643.433, 355.491 643.752 C 350.011 644.094, 346.026 644.831, 345.202 645.655 C 344.462 646.395, 342.764 647, 341.429 647 C 340.093 647, 339 647.398, 339 647.884 C 339 648.369, 335.991 648.959, 332.314 649.193 C 328.375 649.444, 325.464 650.108, 325.230 650.809 C 325.012 651.464, 324.196 652, 323.417 652 C 322.637 652, 322 652.430, 322 652.955 C 322 653.480, 320.425 654.205, 318.500 654.566 C 316.575 654.927, 315 655.563, 315 655.980 C 315 656.396, 313.097 656.992, 310.772 657.304 C 308.446 657.616, 306.383 658.350, 306.188 658.935 C 305.993 659.521, 305.196 660, 304.417 660 C 303.637 660, 303 660.400, 303 660.889 C 303 661.377, 301.425 662.073, 299.500 662.434 C 297.575 662.795, 296 663.461, 296 663.914 C 296 664.366, 294.174 664.982, 291.943 665.281 C 289.712 665.580, 287.124 666.700, 286.193 667.769 C 285.262 668.839, 283.488 670.034, 282.250 670.424 C 281.013 670.815, 280 671.519, 280 671.988 C 280 672.457, 278.737 673.118, 277.194 673.457 C 275.651 673.796, 273.752 674.957, 272.973 676.037 C 271.511 678.065, 266 678.827, 266 677 C 266 676.450, 265.325 676, 264.500 676 C 263.675 676, 263 676.441, 263 676.981 C 263 677.520, 261.875 678.244, 260.500 678.589 C 259.125 678.934, 258 679.598, 258 680.063 C 258 680.529, 256.326 681.223, 254.279 681.607 C 251.808 682.071, 249.354 683.597, 246.971 686.153 C 244.998 688.269, 242.622 690, 241.692 690 C 240.658 690, 240 690.790, 240 692.031 C 240 693.149, 239.366 694.306, 238.590 694.604 C 237.815 694.901, 236.906 696.237, 236.571 697.572 C 236.236 698.908, 235.520 700, 234.981 700 C 234.441 700, 234 700.675, 234 701.500 C 234 702.325, 233.518 703, 232.929 703 C 232.339 703, 231.102 703.756, 230.179 704.680 C 227.979 706.881, 227.570 774.024, 229.752 774.751 C 230.440 774.980, 231.285 776.930, 231.629 779.084 C 231.974 781.238, 232.648 783, 233.128 783 C 233.608 783, 234 783.675, 234 784.500 C 234 785.325, 234.450 786, 235 786 C 235.577 786, 236 789.139, 236 793.418 C 236 801.709, 236.564 804, 238.607 804 C 239.629 804, 240 805.466, 240 809.500 C 240 812.525, 240.450 815, 241 815 C 241.550 815, 242 816.350, 242 818 C 242 819.650, 242.450 821, 243 821 C 243.550 821, 244 822.129, 244 823.510 C 244 824.890, 244.900 826.790, 246 827.732 C 247.245 828.798, 248 830.682, 248 832.722 C 248 834.525, 248.418 836, 248.929 836 C 251.062 836, 253 839.366, 253 843.071 C 253 845.232, 253.409 847, 253.909 847 C 254.409 847, 254.971 851.683, 255.159 857.406 C 255.482 867.269, 255.643 867.944, 258.250 870.358 C 261.041 872.943, 261.817 875, 260 875 C 259.450 875, 258.993 877.138, 258.985 879.750 C 258.966 885.456, 258.326 886.629, 254.740 887.529 C 252.882 887.995, 252 888.869, 252 890.241 C 252 892.661, 248.432 896, 245.847 896 C 244.831 896, 244 896.450, 244 897 C 244 897.550, 243.100 898, 242 898 C 240.559 898, 240 898.667, 240 900.383 C 240 902.745, 237.908 903.954, 233.761 903.986 C 231.420 904.005, 228 907.049, 228 909.115 C 228 910.895, 226.053 912, 222.918 912 C 221.863 912, 221 912.388, 221 912.861 C 221 913.335, 218.199 913.976, 214.775 914.287 C 211.351 914.597, 208.388 915.335, 208.191 915.926 C 207.994 916.517, 207.233 917, 206.500 917 C 205.767 917, 205.017 917.446, 204.833 917.990 C 204.650 918.535, 201.580 919.285, 198.011 919.658 C 191.118 920.377, 189.718 921.164, 188.500 925 C 187.391 928.493, 185.483 930.047, 181.510 930.692 C 178.645 931.157, 178 931.697, 178 933.631 C 178 934.934, 177.550 936, 177 936 C 176.450 936, 176 938.250, 176 941 C 176 943.750, 176.450 946, 177 946 C 177.550 946, 178 946.666, 178 947.481 C 178 949.526, 180.981 950.014, 191.787 949.737 C 197.956 949.580, 201.336 949.077, 201.853 948.240 C 202.387 947.375, 207.083 946.777, 216.815 946.334 C 224.617 945.979, 231 945.345, 231 944.924 C 231 944.503, 232.350 943.862, 234 943.500 C 235.650 943.138, 237 942.427, 237 941.921 C 237 941.414, 238.762 941, 240.917 941 C 243.112 941, 245.012 940.463, 245.240 939.779 C 245.546 938.861, 253.058 938.498, 275.490 938.318 C 291.904 938.187, 305.596 937.672, 305.916 937.174 C 306.237 936.677, 307.512 935.954, 308.750 935.567 C 309.988 935.181, 311 934.478, 311 934.004 C 311 933.530, 311.788 932.353, 312.750 931.389 C 315.282 928.850, 315.339 908.195, 312.821 905.678 C 311.898 904.755, 310.693 904, 310.143 904 C 307.707 904, 306 900.675, 306 895.929 C 306 893.218, 305.602 891, 305.115 891 C 304.629 891, 303.921 888.525, 303.543 885.500 C 303.165 882.475, 302.438 880, 301.928 880 C 301.418 880, 301 879.325, 301 878.500 C 301 877.675, 300.550 877, 300 877 C 299.404 877, 299 873.167, 299 867.500 C 299 861.833, 299.404 858, 300 858 C 301.517 858, 301.279 844.297, 299.750 843.583 C 298.750 843.117, 298.750 842.883, 299.750 842.417 C 301.316 841.686, 301.559 818, 300 818 C 299.450 818, 299 817.325, 299 816.500 C 299 815.675, 299.450 815, 300 815 C 300.550 815, 301 814.325, 301 813.500 C 301 812.675, 300.550 812, 300 812 C 299.364 812, 299 804.167, 299 790.500 C 299 772.505, 298.766 769, 297.567 769 C 296.779 769, 295.849 768.100, 295.500 767 C 295.151 765.900, 294.446 765, 293.933 765 C 293.420 765, 293 762.493, 293 759.429 C 293 754.042, 294.411 751, 296.910 751 C 297.488 751, 298.245 749.871, 298.592 748.491 C 298.973 746.971, 300.163 745.746, 301.611 745.383 C 302.925 745.053, 304 744.382, 304 743.892 C 304 743.401, 304.675 743, 305.500 743 C 306.325 743, 307 742.550, 307 742 C 307 741.417, 310.310 741, 314.929 741 C 320.284 741, 323.299 740.558, 324.218 739.639 C 325.272 738.585, 331.541 738.170, 351.985 737.802 C 370.800 737.463, 378.503 736.992, 378.779 736.163 C 378.992 735.523, 379.804 735, 380.583 735 C 381.363 735, 382 734.550, 382 734 C 382 733.450, 383.093 733, 384.429 733 C 385.764 733, 387.640 732.217, 388.596 731.261 C 389.843 730.014, 392.402 729.418, 397.634 729.153 C 403.498 728.857, 405.043 728.441, 405.488 727.039 C 405.941 725.610, 407.674 725.188, 415.028 724.711 C 421.224 724.310, 424.500 723.643, 425.578 722.564 C 426.439 721.704, 428.198 721, 429.488 721 C 430.778 721, 431.993 720.521, 432.188 719.935 C 432.383 719.350, 434.446 718.616, 436.772 718.304 C 439.097 717.992, 441 717.346, 441 716.868 C 441 716.391, 442.607 716, 444.571 716 C 446.536 716, 448.818 715.325, 449.643 714.500 C 450.468 713.675, 452.461 713, 454.071 713 C 455.682 713, 457 712.601, 457 712.113 C 457 711.625, 460.231 711.043, 464.181 710.820 C 468.579 710.571, 471.518 709.946, 471.764 709.207 C 472.013 708.462, 474.242 708, 477.583 708 C 480.563 708, 483 707.586, 483 707.079 C 483 706.573, 484.350 705.862, 486 705.500 C 487.650 705.138, 489 704.427, 489 703.921 C 489 703.384, 499.439 703, 514 703 C 527.974 703, 539 703.393, 539 703.892 C 539 704.382, 540.125 705.066, 541.500 705.411 C 542.875 705.756, 544 706.480, 544 707.019 C 544 707.583, 547.610 708, 552.500 708 C 557.175 708, 561 708.385, 561 708.856 C 561 709.326, 564.479 709.974, 568.730 710.296 C 572.982 710.617, 576.619 711.357, 576.813 711.940 C 577.262 713.286, 582 713.341, 582 712 C 582 711.450, 582.675 711, 583.500 711 C 584.325 711, 585 711.414, 585 711.920 C 585 712.427, 587.925 713.154, 591.500 713.537 C 595.075 713.920, 598 714.631, 598 715.116 C 598 715.602, 599.800 716, 602 716 C 604.200 716, 606 716.450, 606 717 C 606 717.550, 607.318 718, 608.929 718 C 610.539 718, 612.532 718.675, 613.357 719.500 C 614.358 720.501, 616.860 721, 620.879 721 C 625.574 721, 627.116 721.385, 627.879 722.750 C 628.768 724.341, 631.455 724.529, 657.429 724.820 C 674.156 725.007, 686 725.525, 686 726.070 C 686 726.581, 686.638 727, 687.417 727 C 688.196 727, 689.015 727.546, 689.238 728.214 C 689.496 728.987, 691.981 729.458, 696.071 729.509 C 712.405 729.712, 712.911 729.798, 713.589 732.500 C 713.934 733.875, 714.618 735, 715.108 735 C 715.599 735, 716 737.250, 716 740 C 716 742.750, 715.550 745, 715 745 C 714.450 745, 714 745.880, 714 746.955 C 714 748.030, 712.883 750.026, 711.517 751.392 C 709.182 753.728, 708.995 754.722, 708.367 768.187 C 707.970 776.688, 707.256 782.787, 706.609 783.208 C 704.708 784.442, 704.537 799.394, 706.402 801.259 C 708.688 803.545, 708.775 827.489, 706.500 828.362 C 705.510 828.742, 705 830.308, 705 832.969 C 705 835.186, 704.550 837, 704 837 C 703.389 837, 703 841.667, 703 849 C 703 856.333, 703.389 861, 704 861 C 704.550 861, 705 862.800, 705 865 C 705 867.889, 705.417 869, 706.500 869 C 707.325 869, 708 869.392, 708 869.872 C 708 870.352, 709.800 871.032, 712 871.384 C 715.424 871.931, 716 872.382, 716 874.512 C 716 875.880, 715.608 877, 715.128 877 C 714.648 877, 713.968 878.800, 713.616 881 C 712.905 885.448, 710.277 886.420, 707.223 883.366 C 705.993 882.136, 705.484 882.047, 705.164 883.007 C 704.368 885.397, 701.559 888, 699.778 888 C 698.410 888, 698 888.814, 698 891.531 C 698 893.748, 697.441 895.277, 696.500 895.638 C 695.588 895.988, 695 897.501, 695 899.499 C 695 902.163, 694.531 902.901, 692.515 903.407 C 689.216 904.235, 688.756 906.544, 689.162 920.243 C 689.618 935.643, 689.046 935.164, 707.195 935.353 C 717.718 935.462, 721.435 935.181, 721.747 934.250 C 721.978 933.562, 723.217 933, 724.500 933 C 725.783 933, 726.983 932.618, 727.167 932.152 C 727.829 930.467, 753.011 929.865, 753.646 931.519 C 754.286 933.187, 761 933.626, 761 932 C 761 930.160, 763.857 930.974, 764.499 932.998 C 765.396 935.824, 766.980 935.989, 790.787 935.731 C 808.427 935.540, 812.242 935.243, 813.055 934 C 813.910 932.693, 814.169 932.725, 815.068 934.250 C 815.635 935.212, 816.940 936, 817.966 936 C 818.993 936, 820.060 936.562, 820.338 937.250 C 820.741 938.250, 820.858 938.250, 820.921 937.250 C 820.964 936.563, 821.675 936, 822.500 936 C 823.325 936, 824 935.587, 824 935.082 C 824 934.577, 824.272 933.456, 824.604 932.590 C 824.982 931.605, 824.525 930.755, 823.380 930.316 C 822.375 929.930, 819.923 927.901, 817.931 925.807 C 815.939 923.713, 813.790 922, 813.155 922 C 812.520 922, 812 921.550, 812 921 C 812 920.450, 811.167 920, 810.150 920 C 809.132 920, 807.265 918.650, 806 917 C 804.004 914.395, 803.062 914, 798.850 914 C 796.183 914, 794 913.550, 794 913 C 794 912.436, 791.167 912, 787.500 912 C 782.700 912, 781 911.646, 781 910.646 C 781 908.041, 776.214 904, 773.130 904 C 768.863 904, 767 903.056, 767 900.893 C 767 899.852, 766.550 899, 766 899 C 765.450 899, 765 898.383, 765 897.629 C 765 896.730, 763.196 896.018, 759.769 895.564 C 754.236 894.830, 753.040 893.889, 753.015 890.250 C 753.007 889.013, 752.550 888, 752 888 C 751.450 888, 751 887.363, 751 886.583 C 751 885.804, 750.543 885.014, 749.985 884.828 C 749.427 884.642, 748.687 881.455, 748.341 877.745 C 747.994 874.035, 747.326 871, 746.855 871 C 746.385 871, 746 869.875, 746 868.500 C 746 867.125, 746.450 866, 747 866 C 747.550 866, 748 865.325, 748 864.500 C 748 863.675, 747.550 863, 747 863 C 746.436 863, 746 860.167, 746 856.500 C 746 852.833, 746.436 850, 747 850 C 747.550 850, 748 847.557, 748 844.571 C 748 839.379, 749.605 836, 752.071 836 C 752.582 836, 753 832.469, 753 828.153 C 753 820.276, 754.713 816, 757.867 816 C 758.490 816, 759 815.325, 759 814.500 C 759 813.675, 759.450 813, 760 813 C 760.550 813, 761 810.975, 761 808.500 C 761 805.261, 761.401 804, 762.433 804 C 763.221 804, 764.151 803.100, 764.500 802 C 764.849 800.900, 765.554 800, 766.067 800 C 766.580 800, 767 797.975, 767 795.500 C 767 793.025, 766.550 791, 766 791 C 764.091 791, 764.929 786.157, 766.949 785.516 C 768.021 785.176, 769.163 784.062, 769.487 783.041 C 769.811 782.020, 770.674 780.955, 771.405 780.675 C 772.365 780.306, 772.770 777.576, 772.863 770.834 C 772.936 765.600, 773.434 761.355, 773.997 761.168 C 774.548 760.984, 775 760.008, 775 759 C 775 757.992, 775.494 757.002, 776.098 756.801 C 776.701 756.600, 777.438 753.412, 777.735 749.717 C 778.031 746.023, 778.662 743, 779.137 743 C 779.612 743, 780 741.975, 780 740.722 C 780 739.469, 780.900 737.674, 782 736.732 C 783.370 735.559, 784 733.782, 784 731.093 C 784 728.930, 784.561 726.905, 785.250 726.583 C 786.250 726.117, 786.250 725.883, 785.250 725.417 C 783.764 724.723, 783.565 722, 785 722 C 786.533 722, 786.292 706.285, 784.750 705.662 C 783.750 705.259, 783.750 705.142, 784.750 705.079 C 786.243 704.985, 786.490 698, 785 698 C 784.450 698, 784 696.912, 784 695.582 C 784 692.130, 783.005 690, 781.393 690 C 780.627 690, 780 689.325, 780 688.500 C 780 687.675, 779.580 687, 779.066 687 C 778.553 687, 777.990 685.763, 777.816 684.250 C 777.590 682.281, 776.861 681.409, 775.250 681.180 C 774.013 681.005, 773 680.478, 773 680.010 C 773 679.542, 771.650 678.862, 770 678.500 C 767.949 678.050, 767 677.239, 767 675.940 C 767 674.745, 766.070 673.805, 764.500 673.411 C 763.125 673.066, 762 672.431, 762 672 C 762 671.569, 760.789 670.913, 759.309 670.541 C 757.829 670.170, 755.830 668.957, 754.866 667.846 C 753.880 666.709, 751.339 665.587, 749.057 665.281 C 746.826 664.982, 745 664.396, 745 663.980 C 745 663.563, 743.425 662.927, 741.500 662.566 C 739.575 662.205, 738 661.480, 738 660.955 C 738 660.430, 737.518 660, 736.929 660 C 736.339 660, 735.182 659.325, 734.357 658.500 C 733.532 657.675, 731.539 657, 729.929 657 C 728.318 657, 727 656.550, 727 656 C 727 655.450, 724.817 655, 722.150 655 C 717.938 655, 716.996 654.605, 715 652 C 713.222 649.680, 711.911 649, 709.215 649 C 706.781 649, 705.030 648.245, 703.412 646.500 C 701.606 644.551, 700.109 644, 696.619 644 C 693.974 644, 691.529 643.387, 690.643 642.500 C 689.818 641.675, 688.661 641, 688.071 641 C 687.482 641, 687 640.615, 687 640.144 C 687 639.674, 683.557 639.028, 679.350 638.710 C 675.142 638.392, 671.424 637.686, 671.088 637.142 C 670.752 636.598, 667.669 635.836, 664.238 635.447 C 660.807 635.059, 658 634.350, 658 633.871 C 658 633.392, 657.100 633, 656 633 C 654.900 633, 654 632.584, 654 632.076 C 654 631.567, 647.779 631.005, 640.176 630.826 C 628.628 630.554, 626.064 630.212, 624.604 628.750 C 623.513 627.657, 621.332 627, 618.796 627 C 615.838 627, 614.208 626.393, 612.797 624.766 C 611.188 622.910, 609.598 622.468, 603.421 622.156 C 596.556 621.809, 595.937 621.597, 595.383 619.390 C 595.053 618.076, 594.382 617, 593.892 617 C 593.401 617, 593 614.780, 593 612.067 C 593 607.827, 592.684 607.036, 590.750 606.433 C 587.910 605.546, 587.035 604.215, 587.015 600.750 C 587.005 598.979, 586.466 598, 585.500 598 C 583.376 598, 580 594.361, 580 592.071 C 580 590.061, 577.947 587.483, 575.768 586.756 C 573.937 586.145, 573.920 532.859, 575.750 532.250 C 577.230 531.757, 577.451 528, 576 528 C 575.450 528, 575 526.425, 575 524.500 C 575 522.575, 575.450 521, 576 521 C 576.550 521, 577 520.362, 577 519.583 C 577 518.804, 577.529 517.990, 578.175 517.775 C 578.974 517.509, 579.498 512.766, 579.810 502.985 C 580.282 488.197, 580.654 486.879, 584.725 485.587 C 586.757 484.942, 586.872 484.202, 587.179 469.917 C 587.387 460.207, 587.897 454.672, 588.628 454.212 C 590.658 452.930, 591.324 445.467, 589.565 443.708 C 587.828 441.971, 587.435 438, 589 438 C 589.550 438, 590 436.650, 590 435 C 590 433.350, 590.469 432, 591.042 432 C 593.060 432, 596.064 428.330, 595.420 426.651 C 595.071 425.743, 594.352 425, 593.822 425 C 593.291 425, 593.532 424.325, 594.357 423.500 C 595.182 422.675, 596.339 422, 596.929 422 C 597.518 422, 598 421.100, 598 420 C 598 418.889, 597.333 418, 596.500 418 C 595.675 418, 595 417.550, 595 417 C 595 416.450, 594.100 416, 593 416 C 590.258 416, 590.215 411.384, 592.949 410.516 C 594.021 410.176, 595.176 409.021, 595.516 407.949 C 596.290 405.511, 598 405.393, 598 407.778 C 598 409.608, 601.255 413, 603.011 413 C 603.555 413, 604 411.875, 604 410.500 C 604 409.125, 604.401 408, 604.892 408 C 605.382 408, 606.058 406.905, 606.394 405.567 C 606.730 404.228, 607.847 402.866, 608.876 402.539 C 610.057 402.165, 610.956 400.660, 611.312 398.463 C 611.886 394.929, 613.978 392, 615.929 392 C 616.518 392, 617 391.550, 617 391 C 617 390.450, 617.675 390, 618.500 390 C 619.325 390, 620 389.325, 620 388.500 C 620 387.675, 620.398 387, 620.885 387 C 621.371 387, 622.079 384.525, 622.457 381.500 C 622.835 378.475, 623.562 376, 624.072 376 C 624.582 376, 625 374.875, 625 373.500 C 625 372.125, 625.401 371, 625.892 371 C 626.382 371, 627.066 369.875, 627.411 368.500 C 627.756 367.125, 628.639 366, 629.373 366 C 632.237 366, 636 361.200, 636 357.548 C 636 355.596, 636.395 354, 636.878 354 C 637.360 354, 637.946 350.007, 638.180 345.127 C 638.495 338.529, 639.039 335.818, 640.302 334.555 C 641.236 333.621, 642 332.439, 642 331.929 C 642 331.418, 642.836 331, 643.858 331 C 645.529 331, 645.789 329.766, 646.432 318.763 C 646.826 312.033, 647.503 306.296, 647.936 306.013 C 648.370 305.731, 648.947 301.145, 649.219 295.822 C 649.732 285.791, 650.503 283.927, 654.689 282.599 C 657.613 281.671, 657.971 279.517, 657.986 262.750 C 657.995 253.592, 658.379 248, 659 248 C 659.550 248, 660 246.248, 660 244.107 C 660 239.813, 658.969 239, 653.525 239 C 650.172 239, 649 237.712, 649 234.025 C 649 233.029, 648.325 231.955, 647.500 231.638 C 646.675 231.322, 646 230.567, 646 229.960 C 646 228.550, 643.470 226, 642.071 226 C 641.482 226, 641 225.550, 641 225 C 641 224.450, 639.875 224, 638.500 224 C 636.389 224, 636 223.533, 636 221 C 636 219.350, 635.550 218, 635 218 C 634.450 218, 634 217.325, 634 216.500 C 634 215.667, 633.111 215, 632 215 C 630.900 215, 630 214.550, 630 214 C 630 213.450, 629.137 213, 628.082 213 C 624.878 213, 623 211.882, 623 209.975 C 623 207.095, 621.902 205, 620.393 205 C 619.627 205, 619 204.325, 619 203.500 C 619 202.675, 618.138 202, 617.083 202 C 616.029 202, 615.017 201.571, 614.833 201.047 C 614.419 199.862, 607.030 198.845, 605.018 199.695" stroke="#FFFFFF" fill="none" stroke-width="6" stroke-linecap="round" stroke-linejoin="round" stroke-dasharray="8 12"/>
</svg>
